<?xml version="1.0" encoding="UTF-8" standalone="no"?>
<!-- Created with Inkscape (http://www.inkscape.org/) -->

<svg
   xmlns:dc="http://purl.org/dc/elements/1.1/"
   xmlns:cc="http://creativecommons.org/ns#"
   xmlns:rdf="http://www.w3.org/1999/02/22-rdf-syntax-ns#"
   xmlns:svg="http://www.w3.org/2000/svg"
   xmlns="http://www.w3.org/2000/svg"
   xmlns:sodipodi="http://sodipodi.sourceforge.net/DTD/sodipodi-0.dtd"
   xmlns:inkscape="http://www.inkscape.org/namespaces/inkscape"
   width="500"
   height="500"
   id="svg2"
   version="1.1"
   inkscape:version="0.48.4 r9939"
   sodipodi:docname="beaker.svg">
  <defs
     id="defs4" />
  <sodipodi:namedview
     id="base"
     pagecolor="#ffffff"
     bordercolor="#666666"
     borderopacity="1.0"
     inkscape:pageopacity="0.0"
     inkscape:pageshadow="2"
     inkscape:zoom="0.7"
     inkscape:cx="357.3621"
     inkscape:cy="233.76605"
     inkscape:document-units="px"
     inkscape:current-layer="layer4"
     showgrid="false"
     showguides="true"
     inkscape:guide-bbox="true"
     inkscape:window-width="1301"
     inkscape:window-height="744"
     inkscape:window-x="65"
     inkscape:window-y="24"
     inkscape:window-maximized="1" />
  <metadata
     id="metadata7">
    <rdf:RDF>
      <cc:Work
         rdf:about="">
        <dc:format>image/svg+xml</dc:format>
        <dc:type
           rdf:resource="http://purl.org/dc/dcmitype/StillImage" />
        <dc:title></dc:title>
      </cc:Work>
    </rdf:RDF>
  </metadata>
  <g
     inkscape:label="Flask"
     inkscape:groupmode="layer"
     id="layer1"
     transform="translate(0,-552.36218)"
     sodipodi:insensitive="true">
    <path
       style="fill:#c6d3d4;fill-opacity:1;stroke:none"
       d="m 418.07143,629.79075 -352.85715,0 37.14286,37.14286 0,308.57143 c 2.55558,11.74065 8.27433,11.88302 13.57143,13.57143 l 290.71428,0 c 6.6341,-1.55609 10.34343,-6.30285 11.74108,-13.57143 l 0.0446,-331.42857 10.11729,-14.2984 z"
       id="path2989"
       inkscape:connector-curvature="0"
       sodipodi:nodetypes="cccccccccc" />
  </g>
  <g
     inkscape:groupmode="layer"
     id="layer2"
     inkscape:label="Liquid"
     style="display:inline"
     transform="translate(0,-552.36218)"
     sodipodi:insensitive="true">
    <path
       style="fill:#e96060;fill-opacity:1;stroke:none"
       d="m 102.36338,814.1404 316.02055,0 0,161.38392 c -0.78212,5.97268 -4.56076,11.64939 -11.02031,13.61608 l -291.60714,0 c -9.79245,-2.43012 -11.5786,-3.66382 -13.40989,-13.97321 l 0.017,-169.59822"
       id="path3769"
       inkscape:connector-curvature="0"
       sodipodi:nodetypes="ccccccc" />
  </g>
  <g
     inkscape:groupmode="layer"
     id="layer3"
     inkscape:label="Reflexes"
     transform="translate(0,-552.36218)"
     sodipodi:insensitive="true">
    <path
       style="fill:#d64444;fill-opacity:1;stroke:none"
       d="m 102.34635,867.88416 c 53.70644,99.40095 262.33114,88.78353 316.03758,-0.86391 l 0,108.53984 c -0.78212,5.97268 -5.02745,13.30118 -11.487,15.26787 l -291.60714,0 c -9.79245,-2.43012 -11.5786,-3.66382 -13.40989,-13.97321"
       id="path3769-9"
       inkscape:connector-curvature="0"
       sodipodi:nodetypes="cccccc" />
    <path
       style="opacity:0.63800001;fill:#dee5e6;fill-opacity:1;stroke:none"
       d="m 312.71429,638.18361 0,175.87955 57.85714,0 0,-175.87955 z"
       id="path3829"
       inkscape:connector-curvature="0" />
    <path
       style="opacity:0.63786005;fill:#f09595;fill-opacity:1;stroke:none"
       d="m 312.35714,814.56527 0,161.59384 c 49.20104,-0.54938 56.86809,-41.04675 57.85715,-51.39065 l 0,-110.20319 z"
       id="path3829-9"
       inkscape:connector-curvature="0"
       sodipodi:nodetypes="ccccc" />
  </g>
  <g
     inkscape:groupmode="layer"
     id="layer4"
     inkscape:label="Text"
     transform="translate(0,-552.36218)"
     sodipodi:insensitive="true">
    <rect
       style="opacity:0.68800001;fill:#ffffff;fill-opacity:1;stroke:none"
       id="rect3887"
       width="55.714287"
       height="33.57143"
       x="148.71429"
       y="858.07648"
       rx="6.4000001"
       ry="6.4000001" />
    <g
       transform="translate(-254,382)"
       style="font-size:18px;font-style:normal;font-weight:normal;line-height:125%;letter-spacing:0px;word-spacing:0px;opacity:0.68800001;fill:#ffffff;fill-opacity:1;stroke:none;font-family:Sans"
       id="flowRoot3889">
      <path
         d="m 409.72559,467.12061 0,2.42578 -7.81348,0 0,-2.03028 c 2.31445,-3.78515 3.68847,-6.12596 4.12207,-7.02246 0.43945,-0.90233 0.65917,-1.60546 0.65918,-2.10937 -10e-6,-0.38671 -0.0674,-0.67382 -0.20215,-0.86133 -0.12891,-0.19335 -0.32813,-0.29003 -0.59766,-0.29004 -0.26953,10e-6 -0.47168,0.10548 -0.60644,0.31641 -0.12891,0.21095 -0.19336,0.62989 -0.19336,1.25683 l 0,1.35352 -3.18164,0 0,-0.51856 c 0,-0.79686 0.041,-1.42381 0.12305,-1.88086 0.082,-0.46287 0.28418,-0.91698 0.60644,-1.3623 0.32227,-0.4453 0.74121,-0.78221 1.25684,-1.01074 0.51562,-0.2285 1.13378,-0.34276 1.85449,-0.34278 1.4121,2e-5 2.47851,0.35158 3.19922,1.05469 0.72655,0.69728 1.08983,1.58204 1.08984,2.6543 -10e-6,0.81446 -0.20508,1.67579 -0.61523,2.58398 -0.40431,0.90821 -1.60255,2.83595 -3.59473,5.78321 l 3.89356,0"
         style="font-variant:normal;font-weight:bold;font-stretch:normal;fill:#ffffff;font-family:Impact;-inkscape-font-specification:Impact Bold"
         id="path4065"
         inkscape:connector-curvature="0" />
      <path
         d="m 419.48145,460.1333 0,4.74609 c -10e-6,1.07813 -0.0586,1.86329 -0.17579,2.35547 -0.11719,0.49219 -0.36036,0.95215 -0.72949,1.37989 -0.36915,0.42773 -0.81446,0.73535 -1.33594,0.92285 -0.52149,0.1875 -1.10449,0.28125 -1.74902,0.28125 -0.84961,0 -1.55567,-0.0967 -2.11816,-0.29004 -0.56251,-0.19922 -1.01075,-0.50684 -1.34473,-0.92285 -0.33399,-0.41602 -0.57129,-0.85254 -0.71191,-1.30957 -0.14063,-0.46289 -0.21094,-1.19531 -0.21094,-2.19727 l 0,-4.96582 c 0,-1.30663 0.11133,-2.28514 0.33398,-2.93555 0.22852,-0.65037 0.67676,-1.17186 1.34473,-1.56445 0.67382,-0.39256 1.48828,-0.58885 2.44336,-0.58887 0.77929,2e-5 1.47656,0.13771 2.0918,0.41309 0.61522,0.26954 1.07518,0.6006 1.37988,0.99316 0.30468,0.39259 0.50976,0.83498 0.61523,1.32715 0.11132,0.4922 0.16699,1.27736 0.167,2.35547 m -3.55079,-1.19531 c 0,-0.75585 -0.0381,-1.22753 -0.11425,-1.41504 -0.0703,-0.19335 -0.24024,-0.29003 -0.50977,-0.29004 -0.26368,10e-6 -0.43946,0.10255 -0.52734,0.30762 -0.082,0.19923 -0.12305,0.66505 -0.12305,1.39746 l 0,6.94336 c 0,0.82617 0.0381,1.32422 0.11426,1.49414 0.082,0.16992 0.25488,0.25488 0.51855,0.25488 0.26367,0 0.43652,-0.0996 0.51856,-0.29883 0.082,-0.19921 0.12304,-0.64745 0.12304,-1.34472 l 0,-7.04883"
         style="font-variant:normal;font-weight:bold;font-stretch:normal;fill:#ffffff;font-family:Impact;-inkscape-font-specification:Impact Bold"
         id="path4067"
         inkscape:connector-curvature="0" />
      <path
         d="m 429.14941,460.1333 0,4.74609 c 0,1.07813 -0.0586,1.86329 -0.17578,2.35547 -0.11719,0.49219 -0.36036,0.95215 -0.72949,1.37989 -0.36915,0.42773 -0.81446,0.73535 -1.33594,0.92285 -0.52149,0.1875 -1.10449,0.28125 -1.74902,0.28125 -0.84961,0 -1.55567,-0.0967 -2.11816,-0.29004 -0.56251,-0.19922 -1.01075,-0.50684 -1.34473,-0.92285 -0.33399,-0.41602 -0.57129,-0.85254 -0.71192,-1.30957 -0.14062,-0.46289 -0.21093,-1.19531 -0.21093,-2.19727 l 0,-4.96582 c 0,-1.30663 0.11132,-2.28514 0.33398,-2.93555 0.22852,-0.65037 0.67676,-1.17186 1.34473,-1.56445 0.67382,-0.39256 1.48828,-0.58885 2.44336,-0.58887 0.77929,2e-5 1.47655,0.13771 2.09179,0.41309 0.61523,0.26954 1.07519,0.6006 1.37989,0.99316 0.30468,0.39259 0.50975,0.83498 0.61523,1.32715 0.11132,0.4922 0.16699,1.27736 0.16699,2.35547 m -3.55078,-1.19531 c 0,-0.75585 -0.0381,-1.22753 -0.11426,-1.41504 -0.0703,-0.19335 -0.24023,-0.29003 -0.50976,-0.29004 -0.26368,10e-6 -0.43946,0.10255 -0.52734,0.30762 -0.082,0.19923 -0.12306,0.66505 -0.12305,1.39746 l 0,6.94336 c -1e-5,0.82617 0.0381,1.32422 0.11426,1.49414 0.082,0.16992 0.25487,0.25488 0.51855,0.25488 0.26367,0 0.43652,-0.0996 0.51856,-0.29883 0.082,-0.19921 0.12304,-0.64745 0.12304,-1.34472 l 0,-7.04883"
         style="font-variant:normal;font-weight:bold;font-stretch:normal;fill:#ffffff;font-family:Impact;-inkscape-font-specification:Impact Bold"
         id="path4069"
         inkscape:connector-curvature="0" />
      <path
         d="m 438.81738,460.1333 0,4.74609 c -1e-5,1.07813 -0.0586,1.86329 -0.17578,2.35547 -0.11719,0.49219 -0.36036,0.95215 -0.72949,1.37989 -0.36915,0.42773 -0.81446,0.73535 -1.33594,0.92285 -0.52149,0.1875 -1.1045,0.28125 -1.74902,0.28125 -0.84962,0 -1.55567,-0.0967 -2.11817,-0.29004 -0.5625,-0.19922 -1.01074,-0.50684 -1.34472,-0.92285 -0.33399,-0.41602 -0.57129,-0.85254 -0.71192,-1.30957 -0.14062,-0.46289 -0.21093,-1.19531 -0.21093,-2.19727 l 0,-4.96582 c 0,-1.30663 0.11132,-2.28514 0.33398,-2.93555 0.22852,-0.65037 0.67676,-1.17186 1.34473,-1.56445 0.67382,-0.39256 1.48827,-0.58885 2.44336,-0.58887 0.77929,2e-5 1.47655,0.13771 2.09179,0.41309 0.61523,0.26954 1.07519,0.6006 1.37989,0.99316 0.30468,0.39259 0.50975,0.83498 0.61523,1.32715 0.11132,0.4922 0.16698,1.27736 0.16699,2.35547 m -3.55078,-1.19531 c 0,-0.75585 -0.0381,-1.22753 -0.11426,-1.41504 -0.0703,-0.19335 -0.24024,-0.29003 -0.50976,-0.29004 -0.26368,10e-6 -0.43946,0.10255 -0.52735,0.30762 -0.082,0.19923 -0.12305,0.66505 -0.12304,1.39746 l 0,6.94336 c -10e-6,0.82617 0.0381,1.32422 0.11426,1.49414 0.082,0.16992 0.25487,0.25488 0.51855,0.25488 0.26367,0 0.43652,-0.0996 0.51855,-0.29883 0.082,-0.19921 0.12305,-0.64745 0.12305,-1.34472 l 0,-7.04883"
         style="font-variant:normal;font-weight:bold;font-stretch:normal;fill:#ffffff;font-family:Impact;-inkscape-font-specification:Impact Bold"
         id="path4071"
         inkscape:connector-curvature="0" />
      <path
         d="m 446.78027,457.8833 -0.0615,1.10742 c 0.27539,-0.43944 0.60351,-0.76756 0.98437,-0.98437 0.38086,-0.22265 0.81445,-0.33397 1.30079,-0.33399 0.94921,2e-5 1.69628,0.43947 2.24121,1.31836 0.29882,-0.43944 0.63573,-0.76756 1.01074,-0.98437 0.37499,-0.22265 0.791,-0.33397 1.24805,-0.33399 0.6035,2e-5 1.10155,0.1465 1.49414,0.43946 0.39842,0.29298 0.6533,0.65333 0.76465,1.08105 0.11131,0.42189 0.16697,1.11036 0.16699,2.06543 l 0,8.28809 -3.44532,0 0,-7.60254 c 0,-0.99609 -0.0352,-1.61132 -0.10546,-1.84571 -0.0645,-0.24022 -0.21974,-0.36034 -0.46582,-0.36035 -0.25197,10e-6 -0.41603,0.1172 -0.49219,0.35157 -0.0703,0.23438 -0.10548,0.85254 -0.10547,1.85449 l 0,7.60254 -3.44531,0 0,-7.40918 c -10e-6,-1.14257 -0.0293,-1.82812 -0.0879,-2.05664 -0.0527,-0.22851 -0.20509,-0.34277 -0.45703,-0.34278 -0.15821,10e-6 -0.29298,0.0615 -0.4043,0.18457 -0.11133,0.1172 -0.17286,0.26368 -0.18457,0.43946 -0.0117,0.16993 -0.0176,0.53614 -0.0176,1.09863 l 0,8.08594 -3.44531,0 0,-11.66309 3.50683,0"
         style="font-variant:normal;font-weight:bold;font-stretch:normal;fill:#ffffff;font-family:Impact;-inkscape-font-specification:Impact Bold"
         id="path4073"
         inkscape:connector-curvature="0" />
      <path
         d="m 460.81641,455.31689 0,14.2295 -3.65625,0 0,-14.2295 3.65625,0"
         style="font-variant:normal;font-weight:bold;font-stretch:normal;fill:#ffffff;font-family:Impact;-inkscape-font-specification:Impact Bold"
         id="path4075"
         inkscape:connector-curvature="0" />
    </g>
    <path
       style="font-size:medium;font-style:normal;font-variant:normal;font-weight:normal;font-stretch:normal;text-indent:0;text-align:start;text-decoration:none;line-height:normal;letter-spacing:normal;word-spacing:normal;text-transform:none;direction:ltr;block-progression:tb;writing-mode:lr-tb;text-anchor:start;baseline-shift:baseline;opacity:0.68800001;color:#000000;fill:#ffffff;fill-opacity:1;stroke:none;stroke-width:5.5999999;marker:none;visibility:visible;display:inline;overflow:visible;enable-background:accumulate;font-family:Sans;-inkscape-font-specification:Sans"
       d="m 297.78125,667.71875 0,2.78125 -0.0937,284.8125 0,2.8125 2.8125,0 58.65625,-0.28125 -0.0312,-5.59375 -55.84375,0.28125 0,-40.625 29.4375,0 0,-4.21875 -29.4375,0 0,-38.9375 55.875,0 0,-4.1875 -55.84375,0 0,-47.53125 29.6875,0 0,-4.1875 -29.65625,0 0,-50.65625 55.8125,0 0,-4.21875 -55.8125,0 0,-41.78125 29.375,0 0,-4.21875 -29.34375,0 0,-38.65625 55.78125,0 0,-5.59375 -58.59375,0 -2.78125,0 z"
       id="path3915"
       inkscape:connector-curvature="0" />
    <g
       transform="translate(-30.507117,208.78768)"
       style="font-size:16px;font-style:normal;font-weight:normal;line-height:125%;letter-spacing:0px;word-spacing:0px;opacity:0.68800001;fill:#ffffff;fill-opacity:1;stroke:none;font-family:Sans"
       id="flowRoot3889-6">
      <path
         d="m 408.80469,465.32248 0,2.15625 -6.94532,0 0,-1.80468 c 2.05729,-3.36458 3.27865,-5.44531 3.66407,-6.24219 0.39062,-0.80208 0.58593,-1.42708 0.58593,-1.875 0,-0.34374 -0.0599,-0.59895 -0.17968,-0.76563 -0.11459,-0.17186 -0.29167,-0.2578 -0.53125,-0.25781 -0.23959,1e-5 -0.41928,0.0938 -0.53907,0.28125 -0.11458,0.18751 -0.17187,0.55991 -0.17187,1.11719 l 0,1.20312 -2.82813,0 0,-0.46093 c 0,-0.70833 0.0365,-1.26562 0.10938,-1.67188 0.0729,-0.41145 0.2526,-0.81509 0.53906,-1.21094 0.28646,-0.39582 0.65885,-0.6953 1.11719,-0.89843 0.45833,-0.20312 1.00781,-0.30468 1.64844,-0.30469 1.2552,1e-5 2.20312,0.31251 2.84375,0.9375 0.64582,0.6198 0.96874,1.40626 0.96875,2.35937 -10e-6,0.72397 -0.1823,1.48959 -0.54688,2.29688 -0.35938,0.8073 -1.42448,2.52084 -3.19531,5.14062 l 3.46094,0"
         style="font-variant:normal;font-weight:bold;font-stretch:normal;fill:#ffffff;font-family:Impact;-inkscape-font-specification:Impact Bold"
         id="path4103"
         inkscape:connector-curvature="0" />
      <path
         d="m 417.47656,459.11155 0,4.21875 c -1e-5,0.95833 -0.0521,1.65625 -0.15625,2.09375 -0.10417,0.4375 -0.32032,0.84635 -0.64844,1.22656 -0.32813,0.38021 -0.72396,0.65364 -1.1875,0.82031 -0.46354,0.16667 -0.98177,0.25 -1.55468,0.25 -0.75521,0 -1.38282,-0.0859 -1.88282,-0.25781 -0.5,-0.17709 -0.89843,-0.45052 -1.19531,-0.82031 -0.29687,-0.36979 -0.50781,-0.75782 -0.63281,-1.16407 -0.125,-0.41145 -0.1875,-1.06249 -0.1875,-1.95312 l 0,-4.41406 c 0,-1.16145 0.099,-2.03124 0.29687,-2.60938 0.20313,-0.57811 0.60157,-1.04165 1.19532,-1.39062 0.59895,-0.34895 1.32291,-0.52343 2.17187,-0.52344 0.69271,1e-5 1.3125,0.12241 1.85938,0.36719 0.54687,0.23959 0.95572,0.53386 1.22656,0.88281 0.27083,0.34897 0.45312,0.7422 0.54687,1.17969 0.099,0.43751 0.14843,1.13542 0.14844,2.09375 m -3.15625,-1.0625 c 0,-0.67187 -0.0339,-1.09114 -0.10156,-1.25782 -0.0625,-0.17186 -0.21355,-0.2578 -0.45313,-0.25781 -0.23437,1e-5 -0.39062,0.0912 -0.46875,0.27344 -0.0729,0.17709 -0.10937,0.59115 -0.10937,1.24219 l 0,6.17187 c 0,0.73438 0.0338,1.17709 0.10156,1.32813 0.0729,0.15104 0.22656,0.22656 0.46094,0.22656 0.23437,0 0.38802,-0.0885 0.46094,-0.26563 0.0729,-0.17708 0.10937,-0.57552 0.10937,-1.19531 l 0,-6.26562"
         style="font-variant:normal;font-weight:bold;font-stretch:normal;fill:#ffffff;font-family:Impact;-inkscape-font-specification:Impact Bold"
         id="path4105"
         inkscape:connector-curvature="0" />
      <path
         d="m 426.07031,459.11155 0,4.21875 c -1e-5,0.95833 -0.0521,1.65625 -0.15625,2.09375 -0.10417,0.4375 -0.32032,0.84635 -0.64844,1.22656 -0.32813,0.38021 -0.72396,0.65364 -1.1875,0.82031 -0.46354,0.16667 -0.98177,0.25 -1.55468,0.25 -0.75521,0 -1.38282,-0.0859 -1.88282,-0.25781 -0.5,-0.17709 -0.89843,-0.45052 -1.19531,-0.82031 -0.29687,-0.36979 -0.50781,-0.75782 -0.63281,-1.16407 -0.125,-0.41145 -0.1875,-1.06249 -0.1875,-1.95312 l 0,-4.41406 c 0,-1.16145 0.099,-2.03124 0.29687,-2.60938 0.20313,-0.57811 0.60157,-1.04165 1.19532,-1.39062 0.59895,-0.34895 1.32291,-0.52343 2.17187,-0.52344 0.69271,1e-5 1.3125,0.12241 1.85938,0.36719 0.54687,0.23959 0.95572,0.53386 1.22656,0.88281 0.27083,0.34897 0.45312,0.7422 0.54687,1.17969 0.099,0.43751 0.14843,1.13542 0.14844,2.09375 m -3.15625,-1.0625 c 0,-0.67187 -0.0339,-1.09114 -0.10156,-1.25782 -0.0625,-0.17186 -0.21355,-0.2578 -0.45313,-0.25781 -0.23437,1e-5 -0.39062,0.0912 -0.46875,0.27344 -0.0729,0.17709 -0.10937,0.59115 -0.10937,1.24219 l 0,6.17187 c 0,0.73438 0.0338,1.17709 0.10156,1.32813 0.0729,0.15104 0.22656,0.22656 0.46094,0.22656 0.23437,0 0.38802,-0.0885 0.46094,-0.26563 0.0729,-0.17708 0.10937,-0.57552 0.10937,-1.19531 l 0,-6.26562"
         style="font-variant:normal;font-weight:bold;font-stretch:normal;fill:#ffffff;font-family:Impact;-inkscape-font-specification:Impact Bold"
         id="path4107"
         inkscape:connector-curvature="0" />
      <path
         d="m 434.66406,459.11155 0,4.21875 c -1e-5,0.95833 -0.0521,1.65625 -0.15625,2.09375 -0.10417,0.4375 -0.32032,0.84635 -0.64844,1.22656 -0.32813,0.38021 -0.72396,0.65364 -1.1875,0.82031 -0.46354,0.16667 -0.98177,0.25 -1.55468,0.25 -0.75521,0 -1.38282,-0.0859 -1.88282,-0.25781 -0.5,-0.17709 -0.89843,-0.45052 -1.19531,-0.82031 -0.29687,-0.36979 -0.50781,-0.75782 -0.63281,-1.16407 -0.125,-0.41145 -0.1875,-1.06249 -0.1875,-1.95312 l 0,-4.41406 c 0,-1.16145 0.099,-2.03124 0.29687,-2.60938 0.20313,-0.57811 0.60157,-1.04165 1.19532,-1.39062 0.59895,-0.34895 1.32291,-0.52343 2.17187,-0.52344 0.69271,1e-5 1.3125,0.12241 1.85938,0.36719 0.54687,0.23959 0.95572,0.53386 1.22656,0.88281 0.27083,0.34897 0.45312,0.7422 0.54687,1.17969 0.099,0.43751 0.14843,1.13542 0.14844,2.09375 m -3.15625,-1.0625 c 0,-0.67187 -0.0339,-1.09114 -0.10156,-1.25782 -0.0625,-0.17186 -0.21355,-0.2578 -0.45313,-0.25781 -0.23437,1e-5 -0.39062,0.0912 -0.46875,0.27344 -0.0729,0.17709 -0.10937,0.59115 -0.10937,1.24219 l 0,6.17187 c 0,0.73438 0.0338,1.17709 0.10156,1.32813 0.0729,0.15104 0.22656,0.22656 0.46094,0.22656 0.23437,0 0.38802,-0.0885 0.46094,-0.26563 0.0729,-0.17708 0.10937,-0.57552 0.10937,-1.19531 l 0,-6.26562"
         style="font-variant:normal;font-weight:bold;font-stretch:normal;fill:#ffffff;font-family:Impact;-inkscape-font-specification:Impact Bold"
         id="path4109"
         inkscape:connector-curvature="0" />
    </g>
    <g
       transform="translate(-29.976,299.35053)"
       style="font-size:16px;font-style:normal;font-weight:normal;line-height:125%;letter-spacing:0px;word-spacing:0px;opacity:0.68800001;fill:#ffffff;fill-opacity:1;stroke:none;font-family:Sans"
       id="flowRoot3889-6-6">
      <path
         d="m 406.86719,454.8303 0,12.64843 -3.15625,0 0,-6.78125 c 0,-0.97916 -0.0234,-1.5677 -0.0703,-1.76562 -0.0469,-0.19791 -0.17708,-0.34635 -0.39062,-0.44531 -0.20833,-0.10416 -0.67708,-0.15625 -1.40625,-0.15625 l -0.3125,0 0,-1.47657 c 1.52604,-0.32811 2.68489,-1.00259 3.47656,-2.02343 l 1.85938,0"
         style="font-variant:normal;font-weight:bold;font-stretch:normal;fill:#ffffff;font-family:Impact;-inkscape-font-specification:Impact Bold"
         id="path4094"
         inkscape:connector-curvature="0" />
      <path
         d="m 414.53125,454.8303 0,8.26562 0.89844,0 0,2.15625 -0.89844,0 0,2.22656 -3.15625,0 0,-2.22656 -3.75,0 0,-2.15625 2.72656,-8.26562 4.17969,0 m -3.15625,8.26562 0,-5.38281 -1.39063,5.38281 1.39063,0"
         style="font-variant:normal;font-weight:bold;font-stretch:normal;fill:#ffffff;font-family:Impact;-inkscape-font-specification:Impact Bold"
         id="path4096"
         inkscape:connector-curvature="0" />
      <path
         d="m 423.53906,459.11155 0,4.21875 c -1e-5,0.95833 -0.0521,1.65625 -0.15625,2.09375 -0.10417,0.4375 -0.32032,0.84635 -0.64844,1.22656 -0.32813,0.38021 -0.72396,0.65364 -1.1875,0.82031 -0.46354,0.16667 -0.98177,0.25 -1.55468,0.25 -0.75521,0 -1.38282,-0.0859 -1.88282,-0.25781 -0.5,-0.17709 -0.89843,-0.45052 -1.19531,-0.82031 -0.29687,-0.36979 -0.50781,-0.75782 -0.63281,-1.16407 -0.125,-0.41145 -0.1875,-1.06249 -0.1875,-1.95312 l 0,-4.41406 c 0,-1.16145 0.099,-2.03124 0.29687,-2.60938 0.20313,-0.57811 0.60157,-1.04165 1.19532,-1.39062 0.59895,-0.34895 1.32291,-0.52343 2.17187,-0.52344 0.69271,1e-5 1.3125,0.12241 1.85938,0.36719 0.54687,0.23959 0.95572,0.53386 1.22656,0.88281 0.27083,0.34897 0.45312,0.7422 0.54687,1.17969 0.099,0.43751 0.14843,1.13542 0.14844,2.09375 m -3.15625,-1.0625 c 0,-0.67187 -0.0339,-1.09114 -0.10156,-1.25782 -0.0625,-0.17186 -0.21355,-0.2578 -0.45313,-0.25781 -0.23437,1e-5 -0.39062,0.0912 -0.46875,0.27344 -0.0729,0.17709 -0.10937,0.59115 -0.10937,1.24219 l 0,6.17187 c 0,0.73438 0.0338,1.17709 0.10156,1.32813 0.0729,0.15104 0.22656,0.22656 0.46094,0.22656 0.23437,0 0.38802,-0.0885 0.46094,-0.26563 0.0729,-0.17708 0.10937,-0.57552 0.10937,-1.19531 l 0,-6.26562"
         style="font-variant:normal;font-weight:bold;font-stretch:normal;fill:#ffffff;font-family:Impact;-inkscape-font-specification:Impact Bold"
         id="path4098"
         inkscape:connector-curvature="0" />
      <path
         d="m 432.13281,459.11155 0,4.21875 c -1e-5,0.95833 -0.0521,1.65625 -0.15625,2.09375 -0.10417,0.4375 -0.32032,0.84635 -0.64844,1.22656 -0.32813,0.38021 -0.72396,0.65364 -1.1875,0.82031 -0.46354,0.16667 -0.98177,0.25 -1.55468,0.25 -0.75521,0 -1.38282,-0.0859 -1.88282,-0.25781 -0.5,-0.17709 -0.89843,-0.45052 -1.19531,-0.82031 -0.29687,-0.36979 -0.50781,-0.75782 -0.63281,-1.16407 -0.125,-0.41145 -0.1875,-1.06249 -0.1875,-1.95312 l 0,-4.41406 c 0,-1.16145 0.099,-2.03124 0.29687,-2.60938 0.20313,-0.57811 0.60157,-1.04165 1.19532,-1.39062 0.59895,-0.34895 1.32291,-0.52343 2.17187,-0.52344 0.69271,1e-5 1.3125,0.12241 1.85938,0.36719 0.54687,0.23959 0.95572,0.53386 1.22656,0.88281 0.27083,0.34897 0.45312,0.7422 0.54687,1.17969 0.099,0.43751 0.14843,1.13542 0.14844,2.09375 m -3.15625,-1.0625 c 0,-0.67187 -0.0339,-1.09114 -0.10156,-1.25782 -0.0625,-0.17186 -0.21355,-0.2578 -0.45313,-0.25781 -0.23437,1e-5 -0.39062,0.0912 -0.46875,0.27344 -0.0729,0.17709 -0.10937,0.59115 -0.10937,1.24219 l 0,6.17187 c 0,0.73438 0.0338,1.17709 0.10156,1.32813 0.0729,0.15104 0.22656,0.22656 0.46094,0.22656 0.23437,0 0.38802,-0.0885 0.46094,-0.26563 0.0729,-0.17708 0.10937,-0.57552 0.10937,-1.19531 l 0,-6.26562"
         style="font-variant:normal;font-weight:bold;font-stretch:normal;fill:#ffffff;font-family:Impact;-inkscape-font-specification:Impact Bold"
         id="path4100"
         inkscape:connector-curvature="0" />
    </g>
    <g
       transform="translate(-30.15179,403.84545)"
       style="font-size:16px;font-style:normal;font-weight:normal;line-height:125%;letter-spacing:0px;word-spacing:0px;opacity:0.68800001;fill:#ffffff;fill-opacity:1;stroke:none;font-family:Sans"
       id="flowRoot3889-6-3">
      <path
         d="m 406.86719,454.8303 0,12.64843 -3.15625,0 0,-6.78125 c 0,-0.97916 -0.0234,-1.5677 -0.0703,-1.76562 -0.0469,-0.19791 -0.17708,-0.34635 -0.39062,-0.44531 -0.20833,-0.10416 -0.67708,-0.15625 -1.40625,-0.15625 l -0.3125,0 0,-1.47657 c 1.52604,-0.32811 2.68489,-1.00259 3.47656,-2.02343 l 1.85938,0"
         style="font-variant:normal;font-weight:bold;font-stretch:normal;fill:#ffffff;font-family:Impact;-inkscape-font-specification:Impact Bold"
         id="path4085"
         inkscape:connector-curvature="0" />
      <path
         d="m 415.53906,459.11155 0,4.21875 c -1e-5,0.95833 -0.0521,1.65625 -0.15625,2.09375 -0.10417,0.4375 -0.32032,0.84635 -0.64844,1.22656 -0.32813,0.38021 -0.72396,0.65364 -1.1875,0.82031 -0.46354,0.16667 -0.98177,0.25 -1.55468,0.25 -0.75521,0 -1.38282,-0.0859 -1.88282,-0.25781 -0.5,-0.17709 -0.89843,-0.45052 -1.19531,-0.82031 -0.29687,-0.36979 -0.50781,-0.75782 -0.63281,-1.16407 -0.125,-0.41145 -0.1875,-1.06249 -0.1875,-1.95312 l 0,-4.41406 c 0,-1.16145 0.099,-2.03124 0.29687,-2.60938 0.20313,-0.57811 0.60157,-1.04165 1.19532,-1.39062 0.59895,-0.34895 1.32291,-0.52343 2.17187,-0.52344 0.69271,1e-5 1.3125,0.12241 1.85938,0.36719 0.54687,0.23959 0.95572,0.53386 1.22656,0.88281 0.27083,0.34897 0.45312,0.7422 0.54687,1.17969 0.099,0.43751 0.14843,1.13542 0.14844,2.09375 m -3.15625,-1.0625 c 0,-0.67187 -0.0339,-1.09114 -0.10156,-1.25782 -0.0625,-0.17186 -0.21355,-0.2578 -0.45313,-0.25781 -0.23437,1e-5 -0.39062,0.0912 -0.46875,0.27344 -0.0729,0.17709 -0.10937,0.59115 -0.10937,1.24219 l 0,6.17187 c 0,0.73438 0.0338,1.17709 0.10156,1.32813 0.0729,0.15104 0.22656,0.22656 0.46094,0.22656 0.23437,0 0.38802,-0.0885 0.46094,-0.26563 0.0729,-0.17708 0.10937,-0.57552 0.10937,-1.19531 l 0,-6.26562"
         style="font-variant:normal;font-weight:bold;font-stretch:normal;fill:#ffffff;font-family:Impact;-inkscape-font-specification:Impact Bold"
         id="path4087"
         inkscape:connector-curvature="0" />
      <path
         d="m 424.13281,459.11155 0,4.21875 c -1e-5,0.95833 -0.0521,1.65625 -0.15625,2.09375 -0.10417,0.4375 -0.32032,0.84635 -0.64844,1.22656 -0.32813,0.38021 -0.72396,0.65364 -1.1875,0.82031 -0.46354,0.16667 -0.98177,0.25 -1.55468,0.25 -0.75521,0 -1.38282,-0.0859 -1.88282,-0.25781 -0.5,-0.17709 -0.89843,-0.45052 -1.19531,-0.82031 -0.29687,-0.36979 -0.50781,-0.75782 -0.63281,-1.16407 -0.125,-0.41145 -0.1875,-1.06249 -0.1875,-1.95312 l 0,-4.41406 c 0,-1.16145 0.099,-2.03124 0.29687,-2.60938 0.20313,-0.57811 0.60157,-1.04165 1.19532,-1.39062 0.59895,-0.34895 1.32291,-0.52343 2.17187,-0.52344 0.69271,1e-5 1.3125,0.12241 1.85938,0.36719 0.54687,0.23959 0.95572,0.53386 1.22656,0.88281 0.27083,0.34897 0.45312,0.7422 0.54687,1.17969 0.099,0.43751 0.14843,1.13542 0.14844,2.09375 m -3.15625,-1.0625 c 0,-0.67187 -0.0339,-1.09114 -0.10156,-1.25782 -0.0625,-0.17186 -0.21355,-0.2578 -0.45313,-0.25781 -0.23437,1e-5 -0.39062,0.0912 -0.46875,0.27344 -0.0729,0.17709 -0.10937,0.59115 -0.10937,1.24219 l 0,6.17187 c 0,0.73438 0.0338,1.17709 0.10156,1.32813 0.0729,0.15104 0.22656,0.22656 0.46094,0.22656 0.23437,0 0.38802,-0.0885 0.46094,-0.26563 0.0729,-0.17708 0.10937,-0.57552 0.10937,-1.19531 l 0,-6.26562"
         style="font-variant:normal;font-weight:bold;font-stretch:normal;fill:#ffffff;font-family:Impact;-inkscape-font-specification:Impact Bold"
         id="path4089"
         inkscape:connector-curvature="0" />
      <path
         d="m 432.72656,459.11155 0,4.21875 c -1e-5,0.95833 -0.0521,1.65625 -0.15625,2.09375 -0.10417,0.4375 -0.32032,0.84635 -0.64844,1.22656 -0.32813,0.38021 -0.72396,0.65364 -1.1875,0.82031 -0.46354,0.16667 -0.98177,0.25 -1.55468,0.25 -0.75521,0 -1.38282,-0.0859 -1.88282,-0.25781 -0.5,-0.17709 -0.89843,-0.45052 -1.19531,-0.82031 -0.29687,-0.36979 -0.50781,-0.75782 -0.63281,-1.16407 -0.125,-0.41145 -0.1875,-1.06249 -0.1875,-1.95312 l 0,-4.41406 c 0,-1.16145 0.099,-2.03124 0.29687,-2.60938 0.20313,-0.57811 0.60157,-1.04165 1.19532,-1.39062 0.59895,-0.34895 1.32291,-0.52343 2.17187,-0.52344 0.69271,1e-5 1.3125,0.12241 1.85938,0.36719 0.54687,0.23959 0.95572,0.53386 1.22656,0.88281 0.27083,0.34897 0.45312,0.7422 0.54687,1.17969 0.099,0.43751 0.14843,1.13542 0.14844,2.09375 m -3.15625,-1.0625 c 0,-0.67187 -0.0339,-1.09114 -0.10156,-1.25782 -0.0625,-0.17186 -0.21355,-0.2578 -0.45313,-0.25781 -0.23437,1e-5 -0.39062,0.0912 -0.46875,0.27344 -0.0729,0.17709 -0.10937,0.59115 -0.10937,1.24219 l 0,6.17187 c 0,0.73438 0.0338,1.17709 0.10156,1.32813 0.0729,0.15104 0.22656,0.22656 0.46094,0.22656 0.23437,0 0.38802,-0.0885 0.46094,-0.26563 0.0729,-0.17708 0.10937,-0.57552 0.10937,-1.19531 l 0,-6.26562"
         style="font-variant:normal;font-weight:bold;font-stretch:normal;fill:#ffffff;font-family:Impact;-inkscape-font-specification:Impact Bold"
         id="path4091"
         inkscape:connector-curvature="0" />
    </g>
    <g
       transform="translate(-30.15179,492.81227)"
       style="font-size:16px;font-style:normal;font-weight:normal;line-height:125%;letter-spacing:0px;word-spacing:0px;opacity:0.68800001;fill:#ffffff;fill-opacity:1;stroke:none;font-family:Sans"
       id="flowRoot3889-6-9">
      <path
         d="m 409.57812,458.18967 -3.15625,0 c 0,-0.58853 -0.008,-0.95832 -0.0234,-1.10937 -0.0104,-0.15624 -0.0729,-0.28645 -0.1875,-0.39063 -0.10938,-0.10416 -0.26042,-0.15624 -0.45313,-0.15625 -0.16146,1e-5 -0.29427,0.0495 -0.39844,0.14844 -0.10417,0.099 -0.16406,0.22657 -0.17968,0.38281 -0.0156,0.15626 -0.0234,0.47136 -0.0234,0.94531 l 0,2.01563 c 0.16145,-0.33854 0.39843,-0.59114 0.71094,-0.75781 0.31249,-0.17187 0.69791,-0.25781 1.15625,-0.25782 0.57812,1e-5 1.08853,0.15626 1.53125,0.46875 0.4427,0.31251 0.72395,0.68751 0.84375,1.125 0.11978,0.43751 0.17968,1.02865 0.17968,1.77344 l 0,1.00781 c 0,0.88542 -0.0339,1.54428 -0.10156,1.97657 -0.0677,0.43229 -0.25001,0.83333 -0.54687,1.20312 -0.29168,0.36458 -0.69532,0.64844 -1.21094,0.85156 -0.51042,0.20313 -1.10678,0.30469 -1.78906,0.30469 -0.84896,0 -1.54428,-0.11719 -2.08594,-0.35156 -0.54167,-0.23438 -0.96094,-0.57031 -1.25781,-1.00781 -0.29167,-0.44271 -0.46354,-0.90625 -0.51563,-1.39063 C 402.02344,464.48655 402,463.54645 402,462.15061 l 0,-1.75 c 0,-1.5052 0.0208,-2.51041 0.0625,-3.01563 0.0469,-0.5104 0.22917,-0.99217 0.54687,-1.44531 0.31771,-0.45311 0.75,-0.79165 1.29688,-1.01562 0.55208,-0.22916 1.1875,-0.34374 1.90625,-0.34375 0.88541,10e-6 1.61197,0.14324 2.17969,0.42968 0.5677,0.28647 0.97395,0.69012 1.21875,1.21094 0.24478,0.52084 0.36718,1.17709 0.36718,1.96875 m -3.15625,3.94531 c 0,-0.44791 -0.0495,-0.7552 -0.14843,-0.92187 -0.099,-0.16666 -0.26042,-0.25 -0.48438,-0.25 -0.21875,0 -0.38021,0.0807 -0.48437,0.24219 -0.099,0.15625 -0.14844,0.46615 -0.14844,0.92968 l 0,2.28907 c 0,0.55729 0.0469,0.92187 0.14062,1.09375 0.099,0.17187 0.26042,0.25781 0.48438,0.25781 0.13541,0 0.27604,-0.0651 0.42187,-0.19531 0.14583,-0.13542 0.21875,-0.49479 0.21875,-1.07813 l 0,-2.36719"
         style="font-variant:normal;font-weight:bold;font-stretch:normal;fill:#ffffff;font-family:Impact;-inkscape-font-specification:Impact Bold"
         id="path4078"
         inkscape:connector-curvature="0" />
      <path
         d="m 418.10156,459.11155 0,4.21875 c -1e-5,0.95833 -0.0521,1.65625 -0.15625,2.09375 -0.10417,0.4375 -0.32032,0.84635 -0.64844,1.22656 -0.32813,0.38021 -0.72396,0.65364 -1.1875,0.82031 -0.46354,0.16667 -0.98177,0.25 -1.55468,0.25 -0.75521,0 -1.38282,-0.0859 -1.88282,-0.25781 -0.5,-0.17709 -0.89843,-0.45052 -1.19531,-0.82031 -0.29687,-0.36979 -0.50781,-0.75782 -0.63281,-1.16407 -0.125,-0.41145 -0.1875,-1.06249 -0.1875,-1.95312 l 0,-4.41406 c 0,-1.16145 0.099,-2.03124 0.29687,-2.60938 0.20313,-0.57811 0.60157,-1.04165 1.19532,-1.39062 0.59895,-0.34895 1.32291,-0.52343 2.17187,-0.52344 0.69271,1e-5 1.3125,0.12241 1.85938,0.36719 0.54687,0.23959 0.95572,0.53386 1.22656,0.88281 0.27083,0.34897 0.45312,0.7422 0.54687,1.17969 0.099,0.43751 0.14843,1.13542 0.14844,2.09375 m -3.15625,-1.0625 c 0,-0.67187 -0.0339,-1.09114 -0.10156,-1.25782 -0.0625,-0.17186 -0.21355,-0.2578 -0.45313,-0.25781 -0.23437,1e-5 -0.39062,0.0912 -0.46875,0.27344 -0.0729,0.17709 -0.10937,0.59115 -0.10937,1.24219 l 0,6.17187 c 0,0.73438 0.0338,1.17709 0.10156,1.32813 0.0729,0.15104 0.22656,0.22656 0.46094,0.22656 0.23437,0 0.38802,-0.0885 0.46094,-0.26563 0.0729,-0.17708 0.10937,-0.57552 0.10937,-1.19531 l 0,-6.26562"
         style="font-variant:normal;font-weight:bold;font-stretch:normal;fill:#ffffff;font-family:Impact;-inkscape-font-specification:Impact Bold"
         id="path4080"
         inkscape:connector-curvature="0" />
      <path
         d="m 426.69531,459.11155 0,4.21875 c -1e-5,0.95833 -0.0521,1.65625 -0.15625,2.09375 -0.10417,0.4375 -0.32032,0.84635 -0.64844,1.22656 -0.32813,0.38021 -0.72396,0.65364 -1.1875,0.82031 -0.46354,0.16667 -0.98177,0.25 -1.55468,0.25 -0.75521,0 -1.38282,-0.0859 -1.88282,-0.25781 -0.5,-0.17709 -0.89843,-0.45052 -1.19531,-0.82031 -0.29687,-0.36979 -0.50781,-0.75782 -0.63281,-1.16407 -0.125,-0.41145 -0.1875,-1.06249 -0.1875,-1.95312 l 0,-4.41406 c 0,-1.16145 0.099,-2.03124 0.29687,-2.60938 0.20313,-0.57811 0.60157,-1.04165 1.19532,-1.39062 0.59895,-0.34895 1.32291,-0.52343 2.17187,-0.52344 0.69271,1e-5 1.3125,0.12241 1.85938,0.36719 0.54687,0.23959 0.95572,0.53386 1.22656,0.88281 0.27083,0.34897 0.45312,0.7422 0.54687,1.17969 0.099,0.43751 0.14843,1.13542 0.14844,2.09375 m -3.15625,-1.0625 c 0,-0.67187 -0.0339,-1.09114 -0.10156,-1.25782 -0.0625,-0.17186 -0.21355,-0.2578 -0.45313,-0.25781 -0.23437,1e-5 -0.39062,0.0912 -0.46875,0.27344 -0.0729,0.17709 -0.10937,0.59115 -0.10937,1.24219 l 0,6.17187 c 0,0.73438 0.0338,1.17709 0.10156,1.32813 0.0729,0.15104 0.22656,0.22656 0.46094,0.22656 0.23437,0 0.38802,-0.0885 0.46094,-0.26563 0.0729,-0.17708 0.10937,-0.57552 0.10937,-1.19531 l 0,-6.26562"
         style="font-variant:normal;font-weight:bold;font-stretch:normal;fill:#ffffff;font-family:Impact;-inkscape-font-specification:Impact Bold"
         id="path4082"
         inkscape:connector-curvature="0" />
    </g>
  </g>
</svg>
