<?xml version="1.0" encoding="UTF-8" standalone="no"?>
<svg
   xmlns:dc="http://purl.org/dc/elements/1.1/"
   xmlns:cc="http://creativecommons.org/ns#"
   xmlns:rdf="http://www.w3.org/1999/02/22-rdf-syntax-ns#"
   xmlns:svg="http://www.w3.org/2000/svg"
   xmlns="http://www.w3.org/2000/svg"
   xmlns:sodipodi="http://sodipodi.sourceforge.net/DTD/sodipodi-0.dtd"
   xmlns:inkscape="http://www.inkscape.org/namespaces/inkscape"
   inkscape:version="1.0 (4035a4fb49, 2020-05-01)"
   sodipodi:docname="Back-To-School-Fixed-No-Text.svg"
   xml:space="preserve"
   enable-background="new 63.5395 -8.9915 2520.7073 1600.0001"
   viewBox="63.5395 -8.9915 2520.7073 1600.0001"
   y="0px"
   x="0px"
   id="Layer_1"
   version="1.1"><metadata
   id="metadata241"><rdf:RDF><cc:Work
       rdf:about=""><dc:format>image/svg+xml</dc:format><dc:type
         rdf:resource="http://purl.org/dc/dcmitype/StillImage" /></cc:Work></rdf:RDF></metadata><defs
   id="defs239">
	
	
	
	
</defs><sodipodi:namedview
   inkscape:current-layer="Layer_1"
   inkscape:window-maximized="1"
   inkscape:window-y="-1"
   inkscape:window-x="-1"
   inkscape:cy="761.33448"
   inkscape:cx="1085.4012"
   inkscape:zoom="0.25593846"
   showgrid="false"
   id="namedview237"
   inkscape:window-height="708"
   inkscape:window-width="1360"
   inkscape:pageshadow="2"
   inkscape:pageopacity="0"
   guidetolerance="10"
   gridtolerance="10"
   objecttolerance="10"
   borderopacity="1"
   bordercolor="#666666"
   pagecolor="#ffffff" />
<rect
   style="fill:#008000"
   x="63.794601"
   y="-8.8716002"
   width="2520.197"
   height="1599.76"
   id="rect2" /><rect
   x="2567.363"
   y="-0.37450001"
   width="12.8823"
   height="75.734901"
   id="rect4" /><g
   id="g14">
		<path
   fill="#a47a50"
   stroke="#a47a50"
   stroke-width="0.0938"
   d="m 1665.7798,1431.7894 c -0.047,-3.4484 -0.015,-9.5643 5.0085,-8.8779 88.4977,-0.1715 176.9956,-0.031 265.5092,-0.063 15.1968,0.3745 30.4874,-0.8579 45.6376,0.6398 0.9359,17.2721 0.3433,34.6066 0.3899,51.9098 0.4993,4.2754 -4.6029,4.7588 -7.6139,5.3361 -86.1576,0.5149 -172.3306,0.063 -258.5037,0.2185 -13.9019,-0.2185 -27.8193,0.468 -41.6899,-0.3744 -3.2766,-0.6398 -8.4879,-0.3903 -8.4879,-4.9773 -0.5461,-14.5883 0.031,-29.2082 -0.2498,-43.8121 z"
   id="path6" />
		<path
   fill="#ffffff"
   stroke="#ffffff"
   stroke-width="0.0938"
   d="m 1674.5175,1480.5786 c 13.8706,0.8424 27.7881,0.156 41.6899,0.3744 86.1731,-0.1559 172.3461,0.2964 258.5037,-0.2184 -0.1406,13.7302 0.1246,27.4916 -0.094,41.2375 -37.2434,-0.7178 -74.5336,-0.094 -111.7925,-0.312 -62.738,0.2028 -125.4758,-0.3745 -188.1826,0.2964 -0.2342,-13.7926 0.047,-27.5852 -0.1247,-41.3779 z"
   id="path8" />
		<path
   fill="#ffffff"
   stroke="#ffffff"
   stroke-width="0.0938"
   d="m 1087.8448,1496.4464 c 29.4889,-0.468 59.0403,-0.078 88.5603,-0.1871 3.2766,-0.2653 6.8962,2.2155 7.0366,5.6949 0.3121,4.7587 0.3121,9.5801 0.078,14.37 -0.2185,3.5419 -3.6198,6.3035 -7.1459,5.7886 -29.1458,-0.031 -58.3069,0.078 -87.4526,-0.078 -3.1516,0.2341 -6.0381,-2.7927 -5.851,-5.8821 -0.1715,-4.7589 -0.1871,-9.5332 0.047,-14.2765 -0.047,-2.6057 2.2469,-4.9618 4.7276,-5.4298 z"
   id="path10" />
		<path
   fill="#ffffff"
   stroke="#ffffff"
   stroke-width="0.0938"
   d="m 1250.1742,1499.5825 c 50.2872,-0.5928 100.6366,-0.078 150.9703,-0.2651 4.2128,-0.6866 8.2382,3.1827 7.458,7.4735 -0.109,5.3048 1.8099,14.5729 -5.8041,15.2279 -50.0374,0.1716 -100.0748,0.031 -150.0967,0.078 -4.1971,0.5459 -7.6765,-3.4016 -7.2552,-7.4269 0.1247,-5.1486 -1.6853,-13.0279 4.7277,-15.0875 z"
   id="path12" />
	</g><g
   id="g232">
		<path
   fill="none"
   d="m 2386.4253,-8.7556 c -0.042,-0.031 -0.084,-0.0592 -0.1299,-0.0845 0.044,0.0263 0.089,0.0517 0.1299,0.0845 z"
   id="path16" />
		<path
   fill="none"
   d="m 2386.6306,-8.5671 c -0.041,-0.049 -0.089,-0.0878 -0.1362,-0.1294 0.048,0.0398 0.095,0.0816 0.1362,0.1294 z"
   id="path18" />
		<path
   fill="none"
   d="m 2382.4209,3.9445 c -0.01,-0.2001 -0.02,-0.4102 -0.02,-0.6103 0,-0.2801 0.01,-0.5503 0.03,-0.8304 0.02,-0.4603 0.08,-0.9106 0.1499,-1.3708 0.02,-0.08 0.03,-0.16 0.04,-0.2401 0.01,-0.02 0.01,-0.04 0.02,-0.0599 -0.02,0.1 -0.03,0.2001 -0.05,0.3 -0.09,0.5403 -0.1499,1.0906 -0.1699,1.6508 -0.01,0.1802 -0.01,0.3702 -0.01,0.5503 0,0.2001 0,0.4003 0.01,0.6104 z"
   id="path20" />
		<path
   fill="none"
   d="m 2382.4209,4.0245 c 0.02,0.17 0.03,0.3501 0.04,0.5201 -0.01,-0.0599 -0.02,-0.1201 -0.02,-0.1802 -0.01,-0.1097 -0.01,-0.2199 -0.02,-0.3399 z"
   id="path22" />
		<path
   fill="none"
   d="m 2382.4609,4.5447 c 0.01,0.04 0.01,0.08 0.01,0.1201 -0.01,-0.02 -0.01,-0.03 -0.01,-0.05 0,-0.02 -0.01,-0.05 0,-0.0701 z"
   id="path24" />
		<path
   fill="none"
   d="m 2382.4707,4.6647 c 0.061,0.5604 0.1401,1.1205 0.2603,1.6708 l -0.01,-0.01 c -0.01,-0.03 -0.01,-0.0699 -0.019,-0.1 -0.03,-0.1601 -0.06,-0.3303 -0.09,-0.4902 -0.04,-0.2002 -0.07,-0.4002 -0.09,-0.6004 -0.02,-0.15 -0.04,-0.2901 -0.05,-0.4401 V 4.6647 Z"
   id="path26" />
		<path
   fill="none"
   d="m 2382.731,6.3356 c 0.05,0.1902 0.09,0.3902 0.1404,0.5903 -0.02,-0.0601 -0.03,-0.1201 -0.05,-0.17 -0.01,-0.04 -0.02,-0.0701 -0.03,-0.1102 -0.02,-0.1001 -0.05,-0.21 -0.06,-0.3101 z"
   id="path28" />
		<path
   fill="none"
   d="m 2382.8713,6.9259 c 0.02,0.0601 0.04,0.1201 0.05,0.19 -0.01,-0.02 -0.02,-0.0299 -0.02,-0.0499 -0.01,-0.05 -0.03,-0.0901 -0.03,-0.1401 z"
   id="path30" />
		<path
   fill="none"
   d="m 2383.217,8.0294 c 0.033,0.0979 0.068,0.1965 0.104,0.2939 -0.037,-0.0978 -0.07,-0.1956 -0.104,-0.2939 z"
   id="path32" />
		<path
   fill="none"
   d="m 2383.321,8.3234 c 0.115,0.307 0.2361,0.6128 0.3704,0.9136 h -0.01 c -0.07,-0.1601 -0.1401,-0.3203 -0.2104,-0.4902 -0.058,-0.14 -0.098,-0.283 -0.1502,-0.4234 z"
   id="path34" />
		<path
   fill="none"
   d="m 2382.9412,7.186 c 0.081,0.2818 0.1772,0.563 0.2759,0.8434 -0.06,-0.1744 -0.1309,-0.346 -0.1855,-0.5231 -0.04,-0.1002 -0.07,-0.2103 -0.09,-0.3203 z"
   id="path36" />
		<path
   fill="none"
   d="m 2383.6914,9.237 c 0.08,0.19 0.1702,0.3801 0.2605,0.5702 -0.02,-0.0299 -0.04,-0.0599 -0.05,-0.09 -0.07,-0.15 -0.1501,-0.3102 -0.2102,-0.4802 z"
   id="path38" />
		<path
   fill="none"
   d="m 2385.6426,12.5385 c -0.1099,-0.1501 -0.23,-0.31 -0.3406,-0.4602 -0.03,-0.04 -0.05,-0.0699 -0.08,-0.1101 -0.07,-0.1202 -0.1499,-0.2301 -0.2295,-0.3503 0.21,0.3104 0.4202,0.6205 0.6502,0.9206 z"
   id="path40" />
		<path
   fill="none"
   d="m 2386.6128,13.7292 c 0.04,0.04 0.07,0.09 0.1001,0.13 -0.04,-0.0499 -0.07,-0.0898 -0.1099,-0.13 -0.1699,-0.1902 -0.3303,-0.3803 -0.4802,-0.5804 0.1602,0.2001 0.3201,0.3902 0.49,0.5804 z"
   id="path42" />
		<path
   fill="none"
   d="m 2386.8228,14.1092 c -0.01,-0.0199 -0.01,-0.0299 -0.02,-0.0499 0,-0.01 0,-0.0299 -0.01,-0.0399 0.01,0.0199 0.01,0.0299 0.02,0.0399 0,0.02 0.01,0.03 0.01,0.0499 z"
   id="path44" />
		<path
   fill="none"
   d="m 2551.9214,145.7419 c 0.01,0.02 0.02,0.03 0.03,0.05 0.01,0.01 0.02,0.01 0.02,0.02 -0.03,-0.05 -0.071,-0.1001 -0.1101,-0.1601 0.03,0.0299 0.05,0.06 0.06,0.0901 z m -0.2503,-0.3103 c 0.01,0.01 0.02,0.02 0.02,0.03 0.04,0.05 0.09,0.1001 0.1304,0.1501 0.01,0.01 0.019,0.02 0.04,0.03 -0.061,-0.0699 -0.12,-0.1399 -0.1904,-0.2101 z m -0.059,-0.0599 c 0.019,0.02 0.04,0.0399 0.06,0.0599 -0.02,-0.0299 -0.04,-0.0599 -0.07,-0.08 0.01,0.01 0.01,0.01 0.01,0.0201 z m -0.2903,-0.3002 c 0.04,0.02 0.07,0.0499 0.1101,0.0898 -0.1501,-0.15 -0.3103,-0.3 -0.4802,-0.4401 0.1299,0.1103 0.25,0.2202 0.3701,0.3503 z m -0.9104,-0.7403 c 0.1602,0.1099 0.3198,0.2301 0.4697,0.3501 0.02,0.01 0.04,0.02 0.06,0.04 0,0 0,0 0.01,0 0,0 0,0 -0.01,-0.01 -0.1701,-0.13 -0.3503,-0.2601 -0.53,-0.3801 z"
   id="path46" />
		<path
   fill="none"
   d="m 2383.0315,29.8268 c -0.1001,-0.3402 -0.1904,-0.6804 -0.2708,-1.0305 0.08,0.3502 0.1707,0.6904 0.2805,1.0305 0.07,0.2301 0.1401,0.4503 0.2197,0.6804 -0.08,-0.2302 -0.1596,-0.4504 -0.2294,-0.6804 z"
   id="path48" />
		<path
   fill="none"
   d="m 2384.1418,32.4981 c 0.24,0.4502 0.51,0.9103 0.7905,1.3506 -0.2903,-0.4403 -0.5605,-0.9004 -0.8008,-1.3506 -0.1099,-0.2201 -0.2197,-0.4403 -0.3201,-0.6603 0.1102,0.22 0.2206,0.4402 0.3304,0.6603 z"
   id="path50" />
		<path
   fill="none"
   d="m 2386.8027,14.9297 c -0.04,0.1201 -0.1099,0.2301 -0.1899,0.3303 -2.7512,3.1114 -4.2017,6.7032 -4.2017,10.3948 0,1.0606 0.1201,2.1111 0.3496,3.1415 -0.2397,-1.0304 -0.3599,-2.081 -0.3599,-3.1415 0,-3.6917 1.4507,-7.2835 4.2021,-10.3948 0.09,-0.1003 0.15,-0.2103 0.1998,-0.3303 z"
   id="path52" />
		<path
   fill="none"
   d="m 2386.813,37.2503 c -0.01,0.01 -0.01,0.02 -0.01,0.03 0,-0.01 0,-0.02 0,-0.02 z"
   id="path54" />
		<path
   fill="none"
   d="m 2386.0176,-8.9532 c 0.032,0.0085 0.061,0.0183 0.092,0.0283 -0.031,-0.0105 -0.061,-0.0203 -0.092,-0.0283 z"
   id="path56" />
		<path
   fill="none"
   d="m 2511.8174,187.1345 c 0.045,0.0188 0.088,0.0376 0.1384,0.0564 0.057,0.0244 0.1172,0.0378 0.1802,0.0491 -0.1099,-0.0265 -0.2149,-0.0639 -0.3186,-0.1055 z"
   id="path58" />
		<path
   fill="none"
   d="m 2522.8674,154.386 c -0.1,0.0599 -0.1997,0.1201 -0.3098,0.1802 v -0.01 c 0.1101,-0.0502 0.2102,-0.1103 0.3098,-0.1702 z"
   id="path60" />
		<path
   fill="none"
   d="m 2517.8428,104.9316 h 2.6492 c -0.294,-1e-4 -2.6492,-1e-4 -2.6492,0 z"
   id="path62" />
		<path
   fill="none"
   d="m 2520.5222,104.9316 h 2.6494 c -0.2942,-1e-4 -2.6494,-1e-4 -2.6494,0 z"
   id="path64" />
		<path
   fill="none"
   d="m 2523.2019,104.9316 h 2.6492 c -0.2947,-1e-4 -2.6492,-1e-4 -2.6492,0 z"
   id="path66" />
		<polygon
   fill="none"
   points="2525.8813,104.9315 2525.8813,104.9316 2528.5608,104.9316 "
   id="polygon68" />
		<rect
   x="2369.5974"
   y="33.424099"
   fill="none"
   width="12.3848"
   height="0.00050000002"
   id="rect70" />
		<polygon
   fill="none"
   points="2514.0574,104.9316 2515.1633,104.9316 2517.8428,104.9316 2515.1633,104.9315 2514.0574,104.9315 "
   id="polygon72" />
		<path
   fill="#fcf2e4"
   d="m 2384.9924,11.6181 c 0.08,0.1202 0.1597,0.2301 0.2295,0.3503 0.03,0.04 0.05,0.0699 0.08,0.1101 0.1106,0.1501 0.2307,0.31 0.3406,0.4602 -0.23,-0.3003 -0.4402,-0.6104 -0.6502,-0.9206 z"
   id="path74" />
		<path
   fill="#f6d39c"
   d="m 2383.321,35.6595 h -83.6191 v -0.0599 h 83.5894 c 0.01,0.0199 0.01,0.0299 0.02,0.0399 0,0.01 0.01,0.01 0.01,0.02 z"
   id="path76" />
		<path
   fill="#f7d7a4"
   d="m 2559.635,694.1723 v 0.01 h -2.321 v 872.1744 H 88.1911 V 15.66 H 2383.321 c -0.02,0.02 -0.03,0.04 -0.04,0.0601 -0.08,0.1201 -0.1602,0.2501 -0.2402,0.3801 -0.01,0 -0.01,0 -0.01,0.01 l -0.01,0.01 c -0.1802,0.2801 -0.3704,0.5604 -0.5403,0.8505 -0.08,0.15 -0.1602,0.3102 -0.24,0.4502 0,0 -0.01,0 -0.01,0.01 0,0.01 -0.01,0.03 -0.02,0.04 -0.1401,0.2601 -0.2798,0.5202 -0.4104,0.7904 -0.09,0.18 -0.1699,0.3601 -0.25,0.5402 -0.01,0.02 -0.01,0.03 -0.019,0.0499 -0.1104,0.2402 -0.2104,0.4903 -0.3108,0.7304 -0.019,0.0499 -0.04,0.1 -0.06,0.1501 0,0.01 0,0.01 0,0.01 -0.05,0.13 -0.1001,0.2601 -0.1401,0.4001 -0.09,0.2501 -0.1699,0.5002 -0.2502,0.7504 0,0.01 -0.01,0.03 -0.01,0.04 -0.06,0.19 -0.1099,0.3702 -0.1597,0.5604 -0.04,0.18 -0.08,0.3601 -0.1201,0.5403 -0.02,0.0999 -0.05,0.2001 -0.07,0.3 0,0.0199 -0.01,0.0399 -0.01,0.0599 -0.04,0.1601 -0.07,0.3102 -0.1001,0.4702 -0.019,0.1302 -0.03,0.2601 -0.05,0.3903 -0.02,0.18 -0.05,0.3601 -0.07,0.5402 -0.02,0.1301 -0.03,0.2402 -0.05,0.3602 0,0.03 -0.01,0.0701 -0.01,0.1001 -0.04,0.4301 -0.05,0.8603 -0.06,1.2905 v 0.1101 c 0,0.3803 0.02,0.7604 0.05,1.1405 0.01,0.09 0,0.1802 0.01,0.2601 v 0.03 c 0.02,0.1501 0.04,0.29 0.06,0.4303 0.02,0.2101 0.05,0.4301 0.08,0.6402 0.021,0.1001 0.021,0.1902 0.04,0.2901 0.03,0.18 0.07,0.3602 0.1104,0.5403 0.06,0.2801 0.1201,0.5602 0.1899,0.8404 0.03,0.1 0.06,0.2102 0.09,0.3201 0.02,0.0701 0.04,0.1501 0.07,0.2301 0.08,0.2701 0.1604,0.5403 0.2605,0.8004 0.03,0.1001 0.07,0.2001 0.1099,0.3001 0.03,0.09 0.06,0.17 0.09,0.2601 0.1003,0.2601 0.2205,0.5202 0.3303,0.7804 0.04,0.0898 0.08,0.18 0.1304,0.2701 0,0.0099 0,0.0099 0,0.0099 0.04,0.09 0.08,0.1701 0.1196,0.2601 0.051,0.1101 0.1106,0.2202 0.1604,0.3302 0.01,0.01 0.01,0.02 0.02,0.04 0.07,0.1401 0.1499,0.2801 0.23,0.4202 0.03,0.0399 0.05,0.09 0.07,0.1401 0.03,0.05 0.06,0.1101 0.09,0.16 0.03,0.05 0.05,0.1002 0.08,0.1402 0.01,0.0199 0.019,0.0299 0.03,0.0499 0.1099,0.1802 0.2202,0.3602 0.3301,0.5402 0.05,0.0901 0.1101,0.1701 0.1702,0.2601 0.02,0.02 0.03,0.05 0.05,0.0701 0.08,0.1301 0.1597,0.2601 0.25,0.3802 0,0.01 0,0.01 0,0.01 h -782.562 v 0.0599 H 272.6487 V 35.599 H 108.1405 V 1546.4066 H 2537.3744 V 193.3838 h 19.9397 v 500.7879 h 2.321 v 6e-4 z"
   id="path78" />
		<rect
   x="2159.905"
   y="35.599602"
   fill="#f6d39c"
   width="139.79691"
   height="0.059900001"
   id="rect80" />
		<rect
   x="1950.2058"
   y="35.599602"
   fill="#f6d39c"
   width="209.6991"
   height="0.059900001"
   id="rect82" />
		<rect
   x="1600.7195"
   y="35.599602"
   fill="#f6d39c"
   width="349.4863"
   height="0.059900001"
   id="rect84" />
		<rect
   x="1181.3206"
   y="37.980701"
   fill="#f5cf94"
   width="139.7964"
   height="0.52020001"
   id="rect86" />
		<rect
   x="901.72748"
   y="37.980701"
   fill="#f5cf94"
   width="279.59299"
   height="0.52020001"
   id="rect88" />
		<rect
   x="761.93109"
   y="37.980701"
   fill="#f5cf94"
   width="139.7964"
   height="0.52020001"
   id="rect90" />
		<rect
   x="272.64859"
   y="37.980701"
   fill="#f5cf94"
   width="489.2825"
   height="0.52020001"
   id="rect92" />
		<rect
   x="108.1405"
   y="129.8943"
   fill="#f6d39c"
   width="0.0601"
   height="69.593002"
   id="rect94" />
		<rect
   x="108.1405"
   y="199.4873"
   fill="#f6d39c"
   width="0.0601"
   height="139.1862"
   id="rect96" />
		<rect
   x="108.1405"
   y="338.67349"
   fill="#f6d39c"
   width="0.0601"
   height="139.17599"
   id="rect98" />
		<rect
   x="108.1405"
   y="477.84961"
   fill="#f6d39c"
   width="0.0601"
   height="139.1761"
   id="rect100" />
		<rect
   x="108.1405"
   y="617.02557"
   fill="#f6d39c"
   width="0.0601"
   height="139.1861"
   id="rect102" />
		<polygon
   fill="#f6d39c"
   points="108.1405,1546.4072 108.1405,756.2118 108.2006,756.2118 108.2006,1546.3573 342.8321,1546.3573 342.8321,1546.4072 "
   id="polygon104" />
		<rect
   x="342.83209"
   y="1546.3573"
   fill="#f6d39c"
   width="209.97971"
   height="0.050099999"
   id="rect106" />
		<rect
   x="552.81183"
   y="1546.3573"
   fill="#f6d39c"
   width="419.96951"
   height="0.050099999"
   id="rect108" />
		<rect
   x="972.78131"
   y="1546.3573"
   fill="#f6d39c"
   width="69.993301"
   height="0.050099999"
   id="rect110" />
		<rect
   x="1042.7747"
   y="1546.3573"
   fill="#f6d39c"
   width="1119.922"
   height="0.050099999"
   id="rect112" />
		<rect
   x="2162.6963"
   y="1546.3573"
   fill="#f6d39c"
   width="209.9801"
   height="0.050099999"
   id="rect114" />
		<rect
   x="2372.6765"
   y="1546.3573"
   fill="#f6d39c"
   width="139.9864"
   height="0.050099999"
   id="rect116" />
		<rect
   x="2534.4631"
   y="1452.7427"
   fill="#f5cf94"
   width="0.52999997"
   height="68.962799"
   id="rect118" />
		<rect
   x="2537.3147"
   y="1452.7427"
   fill="#f6d39c"
   width="0.059599999"
   height="68.962799"
   id="rect120" />
		<rect
   x="2534.4631"
   y="1314.8273"
   fill="#f5cf94"
   width="0.52999997"
   height="137.9155"
   id="rect122" />
		<rect
   x="2537.3147"
   y="1314.8273"
   fill="#f6d39c"
   width="0.059599999"
   height="137.9155"
   id="rect124" />
		<rect
   x="2534.4631"
   y="1245.8645"
   fill="#f5cf94"
   width="0.52999997"
   height="68.962799"
   id="rect126" />
		<rect
   x="2537.3147"
   y="1245.8645"
   fill="#f6d39c"
   width="0.059599999"
   height="68.962799"
   id="rect128" />
		<rect
   x="2534.4631"
   y="1176.9017"
   fill="#f5cf94"
   width="0.52999997"
   height="68.962799"
   id="rect130" />
		<rect
   x="2537.3147"
   y="1176.9017"
   fill="#f6d39c"
   width="0.059599999"
   height="68.962799"
   id="rect132" />
		<rect
   x="2534.9836"
   y="970.02332"
   fill="#f5cf94"
   width="0.0098000001"
   height="206.8783"
   id="rect134" />
		<rect
   x="2537.3147"
   y="970.02332"
   fill="#f6d39c"
   width="0.059599999"
   height="206.8783"
   id="rect136" />
		<rect
   x="2534.9836"
   y="901.06073"
   fill="#f5cf94"
   width="0.0098000001"
   height="68.962799"
   id="rect138" />
		<rect
   x="2537.3147"
   y="901.06073"
   fill="#f6d39c"
   width="0.059599999"
   height="68.962799"
   id="rect140" />
		<rect
   x="2534.9836"
   y="763.13507"
   fill="#f5cf94"
   width="0.0098000001"
   height="137.92551"
   id="rect142" />
		<rect
   x="2537.3147"
   y="763.13507"
   fill="#f6d39c"
   width="0.059599999"
   height="137.92551"
   id="rect144" />
		<rect
   x="2534.9836"
   y="694.18231"
   fill="#f5cf94"
   width="0.0098000001"
   height="68.952698"
   id="rect146" />
		<rect
   x="2537.3147"
   y="694.1723"
   fill="#f6d39c"
   width="0.059599999"
   height="68.962898"
   id="rect148" />
		<path
   fill="#f3c886"
   d="m 2534.9934,694.1723 v 0.01 h -0.01 v 482.7194 h -0.5203 v 344.8038 h 0.5203 v 22.3206 H 110.5217 V 37.9807 h 162.1268 v 0.5202 H 1321.1168 V 37.9807 H 2383.331 c -0.1201,0.18 -0.23,0.3402 -0.3398,0.5202 -0.01,0 -0.01,0.01 -0.01,0.01 -0.1501,0.2401 -0.3103,0.4802 -0.45,0.7203 -0.1401,0.2401 -0.2708,0.4802 -0.4006,0.7303 -0.1299,0.2401 -0.2598,0.4802 -0.3801,0.7203 -0.1201,0.2401 -0.21,0.4802 -0.3198,0.7303 -0.1001,0.2401 -0.2107,0.4802 -0.3005,0.7203 -0.7102,1.891 -1.0703,3.8519 -1.0703,5.8529 0,1.7608 0.28,3.4817 0.8306,5.1624 0.5403,1.6809 1.3604,3.3016 2.4307,4.8324 h -2252.8 V 1524.0366 H 2514.9941 V 193.3846 h 19.9895 v 500.7879 h 0.01 v -2e-4 z"
   id="path150" />
		<polygon
   fill="#f3c886"
   points="2514.9941,1544.0962 2514.9941,1544.0261 2534.9836,1544.0261 2534.9836,1521.7056 2534.4634,1521.7056 2534.4634,1176.9017 2534.9836,1176.9017 2534.9836,694.1823 2534.9934,694.1823 2534.9934,694.1723 2534.9836,694.1723 2534.9836,193.3844 2535.0037,193.3844 2535.0037,1544.0962 "
   id="polygon152" />
		<rect
   x="2534.9836"
   y="193.38451"
   fill="#f5cf94"
   width="0.0098000001"
   height="500.7879"
   id="rect154" />
		<rect
   x="2537.3147"
   y="193.38451"
   fill="#f6d39c"
   width="0.059599999"
   height="500.7879"
   id="rect156" />
		<path
   fill="#e89f84"
   d="m 2568.4458,58.1976 h -21.1292 -2.6792 -2.6794 -5e-4 -2.679 -5e-4 -2.679 -5e-4 -2.6797 -2.679 -5e-4 -2.679 -2.3738 c -0.103,0 -0.2031,0.0127 -0.3057,0.0155 -0.9233,0.0229 -1.8184,0.1516 -2.6794,0.3697 -0.9409,0.2383 -1.8408,0.577 -2.6797,1.0199 -0.9822,0.5188 -1.8801,1.1711 -2.6794,1.9273 -1.1172,1.0567 -2.0298,2.3207 -2.6794,3.732 v 2e-4 c -0.7034,1.5269 -1.106,3.2183 -1.106,5.0053 v 34.664 h 1.106 l 2.6794,1e-4 v -1e-4 c 0,0 2.3552,0 2.6492,1e-4 0.019,0 0.03,0 0.03,0 v -1e-4 c 0,0 2.3552,0 2.6494,1e-4 0.019,0 0.03,0 0.03,0 v -1e-4 c 0,0 2.3545,0 2.6492,1e-4 0.019,0 0.03,0 0.03,0 v -1e-4 l 2.6794,1e-4 h 2.679 2.6794 2.6802 2.6794 2.6794 2.6794 2.6792 33.2583 V 70.2677 c 3e-4,-6.6554 -5.4412,-12.0701 -12.1289,-12.0701 z"
   id="path158" />
		<rect
   x="2514.0537"
   y="187.30161"
   fill="#f3f4f1"
   width="66.521301"
   height="3.7718"
   id="rect160" />
		<rect
   x="2514.0537"
   y="168.8428"
   fill="#f5f6f4"
   width="66.521301"
   height="0.75040001"
   id="rect162" />
		<rect
   x="2514.0537"
   y="178.05721"
   fill="#f5f6f4"
   width="66.521301"
   height="0.78039998"
   id="rect164" />
		<path
   d="m 2582.896,169.7933 c -0.28,-0.1301 -0.5901,-0.2001 -0.9204,-0.2001 h -69.323 c -0.3303,0 -0.6399,0.0699 -0.9204,0.2001 -0.8,0.3502 -1.3506,1.1404 -1.3506,2.0611 v 3.9418 c 0,0.9203 0.5505,1.7108 1.3506,2.0611 v 1.1805 c 0.2805,-0.1201 0.5901,-0.2001 0.9204,-0.2001 h 1.4011 v -0.7804 h 66.5212 v 0.7804 h 1.4006 c 0.3303,0 0.6404,0.08 0.9204,0.2001 v -1.1805 c 0.7903,-0.3503 1.3506,-1.1407 1.3506,-2.0611 v -3.9418 c 10e-5,-0.9207 -0.5602,-1.7109 -1.3505,-2.0611 z m -0.9702,5.9527 h -69.2131 v -3.8418 h 69.2131 z"
   id="path166" />
		<rect
   x="2512.7129"
   y="171.9043"
   fill="#f5f6f4"
   width="69.213097"
   height="3.8418"
   id="rect168" />
		<path
   d="m 2584.2466,117.2583 v -3.9519 c 0,-0.9106 -0.55,-1.7009 -1.3506,-2.0611 V 70.2659 c 0,-7.9339 -6.4832,-14.3869 -14.4468,-14.3869 h -42.26 c -7.9739,0 -14.457,6.4532 -14.457,14.3869 v 40.9895 c -0.7903,0.3502 -1.3506,1.1404 -1.3506,2.051 v 3.9519 c 0,0.9203 0.5603,1.7008 1.3506,2.0611 v 1.1504 c -0.7903,0.3503 -1.3506,1.1405 -1.3506,2.0611 v 3.9418 c 0,0.9204 0.5603,1.7108 1.3506,2.0611 v 1.1604 c -0.7903,0.3503 -1.3506,1.1407 -1.3506,2.0611 v 3.9418 c 0,0.9204 0.5603,1.7108 1.3506,2.0611 v 22.8109 c -0.7903,0.3601 -1.3506,1.1404 -1.3506,2.0609 v 3.952 c 0,0.9103 0.5603,1.7008 1.3506,2.0609 v 1.1505 c 0.2805,-0.1301 0.5901,-0.2001 0.9204,-0.2001 h 1.4011 v -0.7504 h 66.5212 v 0.7504 h 1.4006 c 0.3303,0 0.6404,0.0699 0.9204,0.2001 v -1.1505 c 0.8005,-0.3602 1.3506,-1.1405 1.3506,-2.0609 v -3.952 c 0,-0.9204 -0.55,-1.7109 -1.3506,-2.0609 v -22.8109 c 0.8005,-0.3503 1.3506,-1.1405 1.3506,-2.0611 v -3.9418 c 0,-0.9203 -0.55,-1.7108 -1.3506,-2.0611 v -1.1604 c 0.8005,-0.3503 1.3506,-1.1405 1.3506,-2.0611 v -3.9418 c 0,-0.9204 -0.55,-1.7108 -1.3506,-2.0611 v -1.1504 c 0.8006,-0.3503 1.3507,-1.1407 1.3507,-2.0611 z M 2514.0537,70.266 c 0,-1.7808 0.4099,-3.4817 1.1104,-5.0024 0.6501,-1.4107 1.5608,-2.6814 2.6814,-3.7318 0.8003,-0.7604 1.6904,-1.4109 2.6809,-1.931 0.8306,-0.4403 1.731,-0.7804 2.6714,-1.0205 0.8606,-0.2201 1.761,-0.3402 2.6814,-0.3702 0.1001,0 0.1997,-0.01 0.3101,-0.01 h 42.26 c 6.6833,0 12.1257,5.4126 12.1257,12.0658 v 34.6664 h -54.6958 c 0,0 -0.01,0 -0.03,0 h -2.6516 c 0,0 -0.01,0 -0.03,0 h -2.6416 c 0,0 -0.02,0 -0.03,0 h -6.4429 V 70.266 Z m 0,36.9776 h 66.5212 v 3.8119 h -66.5212 z m 67.8721,59.2781 h -69.2131 v -3.8319 h 69.2131 z m -67.8721,-6.153 v -22.4106 h 66.5212 v 22.4106 z m 67.8721,-24.7216 h -69.2131 v -3.8418 h 69.2131 z m -67.8721,-6.1529 v -0.7604 h 66.5212 v 0.7604 z m 67.8721,-3.0716 h -69.2131 v -3.8416 h 69.2131 z m -67.8721,-6.1528 v -0.7504 h 66.5212 v 0.7504 z m 67.8721,-3.0716 h -69.2131 v -3.8318 h 69.2131 z"
   id="path170" />
		<rect
   x="2514.0537"
   y="107.2436"
   fill="#f5f6f4"
   width="66.521301"
   height="3.8118999"
   id="rect172" />
		<rect
   x="2512.7129"
   y="113.3664"
   fill="#f5f6f4"
   width="69.213097"
   height="3.8318"
   id="rect174" />
		<rect
   x="2514.0537"
   y="119.5194"
   fill="#f5f6f4"
   width="66.521301"
   height="0.75040001"
   id="rect176" />
		<rect
   x="2512.7129"
   y="122.5809"
   fill="#f5f6f4"
   width="69.213097"
   height="3.8415999"
   id="rect178" />
		<rect
   x="2514.0537"
   y="128.7337"
   fill="#f5f6f4"
   width="66.521301"
   height="0.7604"
   id="rect180" />
		<path
   fill="#f5f6f4"
   d="m 2514.0537,137.9581 v 22.4106 h 66.5212 v -22.4106 z m 12.4155,15.8975 c -0.6003,1.0205 -1.3909,1.8609 -2.311,2.4513 -0.7104,0.4602 -1.4905,0.7604 -2.321,0.8803 -0.28,0.05 -0.5701,0.0801 -0.8604,0.0801 -0.5002,0 -0.9907,-0.0701 -1.4607,-0.2001 -0.8406,-0.2201 -1.6208,-0.6304 -2.311,-1.1907 -0.7502,-0.6103 -1.3811,-1.4007 -1.8813,-2.301 -0.1597,-0.3103 -0.3096,-0.6204 -0.4402,-0.9506 -0.4097,-1.0504 -0.6501,-2.2112 -0.6501,-3.4517 0,-1.2306 0.2405,-2.391 0.6501,-3.4415 0.5203,-1.3107 1.321,-2.4411 2.3215,-3.2516 0.6902,-0.5604 1.4705,-0.9705 2.311,-1.1905 0.47,-0.1302 0.9604,-0.2001 1.4607,-0.2001 0.2903,0 0.5803,0.0299 0.8604,0.0698 0.8306,0.1302 1.6106,0.4304 2.321,0.8905 0.9202,0.5903 1.7107,1.4306 2.311,2.4512 0.7905,1.3207 1.2505,2.9313 1.2505,4.6721 0,1.7511 -0.4599,3.362 -1.2505,4.6825 z m 20.8504,3.3516 c -0.8105,0 -1.5811,-0.12 -2.3215,-0.3402 -0.8306,-0.2501 -1.6106,-0.6303 -2.311,-1.1205 -0.24,-0.16 -0.4602,-0.3401 -0.6802,-0.5202 -0.6404,-0.5702 -1.2007,-1.2306 -1.6409,-1.9709 -0.7205,-1.2006 -1.1406,-2.5913 -1.1406,-4.0921 0,-1.5007 0.4202,-2.8913 1.1406,-4.0917 0.5901,-0.9905 1.3806,-1.841 2.321,-2.4912 0.7004,-0.4902 1.4805,-0.8705 2.311,-1.1206 0.7405,-0.2201 1.511,-0.3402 2.3215,-0.3402 1.9504,0 3.7415,0.6904 5.1421,1.8409 0.5901,0.4902 1.1206,1.0606 1.5608,1.7108 0.1401,0.2102 0.2798,0.4303 0.3999,0.6605 0.6304,1.1404 0.9805,2.4411 0.9805,3.8316 0,4.4421 -3.6316,8.0438 -8.0832,8.0438 z m 26.3323,0.0601 c -3.7117,0 -6.7434,-3.6317 -6.7434,-8.0939 0,-0.27 0.02,-0.5502 0.04,-0.8203 0.2803,-3.2614 2.1714,-5.9528 4.7024,-6.9033 0.6301,-0.2301 1.3105,-0.3601 2.001,-0.3601 3.7219,0 6.7429,3.6316 6.7429,8.0836 0,4.4623 -3.021,8.094 -6.7429,8.094 z"
   id="path182" />
		<rect
   x="2512.7129"
   y="162.6899"
   fill="#f5f6f4"
   width="69.213097"
   height="3.8318999"
   id="rect184" />
		<rect
   x="2512.7129"
   y="131.8053"
   fill="#f5f6f4"
   width="69.213097"
   height="3.8418"
   id="rect186" />
		<path
   fill="#b8bdb4"
   d="m 2525.3789,149.2935 v -0.1902 c 0,-0.3 -0.02,-0.6003 -0.05,-0.9004 0.04,0.3203 0.07,0.6404 0.07,0.9705 0,0.8705 -0.1499,1.6909 -0.4202,2.4312 0.2303,-0.7203 0.3802,-1.4908 0.4002,-2.3111 z"
   id="path188" />
		<path
   d="m 2526.4692,144.5013 c -0.6003,-1.0205 -1.3909,-1.8609 -2.311,-2.4512 -0.7104,-0.4602 -1.4905,-0.7604 -2.321,-0.8905 -0.28,-0.0399 -0.5701,-0.0698 -0.8604,-0.0698 -0.5002,0 -0.9907,0.0698 -1.4607,0.2001 -0.8406,0.2201 -1.6208,0.6302 -2.311,1.1905 -1.0005,0.8105 -1.8013,1.9408 -2.3215,3.2516 -0.4097,1.0505 -0.6501,2.211 -0.6501,3.4415 0,1.2406 0.2405,2.4012 0.6501,3.4517 0.1306,0.3302 0.2805,0.6403 0.4402,0.9506 0.5002,0.9003 1.1311,1.6907 1.8813,2.301 0.6902,0.5602 1.4705,0.9706 2.311,1.1907 0.47,0.13 0.9604,0.2001 1.4607,0.2001 0.2903,0 0.5803,-0.03 0.8604,-0.0801 0.8306,-0.1199 1.6106,-0.4201 2.321,-0.8803 0.9202,-0.5904 1.7107,-1.4308 2.311,-2.4513 0.7905,-1.3205 1.2505,-2.9315 1.2505,-4.6823 0,-1.741 -0.4599,-3.3517 -1.2505,-4.6723 z m -1.4904,7.1033 c -0.07,0.2202 -0.1802,0.4202 -0.27,0.6203 -0.05,0.1001 -0.091,0.2101 -0.1404,0.3102 -0.1201,0.2101 -0.2402,0.4001 -0.3701,0.5903 -0.1204,0.1601 -0.24,0.31 -0.3704,0.4603 -0.1099,0.12 -0.2297,0.2401 -0.3499,0.3501 -0.1001,0.0901 -0.21,0.1701 -0.3203,0.2601 -0.09,0.0701 -0.1902,0.1302 -0.2903,0.1902 -0.1,0.0599 -0.1997,0.1201 -0.3098,0.1802 -0.1104,0.0499 -0.2202,0.0999 -0.3403,0.15 -0.1902,0.0701 -0.4001,0.1302 -0.6003,0.1701 -0.2102,0.0399 -0.4202,0.0599 -0.6401,0.0599 -2.4312,0 -4.4121,-2.5812 -4.4121,-5.7727 0,-3.1814 1.981,-5.7726 4.4121,-5.7726 0.6704,0 1.3103,0.2101 1.8809,0.5602 0.1201,0.0701 0.2402,0.1601 0.3601,0.2501 0.1201,0.0901 0.2402,0.2001 0.3599,0.3002 0.1204,0.12 0.2307,0.2401 0.3406,0.3702 0.1196,0.1301 0.2197,0.28 0.3303,0.4202 0.1099,0.16 0.21,0.3201 0.2998,0.4902 0.1001,0.18 0.1902,0.3701 0.28,0.5602 0.1001,0.2402 0.1904,0.4903 0.2705,0.7504 0.1,0.3502 0.1799,0.7204 0.2297,1.1005 0.04,0.3203 0.07,0.6404 0.07,0.9705 -1e-4,0.8702 -0.15,1.6905 -0.4202,2.4309 z"
   id="path190" />
		<path
   fill="#f5f6f4"
   d="m 2525.3789,149.1034 v 0.1902 c -0.02,0.8203 -0.1699,1.5908 -0.4001,2.311 -0.07,0.2202 -0.1802,0.4202 -0.27,0.6203 -0.05,0.1001 -0.091,0.2101 -0.1404,0.3102 -0.1201,0.2101 -0.2402,0.4001 -0.3701,0.5903 -0.1204,0.1601 -0.24,0.31 -0.3704,0.4603 -0.1099,0.12 -0.2297,0.2401 -0.3499,0.3501 -0.1001,0.0901 -0.21,0.1701 -0.3203,0.2601 -0.09,0.0701 -0.1902,0.1302 -0.2903,0.1902 -0.1,0.0599 -0.1997,0.1201 -0.3098,0.1701 v 0.01 c -0.1104,0.0499 -0.2202,0.0999 -0.3403,0.15 -0.1902,0.0701 -0.4001,0.1302 -0.6003,0.1701 -0.2102,0.0399 -0.4202,0.0599 -0.6401,0.0599 -2.4312,0 -4.4121,-2.5812 -4.4121,-5.7727 0,-3.1814 1.981,-5.7726 4.4121,-5.7726 0.6704,0 1.3103,0.2101 1.8809,0.5602 0.1201,0.0701 0.2402,0.1601 0.3601,0.2501 0.1201,0.0901 0.2402,0.2001 0.3599,0.3002 0.1204,0.12 0.2307,0.2401 0.3406,0.3702 0.1196,0.1301 0.2197,0.28 0.3303,0.4202 0.1099,0.16 0.21,0.3201 0.2998,0.4902 0.1001,0.18 0.1902,0.3701 0.28,0.5602 0.1001,0.2402 0.1904,0.4903 0.2705,0.7504 0.1,0.3502 0.1799,0.7204 0.2297,1.1005 0.03,0.3001 0.05,0.6002 0.05,0.9003 z"
   id="path192" />
		<path
   fill="#cacfc6"
   d="m 2542.407,152.1449 c 0.1201,0.2002 0.26,0.3902 0.4104,0.5702 -0.04,-0.05 -0.07,-0.09 -0.1104,-0.14 -0.1101,-0.1401 -0.2102,-0.2801 -0.3,-0.4302 z"
   id="path194" />
		<path
   fill="#cacfc6"
   d="m 2543.3074,153.2554 c -0.06,-0.0601 -0.1201,-0.1101 -0.1702,-0.17 -0.09,-0.0901 -0.1699,-0.1802 -0.25,-0.2801 -0.01,-0.01 -0.02,-0.03 -0.03,-0.04 0.1397,0.1699 0.2896,0.3301 0.45,0.4901 z"
   id="path196" />
		<path
   fill="#cacfc6"
   d="m 2550.9512,144.7213 c 0.1299,0.1102 0.25,0.2201 0.3701,0.3503 -0.1401,-0.1402 -0.29,-0.2701 -0.4407,-0.3903 0.02,0.01 0.04,0.02 0.06,0.04 0,0 0,0 0.01,0 z"
   id="path198" />
		<path
   fill="#cacfc6"
   d="m 2551.4314,145.1615 c 0.05,0.05 0.1001,0.1102 0.1401,0.1603 -0.08,-0.0801 -0.1602,-0.1701 -0.2502,-0.2501 0.04,0.0199 0.07,0.0499 0.1101,0.0898 z"
   id="path200" />
		<path
   fill="#cacfc6"
   d="m 2551.9214,145.7419 c -0.03,-0.05 -0.07,-0.09 -0.1,-0.1301 0.01,0.01 0.019,0.02 0.04,0.03 v 0.01 c 0.03,0.0299 0.05,0.06 0.06,0.0901 z"
   id="path202" />
		<path
   d="m 2554.4224,145.3317 c -0.1201,-0.2302 -0.2598,-0.4503 -0.3999,-0.6605 -0.4402,-0.6502 -0.9707,-1.2206 -1.5608,-1.7108 -1.4006,-1.1505 -3.1917,-1.8409 -5.1421,-1.8409 -0.8105,0 -1.5811,0.1201 -2.3215,0.3402 -0.8306,0.2501 -1.6106,0.6304 -2.311,1.1206 -0.9404,0.6502 -1.731,1.5007 -2.321,2.4912 -0.7205,1.2006 -1.1406,2.591 -1.1406,4.0917 0,1.5007 0.4202,2.8915 1.1406,4.0921 0.4402,0.7404 1.0005,1.4007 1.6409,1.9709 0.22,0.1802 0.4402,0.3603 0.6802,0.5202 0.7004,0.4902 1.4805,0.8704 2.311,1.1205 0.7405,0.2202 1.511,0.3402 2.3215,0.3402 4.4517,0 8.0833,-3.6017 8.0833,-8.0438 -2e-4,-1.3905 -0.3503,-2.6912 -0.9806,-3.8316 z m -3.0313,7.8836 c -1.0405,1.0405 -2.481,1.6809 -4.0715,1.6809 -0.3503,0 -0.6909,-0.04 -1.0308,-0.1001 -0.5903,-0.1001 -1.1506,-0.3002 -1.6709,-0.5704 -0.08,-0.05 -0.1699,-0.1001 -0.25,-0.15 -0.05,-0.03 -0.1001,-0.05 -0.1401,-0.0801 -0.1702,-0.1101 -0.3401,-0.2401 -0.5002,-0.3702 -0.1003,-0.08 -0.2,-0.1701 -0.3,-0.2601 -0.04,-0.0299 -0.07,-0.0599 -0.1001,-0.09 l -0.02,-0.02 c -0.06,-0.0601 -0.1201,-0.1101 -0.1702,-0.17 -0.09,-0.0901 -0.1699,-0.1802 -0.25,-0.2801 -0.01,-0.01 -0.02,-0.03 -0.03,-0.04 -0.01,-0.02 -0.03,-0.03 -0.04,-0.05 -0.04,-0.05 -0.07,-0.09 -0.1104,-0.14 -0.1101,-0.1402 -0.2102,-0.2801 -0.3,-0.4303 -0.3503,-0.5702 -0.6106,-1.1907 -0.7405,-1.8709 -0.07,-0.3603 -0.1101,-0.7303 -0.1101,-1.1106 0,-1.5806 0.6504,-3.0113 1.6909,-4.0518 1.0405,-1.0404 2.481,-1.6809 4.0723,-1.6809 0.3496,0 0.6902,0.04 1.02,0.1001 0.2002,0.03 0.3901,0.09 0.5803,0.15 0.01,0 0.01,0 0.02,0.01 0.1802,0.04 0.3599,0.1001 0.5305,0.1802 0.1899,0.0699 0.3696,0.1401 0.5403,0.2301 0.09,0.05 0.1699,0.1001 0.2598,0.1501 0.04,0.03 0.09,0.05 0.1404,0.0801 0.1797,0.12 0.3599,0.2501 0.53,0.3801 v 0.01 c 0,0 0,0 0.01,0 0.1699,0.1401 0.3301,0.2901 0.4802,0.4401 0.05,0.05 0.1001,0.1102 0.1401,0.1603 l 0.01,0.01 c 0.01,0.01 0.01,0.01 0.02,0.0199 0.01,0.01 0.01,0.01 0.01,0.02 0.019,0.02 0.04,0.0399 0.06,0.0599 0.01,0.01 0.02,0.02 0.02,0.03 0.06,0.0601 0.1201,0.1202 0.1704,0.1802 v 0.01 c 0.03,0.0299 0.05,0.0599 0.06,0.09 0.01,0.02 0.02,0.03 0.03,0.05 0.01,0.01 0.02,0.01 0.02,0.02 0.01,0 0.01,0 0.01,0.01 l 0.01,0.01 v 0.01 c 0.09,0.1099 0.1699,0.2201 0.2397,0.34 0.3503,0.5704 0.6003,1.1907 0.7305,1.861 0.08,0.3701 0.1201,0.7404 0.1201,1.1204 -2e-4,1.581 -0.6503,3.0116 -1.6911,4.0521 z"
   id="path204" />
		<path
   fill="#f5f6f4"
   d="m 2553.082,149.1634 c 0,1.5809 -0.6501,3.0114 -1.6909,4.0519 -1.0405,1.0405 -2.481,1.6809 -4.0715,1.6809 -0.3503,0 -0.6909,-0.04 -1.0308,-0.1001 -0.5903,-0.1001 -1.1506,-0.3002 -1.6709,-0.5704 -0.08,-0.05 -0.1699,-0.1001 -0.25,-0.15 -0.05,-0.03 -0.1001,-0.05 -0.1401,-0.0801 -0.1702,-0.1101 -0.3401,-0.2401 -0.5002,-0.3702 -0.1003,-0.08 -0.2,-0.1701 -0.3,-0.2601 -0.04,-0.0299 -0.07,-0.0599 -0.1001,-0.09 l -0.02,-0.02 c -0.1604,-0.16 -0.3103,-0.3203 -0.45,-0.4902 -0.01,-0.02 -0.03,-0.03 -0.04,-0.05 -0.1504,-0.18 -0.2903,-0.3701 -0.4104,-0.5702 -0.3503,-0.5702 -0.6106,-1.1907 -0.7405,-1.8709 -0.07,-0.3603 -0.1101,-0.7303 -0.1101,-1.1106 0,-1.5806 0.6504,-3.0113 1.6909,-4.0518 1.0405,-1.0404 2.481,-1.6809 4.0723,-1.6809 0.3496,0 0.6902,0.04 1.02,0.1001 0.1904,0.04 0.3901,0.09 0.5803,0.15 0.01,0 0.01,0 0.02,0.01 0.1802,0.04 0.3599,0.1001 0.5305,0.1802 0.1899,0.0699 0.3696,0.1401 0.5403,0.2301 0.09,0.05 0.1699,0.1001 0.2598,0.1501 0.04,0.03 0.09,0.05 0.1404,0.0801 0.1602,0.1099 0.3198,0.2301 0.4697,0.3501 0.1506,0.1202 0.3005,0.2501 0.4407,0.3903 0.09,0.08 0.1702,0.17 0.2502,0.2501 l 0.01,0.01 c 0.01,0.01 0.01,0.01 0.02,0.0199 0.01,0.01 0.01,0.01 0.01,0.02 0.019,0.02 0.04,0.0399 0.06,0.0599 0.01,0.01 0.02,0.02 0.02,0.03 0.04,0.05 0.09,0.1001 0.1304,0.1501 0.03,0.04 0.07,0.08 0.1,0.1301 0.01,0.02 0.02,0.03 0.03,0.05 0.01,0.01 0.02,0.01 0.02,0.02 0.01,0 0.01,0 0.01,0.01 0,0 0.01,0 0.01,0.01 v 0.01 c 0.09,0.1099 0.1699,0.2201 0.2397,0.34 0.3503,0.5704 0.6003,1.1907 0.7305,1.861 0.08,0.3702 0.1198,0.7405 0.1198,1.1206 z"
   id="path206" />
		<path
   fill="#bbc0b7"
   d="m 2569.4097,147.7428 v 0.01 c 0,0.01 0,0.01 -0.01,0.02 0,-0.01 0,-0.02 0.01,-0.03 z"
   id="path208" />
		<path
   d="m 2573.6519,141.0897 c -0.6904,0 -1.3708,0.13 -2.001,0.3601 -2.531,0.9506 -4.4221,3.6418 -4.7024,6.9033 -0.02,0.2701 -0.04,0.5503 -0.04,0.8203 0,4.4622 3.0317,8.0939 6.7434,8.0939 3.7219,0 6.7429,-3.6317 6.7429,-8.0939 0,-4.4521 -3.021,-8.0837 -6.7429,-8.0837 z m 0,13.8564 c -0.4304,0 -0.8408,-0.08 -1.241,-0.2301 -0.1099,-0.05 -0.23,-0.1001 -0.3398,-0.15 -0.1001,-0.0601 -0.2102,-0.1202 -0.3103,-0.1802 -0.1001,-0.06 -0.1899,-0.1201 -0.29,-0.1902 -0.1101,-0.09 -0.2102,-0.17 -0.3201,-0.2701 -0.1201,-0.11 -0.2302,-0.2201 -0.3503,-0.3501 -0.1299,-0.1402 -0.25,-0.3002 -0.3599,-0.4603 -0.1404,-0.1802 -0.2605,-0.3802 -0.3704,-0.5903 h -0.01 c -0.1499,-0.2901 -0.2898,-0.6004 -0.4099,-0.9303 -0.05,-0.1502 -0.1001,-0.3103 -0.1401,-0.4703 -0.01,-0.0299 -0.01,-0.0499 -0.02,-0.08 -0.01,-0.04 -0.02,-0.0901 -0.03,-0.1302 -0.01,-0.0199 -0.01,-0.0399 -0.02,-0.0599 -0.03,-0.1301 -0.06,-0.27 -0.091,-0.4102 0,-0.01 0,-0.02 0,-0.02 -0.03,-0.19 -0.06,-0.3701 -0.07,-0.5602 -0.01,-0.0599 -0.02,-0.1301 -0.02,-0.1902 -0.01,-0.17 -0.02,-0.33 -0.02,-0.5002 0,-0.3201 0.02,-0.6402 0.06,-0.9505 0.02,-0.09 0.04,-0.19 0.06,-0.2801 0.02,-0.0599 0.03,-0.1199 0.04,-0.17 0.01,-0.01 0.01,-0.01 0.01,-0.02 v -0.01 c 0,-0.02 0.01,-0.03 0.01,-0.05 0,-0.01 0,-0.01 0,-0.02 0.04,-0.19 0.06,-0.3801 0.1099,-0.5502 0.08,-0.2701 0.1699,-0.5102 0.2798,-0.7604 v -0.01 c 0.08,-0.1902 0.1707,-0.3802 0.2708,-0.5502 0.1,-0.1701 0.1997,-0.3403 0.3096,-0.4902 0.1003,-0.1502 0.2102,-0.3002 0.3303,-0.4303 0.1001,-0.1301 0.2205,-0.2501 0.3401,-0.3602 0.1104,-0.1102 0.2305,-0.2201 0.3604,-0.3103 0.1101,-0.09 0.24,-0.18 0.3601,-0.2501 0.5701,-0.3502 1.2009,-0.5602 1.8711,-0.5602 2.4412,0 4.4219,2.5912 4.4219,5.7726 -5e-4,3.1917 -1.9812,5.7729 -4.4223,5.7729 z"
   id="path210" />
		<path
   fill="#f5f6f4"
   d="m 2578.0737,149.1734 c 0,3.1916 -1.9807,5.7727 -4.4219,5.7727 -0.4304,0 -0.8408,-0.08 -1.241,-0.2301 -0.1099,-0.05 -0.23,-0.1001 -0.3398,-0.15 -0.1001,-0.0601 -0.2102,-0.1202 -0.3103,-0.1802 -0.1001,-0.06 -0.1899,-0.1201 -0.29,-0.1902 -0.1101,-0.09 -0.2102,-0.17 -0.3201,-0.2701 -0.1201,-0.11 -0.2302,-0.2201 -0.3503,-0.3501 -0.1299,-0.1402 -0.25,-0.3002 -0.3599,-0.4603 -0.1404,-0.1802 -0.2605,-0.3802 -0.3704,-0.5903 h -0.01 c -0.1499,-0.2901 -0.2898,-0.6004 -0.4099,-0.9303 -0.05,-0.1502 -0.1001,-0.3103 -0.1401,-0.4703 -0.01,-0.0299 -0.01,-0.0499 -0.02,-0.08 -0.01,-0.04 -0.02,-0.0801 -0.03,-0.1302 -0.01,-0.0199 -0.01,-0.0399 -0.02,-0.0599 -0.03,-0.1301 -0.06,-0.27 -0.091,-0.4102 0,-0.01 0,-0.02 0,-0.02 -0.03,-0.19 -0.06,-0.3701 -0.07,-0.5602 -0.01,-0.0599 -0.02,-0.1301 -0.02,-0.1902 -0.01,-0.17 -0.02,-0.33 -0.02,-0.5002 0,-0.3201 0.02,-0.6402 0.06,-0.9505 0.02,-0.09 0.04,-0.19 0.06,-0.2801 0.02,-0.0599 0.03,-0.1199 0.04,-0.17 0.01,-0.01 0.01,-0.01 0.01,-0.02 v -0.01 c 0,-0.02 0.01,-0.03 0.01,-0.05 0,-0.01 0,-0.01 0,-0.02 0.04,-0.19 0.06,-0.3801 0.1099,-0.5502 0.08,-0.2701 0.1699,-0.5102 0.2798,-0.7604 v -0.01 c 0.08,-0.1902 0.1707,-0.3702 0.2708,-0.5502 0.1,-0.1701 0.1997,-0.3403 0.3096,-0.4902 0.1003,-0.1502 0.2102,-0.2901 0.3303,-0.4303 0.1001,-0.1301 0.2205,-0.2501 0.3401,-0.3602 0.1104,-0.1102 0.2305,-0.2201 0.3604,-0.3103 0.1101,-0.09 0.24,-0.18 0.3601,-0.2501 0.5701,-0.3502 1.2009,-0.5602 1.8711,-0.5602 2.4408,2e-4 4.4215,2.5914 4.4215,5.7728 z"
   id="path212" />
		<polygon
   fill="#f6d39c"
   points="108.2006,35.6595 108.2006,129.8943 108.1405,129.8943 108.1405,35.5995 272.6487,35.5995 272.6487,35.6595 "
   id="polygon214" />
		<rect
   x="2534.9836"
   y="1521.7056"
   fill="#f5cf94"
   width="0.0098000001"
   height="22.3207"
   id="rect216" />
		<polygon
   fill="#f6d39c"
   points="2512.6628,1546.4072 2512.6628,1546.3573 2537.3147,1546.3573 2537.3147,1521.7056 2537.3743,1521.7056 2537.3743,1546.4072 "
   id="polygon218" />
		<path
   d="m 2582.896,179.0377 c -0.28,-0.1201 -0.5901,-0.2001 -0.9204,-0.2001 h -69.323 c -0.3303,0 -0.6399,0.08 -0.9204,0.2001 -0.8,0.3602 -1.3506,1.1404 -1.3506,2.0611 v 3.9519 c 0,0.9103 0.5505,1.7008 1.3506,2.0611 v 5.1223 c 0,0.5604 0.4001,1.0205 0.9307,1.1306 v 500.8078 h 2.3313 V 193.3846 h 19.9895 v 500.7879 h 2.3311 V 193.3846 h 19.9993 v 500.7879 h 2.321 V 193.3846 h 20.0093 v 500.7879 h 2.3215 v -500.808 c 0.53,-0.1102 0.9302,-0.5704 0.9302,-1.1306 v -5.1223 c 0.7903,-0.3603 1.3506,-1.1407 1.3506,-2.0611 v -3.9519 c -1e-4,-0.9205 -0.5604,-1.7108 -1.3507,-2.0609 z m -70.9434,8.1538 c -0.05,-0.0199 -0.09,-0.0399 -0.1404,-0.0599 0.06,0.02 0.1101,0.04 0.1604,0.0599 -0.01,0 -0.01,0 -0.02,0 z m 68.6224,3.8819 h -66.5212 v -3.7618 h 66.5212 z m 1.3508,-6.083 h -69.2131 v -3.8318 h 69.2131 z"
   id="path220" />
		<rect
   x="2512.7129"
   y="181.15871"
   fill="#f3f4f1"
   width="69.213097"
   height="3.8318"
   id="rect222" />
		<path
   d="m 2579.6443,694.1823 v 894.5049 H 65.8704 V -6.6706 H 2383.321 c -2.1406,3.0714 -3.2612,6.4931 -3.2612,10.0048 0,3.5116 1.1206,6.9233 3.2715,9.9947 H 85.8699 V 1568.6778 H 2559.635 V 694.1823 h -2.321 v 872.1744 H 88.1911 V 15.66 H 2383.321 c -0.02,0.02 -0.03,0.04 -0.04,0.0601 -0.08,0.1201 -0.1602,0.2501 -0.2402,0.3801 -0.01,0 -0.01,0 -0.01,0.01 l -0.01,0.01 c -0.1802,0.2801 -0.3704,0.5604 -0.5403,0.8505 -0.08,0.15 -0.1602,0.3102 -0.24,0.4502 0,0 -0.01,0 -0.01,0.01 0,0.01 -0.01,0.03 -0.02,0.04 -0.1401,0.2601 -0.2798,0.5202 -0.4104,0.7904 -0.09,0.18 -0.1699,0.3601 -0.25,0.5402 -0.01,0.02 -0.01,0.03 -0.019,0.0499 -0.1104,0.2402 -0.2104,0.4903 -0.3108,0.7304 -0.019,0.0499 -0.04,0.1 -0.06,0.1501 0,0.01 0,0.01 0,0.01 -0.05,0.13 -0.1001,0.2601 -0.1401,0.4001 -0.09,0.2501 -0.1699,0.5002 -0.2502,0.7504 0,0.01 -0.01,0.03 -0.01,0.04 -0.06,0.19 -0.1099,0.3702 -0.1597,0.5604 -0.04,0.18 -0.08,0.3601 -0.1201,0.5403 -0.02,0.0999 -0.05,0.2001 -0.07,0.3 0,0.0199 -0.01,0.0399 -0.01,0.0599 -0.04,0.1601 -0.07,0.3102 -0.1001,0.4702 -0.019,0.1302 -0.03,0.2601 -0.05,0.3903 -0.02,0.18 -0.05,0.3601 -0.07,0.5402 -0.02,0.1301 -0.03,0.2402 -0.05,0.3602 0,0.03 -0.01,0.0701 -0.01,0.1001 -0.04,0.4301 -0.05,0.8603 -0.06,1.2905 v 0.1101 c 0,0.3803 0.02,0.7604 0.05,1.1405 0.01,0.09 0,0.1802 0.01,0.2601 v 0.03 c 0.02,0.1501 0.04,0.29 0.06,0.4303 0.02,0.2101 0.05,0.4301 0.08,0.6402 0.021,0.1001 0.021,0.1902 0.04,0.2901 0.03,0.18 0.07,0.3602 0.1104,0.5403 0.06,0.2801 0.1201,0.5602 0.1899,0.8404 0.03,0.1 0.06,0.2102 0.09,0.3201 0.02,0.0701 0.04,0.1501 0.07,0.2301 0.08,0.2701 0.1604,0.5403 0.2605,0.8004 0.03,0.1001 0.07,0.2001 0.1099,0.3001 0.03,0.09 0.06,0.17 0.09,0.2601 0.1003,0.2601 0.2205,0.5202 0.3303,0.7804 0.04,0.0898 0.08,0.18 0.1304,0.2701 0,0.0099 0,0.0099 0,0.0099 0.04,0.09 0.08,0.1701 0.1196,0.2601 0.051,0.1101 0.1106,0.2202 0.1604,0.3302 0.01,0.01 0.01,0.02 0.02,0.04 0.07,0.1401 0.1499,0.2801 0.23,0.4202 0.03,0.0399 0.05,0.09 0.07,0.1401 0.03,0.05 0.06,0.1101 0.09,0.16 0.03,0.05 0.05,0.1002 0.08,0.1402 0.01,0.0199 0.019,0.0299 0.03,0.0499 0.1099,0.1802 0.2202,0.3602 0.3301,0.5402 0.05,0.0901 0.1101,0.1701 0.1702,0.2601 0.02,0.02 0.03,0.05 0.05,0.0701 0.08,0.1301 0.1597,0.2601 0.25,0.3802 0,0.01 0,0.01 0,0.01 0.01,0.0199 0.02,0.0299 0.03,0.0399 0,0.01 0.01,0.01 0.01,0.02 H 108.1906 v 1510.6978 h 2429.124 V 694.1823 h -2.3311 v 849.8438 H 110.5217 V 37.9807 h 2272.8096 c -0.1201,0.18 -0.23,0.3402 -0.3398,0.5202 -0.01,0 -0.01,0.01 -0.01,0.01 -0.1501,0.2401 -0.3103,0.4802 -0.45,0.7203 -0.1401,0.2401 -0.2708,0.4802 -0.4006,0.7303 -0.1299,0.2401 -0.2598,0.4802 -0.3801,0.7203 -0.1201,0.2401 -0.21,0.4802 -0.3198,0.7303 -0.1001,0.2401 -0.2107,0.4802 -0.3005,0.7203 -0.7102,1.891 -1.0703,3.8519 -1.0703,5.8529 0,1.7608 0.28,3.4817 0.8306,5.1624 0.5403,1.6809 1.3604,3.3016 2.4307,4.8324 h -2252.8 V 1524.0366 H 2514.9941 V 694.1824 h -2.3313 v 827.5233 H 132.8422 V 60.3112 h 2252.8799 c 0,0 0,0 0.01,0 0.06,0 0.1099,-0.0099 0.1699,-0.0199 0.04,0 0.08,-0.01 0.1204,-0.02 l 0.04,-0.01 102.5286,-26.5226 c 0.01,0 0.03,0 0.05,-0.01 l 26.843,-6.9432 c 0.5203,-0.1402 0.8801,-0.6004 0.8801,-1.1306 0,-0.5302 -0.3599,-0.9905 -0.8801,-1.1204 l -14.2568,-3.6919 -12.5862,-3.2515 c -0.01,0 -0.01,0 -0.01,0 L 2386.0227,-8.9616 h -0.03 c -0.021,0 -0.03,-0.01 -0.04,-0.01 h -0.01 c -0.01,0 -0.01,0 -0.02,0 -0.03,0 -0.06,-0.0099 -0.09,-0.0099 h -0.04 c -0.02,-0.01 -0.05,-0.01 -0.07,-0.01 H 63.5395 V 1591.0086 H 2581.9658 V 694.1823 Z m -90.1326,-673.9701 21.03,5.4425 v 0.01 l -1.8711,0.4802 -1.8704,0.4802 -1.8711,0.4902 -1.8711,0.4803 -1.8606,0.4802 -1.8711,0.4902 -1.8708,0.4802 -1.8706,0.4803 -1.8711,0.4902 -1.8708,0.4802 -0.4802,0.13 -1.3909,0.3603 -0.4602,0.12 z m -103.3489,-26.7327 101.0081,26.1323 v 12.0958 l -3.0615,0.7904 -10.2949,2.6612 -10.3054,2.6613 -10.3047,2.6713 -10.3047,2.6612 -10.3052,2.6713 -10.3047,2.6613 -10.3052,2.6612 -10.3047,2.6713 -10.3047,2.6613 -5.2124,1.3506 c -0.3704,-0.4403 -0.7102,-0.8904 -1.0205,-1.3506 -0.1499,-0.2201 -0.2903,-0.4301 -0.4207,-0.6503 -0.1,-0.1701 -0.1997,-0.3302 -0.2896,-0.5002 -0.091,-0.1401 -0.1707,-0.29 -0.2405,-0.4403 -0.1997,-0.3501 -0.3704,-0.7103 -0.53,-1.0704 -0.09,-0.2201 -0.1904,-0.4403 -0.27,-0.6603 -0.1707,-0.4401 -0.3103,-0.8803 -0.4402,-1.3306 -0.06,-0.2301 -0.1204,-0.4503 -0.1702,-0.6804 -0.2002,-0.8703 -0.3203,-1.7608 -0.3501,-2.6612 -0.01,-0.1701 -0.03,-0.3303 -0.03,-0.5002 0,-0.5303 0.05,-1.0606 0.1099,-1.5809 0.021,-0.17 0.04,-0.3502 0.07,-0.5202 0,-0.02 0.01,-0.0399 0.01,-0.0599 v -0.01 c 0.04,-0.2201 0.08,-0.4503 0.1201,-0.6703 0.09,-0.4502 0.2004,-0.8903 0.3401,-1.3306 0.07,-0.2201 0.1401,-0.4403 0.2202,-0.6603 0.3201,-0.9103 0.7402,-1.8008 1.2405,-2.6612 0.5403,-0.9204 1.1709,-1.811 1.9011,-2.6713 0.05,-0.0499 0.08,-0.1 0.1301,-0.1501 0.02,-0.03 0.04,-0.0601 0.06,-0.08 h 0.01 v -0.01 c 0.02,-0.0399 0.04,-0.0699 0.07,-0.1101 0.04,-0.05 0.08,-0.1001 0.1099,-0.1701 0,0 0,-0.0099 0,-0.0199 0.01,-0.01 0.01,-0.01 0.01,-0.02 l 0.01,-0.01 c 0,-0.01 0,-0.01 0,-0.02 0.01,-0.03 0.01,-0.0601 0.03,-0.0901 0.01,-0.0499 0.02,-0.0999 0.02,-0.15 0.01,-0.04 0.02,-0.0701 0.02,-0.1101 v -0.13 c 0,-0.01 0,-0.02 -0.01,-0.03 0,-0.0701 -0.01,-0.1501 -0.03,-0.2201 -0.01,-0.02 -0.02,-0.04 -0.02,-0.0701 -0.01,-0.01 -0.01,-0.03 -0.02,-0.04 v -0.01 c -0.01,-0.02 -0.02,-0.0399 -0.02,-0.0499 -0.04,-0.09 -0.09,-0.1802 -0.1602,-0.2501 -0.01,-0.01 -0.01,-0.02 -0.02,-0.03 -0.1201,-0.1301 -0.2205,-0.27 -0.3303,-0.4002 -0.1299,-0.16 -0.27,-0.3201 -0.4001,-0.4902 -0.3398,-0.4301 -0.6506,-0.8703 -0.9402,-1.3105 -0.2903,-0.4403 -0.5605,-0.9004 -0.8008,-1.3506 -0.1099,-0.2201 -0.2197,-0.4403 -0.3201,-0.6603 -0.21,-0.4403 -0.3901,-0.8804 -0.5505,-1.3306 -0.08,-0.2301 -0.1597,-0.4503 -0.2295,-0.6804 -0.021,-0.0699 -0.04,-0.1501 -0.061,-0.2301 -0.01,-0.03 -0.019,-0.05 -0.019,-0.08 -0.07,-0.2401 -0.1306,-0.4802 -0.1907,-0.7204 -0.2397,-1.0304 -0.3599,-2.081 -0.3599,-3.1415 0,-3.6917 1.4507,-7.2835 4.2021,-10.3948 0.09,-0.1001 0.1499,-0.2102 0.1997,-0.3303 0.01,-0.01 0.01,-0.02 0.01,-0.03 0.01,-0.03 0.02,-0.05 0.03,-0.08 0.01,-0.0699 0.02,-0.1301 0.03,-0.1902 0,-0.02 0.01,-0.0499 0.01,-0.0699 v -0.1301 c 0,-0.03 -0.01,-0.0601 -0.01,-0.0801 -0.01,-0.0599 -0.02,-0.12 -0.03,-0.17 -0.01,-0.02 -0.02,-0.05 -0.02,-0.0701 -0.01,-0.0199 -0.01,-0.0299 -0.02,-0.0499 0,-0.01 0,-0.0299 -0.01,-0.0399 -0.03,-0.0601 -0.06,-0.1102 -0.08,-0.1603 -0.04,-0.0499 -0.07,-0.0898 -0.1099,-0.13 -0.3303,-0.3803 -0.6501,-0.7604 -0.9404,-1.1606 -0.01,-0.01 -0.02,-0.02 -0.03,-0.03 -0.1201,-0.1501 -0.2197,-0.3 -0.3303,-0.4602 -0.03,-0.04 -0.05,-0.0699 -0.08,-0.1101 -0.08,-0.1202 -0.1597,-0.2401 -0.2397,-0.3503 -0.03,-0.0499 -0.06,-0.0999 -0.09,-0.15 -0.1707,-0.2601 -0.3303,-0.5202 -0.4802,-0.7904 -0.06,-0.1 -0.1204,-0.2001 -0.1702,-0.3102 -0.07,-0.14 -0.1401,-0.2701 -0.21,-0.4001 -0.03,-0.05 -0.05,-0.1102 -0.08,-0.1601 -0.02,-0.0299 -0.04,-0.0599 -0.05,-0.09 -0.05,-0.1001 -0.09,-0.2101 -0.1404,-0.3102 -0.01,-0.01 -0.01,-0.02 -0.01,-0.03 -0.01,-0.01 -0.01,-0.03 -0.02,-0.0399 -0.02,-0.03 -0.04,-0.0599 -0.05,-0.1 -0.07,-0.1601 -0.1499,-0.3203 -0.2104,-0.4902 -0.03,-0.0701 -0.06,-0.1402 -0.08,-0.2102 -0.03,-0.0699 -0.05,-0.1401 -0.071,-0.2101 -0.02,-0.03 -0.03,-0.0699 -0.04,-0.1101 -0.04,-0.0801 -0.07,-0.1601 -0.08,-0.2401 -0.01,-0.01 -0.02,-0.03 -0.02,-0.05 -0.01,-0.03 -0.03,-0.05 -0.03,-0.0801 -0.01,-0.0299 -0.02,-0.0499 -0.03,-0.0798 -0.02,-0.04 -0.03,-0.0801 -0.05,-0.1302 -0.01,-0.04 -0.02,-0.08 -0.04,-0.13 -0.04,-0.1001 -0.07,-0.2102 -0.09,-0.3203 -0.01,-0.02 -0.02,-0.05 -0.02,-0.0701 -0.01,-0.02 -0.02,-0.0299 -0.02,-0.0499 -0.01,-0.0499 -0.03,-0.09 -0.03,-0.1401 -0.02,-0.0601 -0.03,-0.1201 -0.05,-0.17 -0.01,-0.04 -0.02,-0.0701 -0.03,-0.1102 -0.01,-0.05 -0.02,-0.1 -0.03,-0.15 -0.01,-0.04 -0.019,-0.0701 -0.03,-0.1102 0,-0.02 0,-0.04 -0.01,-0.0599 -0.01,-0.03 -0.01,-0.0699 -0.019,-0.1 -0.03,-0.1601 -0.06,-0.3303 -0.09,-0.4902 -0.02,-0.0801 -0.03,-0.1501 -0.03,-0.2301 -0.03,-0.1202 -0.05,-0.2501 -0.06,-0.3703 -0.02,-0.15 -0.04,-0.2901 -0.05,-0.4401 v -0.03 c -0.01,-0.02 -0.01,-0.03 -0.01,-0.05 V 4.5648 c 0,-0.01 0,-0.01 0,-0.02 0,-0.0299 0,-0.0599 -0.01,-0.09 -0.01,-0.04 -0.01,-0.0601 -0.01,-0.0901 -0.01,-0.11 -0.01,-0.2201 -0.02,-0.34 V 3.9445 c -0.01,-0.2001 -0.02,-0.4102 -0.02,-0.6103 0,-0.0599 0,-0.1301 0.01,-0.2002 0,-0.0699 0,-0.14 0.01,-0.2101 v -0.14 c 0,-0.09 0,-0.1902 0.01,-0.28 0.01,-0.1402 0.02,-0.3001 0.04,-0.4403 0,-0.0399 0,-0.08 0.01,-0.1101 0.01,-0.0801 0.01,-0.1601 0.02,-0.2501 0.02,-0.19 0.05,-0.3802 0.08,-0.5704 h 0.01 c 0.01,-0.08 0.02,-0.16 0.03,-0.2401 0.01,-0.02 0.01,-0.04 0.02,-0.0599 0.05,-0.2601 0.1001,-0.5303 0.1699,-0.7904 0.08,-0.3602 0.1804,-0.7103 0.3,-1.0704 0.6204,-1.921 1.641,-3.7718 3.0518,-5.4927 z m -0.2202,44.4812 c 0.05,-0.01 0.1001,-0.03 0.1499,-0.05 0.02,-0.01 0.04,-0.01 0.05,-0.02 0.04,-0.01 0.07,-0.03 0.09,-0.0499 0.04,-0.01 0.07,-0.03 0.1001,-0.0499 0.02,-0.01 0.03,-0.02 0.04,-0.03 0.04,-0.03 0.09,-0.0601 0.1301,-0.0901 -0.04,0.03 -0.09,0.0701 -0.1301,0.1002 -0.01,0.01 -0.02,0.02 -0.04,0.02 v 0.0099 c -0.03,0.02 -0.06,0.03 -0.1001,0.05 -0.02,0.0199 -0.05,0.0299 -0.09,0.0399 v 0.01 c 0,0 -0.01,0 -0.02,0.01 -0.01,0 -0.02,0 -0.03,0.01 -0.05,0.0199 -0.1,0.0299 -0.1499,0.0399 z"
   id="path224" />
		<path
   fill="#fcf2e4"
   d="m 2487.1709,19.6119 v 12.0958 l -3.0615,0.7904 -10.2949,2.6612 -10.3054,2.6613 -10.3047,2.6713 -10.3047,2.6612 -10.3052,2.6613 -10.3047,2.6713 -10.3052,2.6612 -10.3047,2.6713 -10.3047,2.6613 -5.2124,1.3506 c -0.3606,-0.4403 -0.7004,-0.8904 -1.0107,-1.3506 -0.1499,-0.2201 -0.2903,-0.4301 -0.4304,-0.6503 -0.1,-0.1701 -0.1997,-0.3302 -0.2896,-0.5002 -0.091,-0.1401 -0.1707,-0.29 -0.2405,-0.4403 -0.1997,-0.3501 -0.3704,-0.7103 -0.53,-1.0704 -0.09,-0.2201 -0.1904,-0.4403 -0.27,-0.6603 -0.1707,-0.4401 -0.3103,-0.8803 -0.4402,-1.3306 -0.06,-0.2301 -0.1204,-0.4503 -0.1702,-0.6804 -0.2002,-0.8703 -0.3203,-1.7608 -0.3501,-2.6612 -0.01,-0.1701 -0.02,-0.3303 -0.02,-0.5002 0,-0.5303 0.04,-1.0606 0.1,-1.5809 0.021,-0.17 0.04,-0.3502 0.07,-0.5202 0,-0.02 0.01,-0.0399 0.01,-0.0599 v -0.01 c 0.04,-0.2201 0.08,-0.4503 0.1201,-0.6703 0.09,-0.4502 0.2102,-0.8903 0.3401,-1.3306 0.07,-0.2201 0.1401,-0.4403 0.2202,-0.6603 0.3201,-0.9103 0.7402,-1.8008 1.2405,-2.6612 0.5403,-0.9204 1.1709,-1.811 1.9011,-2.6713 0.05,-0.0499 0.08,-0.1 0.1301,-0.1501 0.02,-0.03 0.05,-0.0601 0.07,-0.08 v -0.01 c 0.02,-0.0399 0.04,-0.0699 0.07,-0.1101 0.04,-0.05 0.08,-0.1001 0.1099,-0.1701 0.01,-0.0099 0.01,-0.0099 0.01,-0.0199 0,-0.01 0,-0.02 0.01,-0.03 0,-0.01 0,-0.01 0,-0.02 0.01,-0.03 0.01,-0.0601 0.03,-0.0901 0.01,-0.0499 0.02,-0.0999 0.03,-0.15 0,-0.04 0.01,-0.0701 0.01,-0.1101 0.01,-0.0399 0.01,-0.08 0,-0.13 v -0.03 c -0.01,-0.0701 -0.02,-0.1501 -0.04,-0.2201 -0.01,-0.02 -0.02,-0.04 -0.02,-0.0701 -0.01,-0.01 -0.01,-0.03 -0.02,-0.04 v -0.01 c -0.01,-0.02 -0.02,-0.0399 -0.02,-0.0499 -0.04,-0.09 -0.09,-0.1802 -0.1602,-0.2501 -0.01,-0.01 -0.01,-0.02 -0.02,-0.03 -0.1201,-0.1301 -0.2205,-0.27 -0.3303,-0.4002 -0.1299,-0.16 -0.27,-0.3201 -0.4001,-0.4902 -0.3398,-0.4301 -0.6506,-0.8703 -0.9402,-1.3105 -0.2805,-0.4403 -0.5505,-0.9004 -0.7905,-1.3506 -0.1099,-0.2201 -0.2202,-0.4403 -0.3303,-0.6603 -0.21,-0.4403 -0.3901,-0.8804 -0.5505,-1.3306 -0.08,-0.2301 -0.1499,-0.4503 -0.2197,-0.6804 -0.1099,-0.3402 -0.2002,-0.6804 -0.2805,-1.0305 -0.2295,-1.0304 -0.3496,-2.081 -0.3496,-3.1415 0,-3.6917 1.4504,-7.2835 4.2017,-10.3948 0.08,-0.1001 0.1499,-0.2102 0.1899,-0.3303 0.01,-0.01 0.01,-0.02 0.01,-0.03 0.01,-0.03 0.02,-0.05 0.03,-0.08 0.01,-0.0699 0.02,-0.1301 0.03,-0.1902 0,-0.02 0.01,-0.0499 0.01,-0.0699 0.01,-0.0399 0.01,-0.08 0,-0.1301 0,-0.03 -0.01,-0.0601 -0.01,-0.0801 -0.01,-0.0599 -0.01,-0.12 -0.03,-0.17 -0.01,-0.02 -0.02,-0.05 -0.02,-0.0701 0,-0.0199 -0.01,-0.0299 -0.01,-0.0499 -0.01,-0.01 -0.01,-0.02 -0.02,-0.0399 -0.03,-0.0601 -0.06,-0.1102 -0.08,-0.1603 -0.03,-0.0399 -0.06,-0.0898 -0.1001,-0.13 -0.1699,-0.1902 -0.3298,-0.3803 -0.49,-0.5804 -0.1602,-0.19 -0.3103,-0.3901 -0.4602,-0.5803 -0.01,-0.01 -0.02,-0.02 -0.02,-0.03 -0.23,-0.3 -0.4402,-0.6103 -0.6501,-0.9204 -0.03,-0.0499 -0.07,-0.0999 -0.1001,-0.15 -0.1707,-0.2601 -0.3303,-0.5202 -0.4802,-0.7904 -0.06,-0.1 -0.1204,-0.2001 -0.1702,-0.3102 -0.07,-0.14 -0.1401,-0.2701 -0.21,-0.4001 -0.03,-0.05 -0.05,-0.1102 -0.08,-0.1601 -0.09,-0.1902 -0.1804,-0.3802 -0.2605,-0.5702 -0.2998,-0.6703 -0.55,-1.3607 -0.7502,-2.051 -0.01,-0.02 -0.02,-0.05 -0.02,-0.0701 -0.01,-0.0699 -0.03,-0.13 -0.05,-0.19 -0.05,-0.2001 -0.09,-0.4001 -0.1404,-0.5903 -0.1201,-0.5503 -0.1997,-1.1105 -0.2603,-1.6708 0,-0.04 0,-0.08 -0.01,-0.1201 -0.01,-0.1701 -0.02,-0.3502 -0.04,-0.5201 V 3.9445 c -0.01,-0.2101 -0.01,-0.4102 -0.01,-0.6103 0,-0.1802 0,-0.3702 0.01,-0.5503 0.02,-0.5602 0.08,-1.1105 0.1699,-1.6508 0.02,-0.1 0.03,-0.2001 0.05,-0.3 0.05,-0.2601 0.1001,-0.5303 0.1699,-0.7904 0.08,-0.3602 0.1804,-0.7103 0.3,-1.0704 0.6204,-1.9209 1.6409,-3.7718 3.0518,-5.4926 z"
   id="path226" />
		<polygon
   fill="#637074"
   points="2506.8003,26.6252 2504.9292,27.1154 2503.0581,27.5957 2501.1975,28.076 2499.3264,28.5662 2497.4556,29.0463 2495.585,29.5267 2493.7139,30.0169 2491.843,30.4971 2491.3628,30.6271 2489.9822,30.9774 2489.5117,31.0974 2489.5117,20.2122 2510.5417,25.6547 2508.6707,26.145 "
   id="polygon228" />
		<path
   fill="#f7d7a4"
   d="M 2579.6443,193.3844 V 1588.6873 H 65.8704 V -6.6706 H 2383.321 c -2.1406,3.0714 -3.2612,6.4931 -3.2612,10.0048 0,3.5116 1.1206,6.9233 3.2715,9.9947 H 85.8699 V 1568.6778 H 2559.635 V 193.3844 Z"
   id="path230" />
	</g>
</svg>
