<?xml version="1.0" encoding="UTF-8" standalone="no"?>
<svg xmlns:rdf="http://www.w3.org/1999/02/22-rdf-syntax-ns#" xmlns="http://www.w3.org/2000/svg" height="134.86mm" width="147.74mm" version="1.1" xmlns:cc="http://creativecommons.org/ns#" xmlns:xlink="http://www.w3.org/1999/xlink" viewBox="0 0 523.48825 477.8339" xmlns:dc="http://purl.org/dc/elements/1.1/">
<defs>
<marker id="Arrow1Mend" refY="0" refX="0" orient="auto" overflow="visible">
<path d="m0 0 5-5-17.5 5 17.5 5-5-5z" fill-rule="evenodd" transform="matrix(-.4 0 0 -.4 -4 0)" stroke="#000" stroke-width="1pt"/>
</marker>
<linearGradient id="b">
<stop stop-color="#606060" offset="0"/>
<stop stop-color="#cacaca" stop-opacity=".94382" offset="1"/>
</linearGradient>
<linearGradient id="a">
<stop stop-color="#fff" offset="0"/>
<stop stop-color="#fff" stop-opacity=".49804" offset=".5"/>
<stop stop-color="#fff" stop-opacity="0" offset="1"/>
</linearGradient>
<linearGradient id="ac" x1="489.54" gradientUnits="userSpaceOnUse" y1="668.97" gradientTransform="matrix(1.0554,0,0,1,-26.192,8.5714)" x2="503.21" y2="696.47">
<stop stop-color="#fff" offset="0"/>
<stop stop-color="#fff" stop-opacity="0" offset="1"/>
</linearGradient>
<filter id="ag" style="color-interpolation-filters:sRGB" height="1.0265" width="1.2555" y="-.013244" x="-.12777">
<feGaussianBlur stdDeviation="3.0735732"/>
</filter>
<filter id="af" style="color-interpolation-filters:sRGB" height="1.0861" width="1.4389" y="-.043065" x="-.21944">
<feGaussianBlur stdDeviation="2.8191065"/>
</filter>
<filter id="ae" style="color-interpolation-filters:sRGB" height="1.278" width="2.1252" y="-.139" x="-.56259">
<feGaussianBlur stdDeviation="3.8531604"/>
</filter>
<linearGradient id="t" y2="698.3" spreadMethod="repeat" gradientUnits="userSpaceOnUse" y1="698.3" x2="603.07" x1="604.12">
<stop stop-color="#131313" offset="0"/>
<stop stop-color="#2c2c2c" stop-opacity=".98431" offset=".16244"/>
<stop stop-color="#959595" stop-opacity=".97255" offset=".46864"/>
<stop stop-color="#c8c8c8" stop-opacity=".95686" offset=".78729"/>
<stop stop-color="#fcfcfc" stop-opacity=".94382" offset="1"/>
</linearGradient>
<linearGradient id="s" y2="792.75" xlink:href="#b" spreadMethod="reflect" gradientUnits="userSpaceOnUse" y1="792.25" gradientTransform="translate(1.0102)" x2="613.37" x1="406.89"/>
<filter id="av" style="color-interpolation-filters:sRGB" height="2.02" width="1.0638" y="-0.51" x="-.031875">
<feGaussianBlur stdDeviation="3.6491762"/>
</filter>
<linearGradient id="r" y2="659.41" xlink:href="#b" spreadMethod="repeat" gradientUnits="userSpaceOnUse" y1="659.41" x2="346.99" x1="335.37"/>
<filter id="au" style="color-interpolation-filters:sRGB" height="1.213" width="1.062" y="-.1065" x="-.030982">
<feGaussianBlur stdDeviation="1.0758125"/>
</filter>
<linearGradient id="q" y2="701.65" xlink:href="#a" gradientUnits="userSpaceOnUse" y1="702.36" gradientTransform="translate(-3.5714,-2.8571)" x2="526.03" x1="552.14"/>
<filter id="ak" style="color-interpolation-filters:sRGB">
<feGaussianBlur stdDeviation="0.6809207"/>
</filter>
<linearGradient id="p" y2="819.31" xlink:href="#a" gradientUnits="userSpaceOnUse" y1="694.3" x2="588.95" x1="682.99"/>
<filter id="aj" style="color-interpolation-filters:sRGB" height="1.2869" width="1.0601" y="-.14344" x="-.030029">
<feGaussianBlur stdDeviation="5.33396"/>
</filter>
<linearGradient id="d" y2="696.47" xlink:href="#a" gradientUnits="userSpaceOnUse" y1="668.97" gradientTransform="matrix(1.0554,0,0,1,-26.192,8.5714)" x2="503.21" x1="489.54"/>
<filter id="aq" style="color-interpolation-filters:sRGB" height="1.2327" width="1.2015" y="-.11634" x="-.10077">
<feGaussianBlur stdDeviation="1.7139866"/>
</filter>
<linearGradient id="c" y2="696.47" xlink:href="#ac" gradientUnits="userSpaceOnUse" y1="668.97" gradientTransform="matrix(1.0554,0,0,1,-26.192,8.5714)" x2="503.21" x1="489.54"/>
<filter id="am" style="color-interpolation-filters:sRGB">
<feGaussianBlur stdDeviation="1.1347597"/>
</filter>
<linearGradient id="o" y2="661.43" xlink:href="#a" gradientUnits="userSpaceOnUse" y1="643.76" x2="349.01" x1="347.49"/>
<filter id="at" style="color-interpolation-filters:sRGB" height="1.213" width="1.062" y="-.1065" x="-.030982">
<feGaussianBlur stdDeviation="1.0758125"/>
</filter>
<linearGradient id="n" y2="688.45" xlink:href="#b" gradientUnits="userSpaceOnUse" y1="714.72" x2="613.16" x1="611.65"/>
<linearGradient id="m" y2="698.45" xlink:href="#e" spreadMethod="repeat" gradientUnits="userSpaceOnUse" y1="698.45" gradientTransform="matrix(1.9448 0 0 .97436 -578.94 17.914)" x2="617.56" x1="618"/>
<linearGradient id="e">
<stop stop-color="#131313" offset="0"/>
<stop stop-color="#2c2c2c" stop-opacity=".98431" offset=".2513"/>
<stop stop-color="#959595" stop-opacity=".97255" offset=".46864"/>
<stop stop-color="#c8c8c8" stop-opacity=".95686" offset=".78729"/>
<stop stop-color="#fcfcfc" stop-opacity=".94382" offset="1"/>
</linearGradient>
<filter id="as" style="color-interpolation-filters:sRGB" height="1.2327" width="1.2015" y="-.11634" x="-.10077">
<feGaussianBlur stdDeviation="1.7139866"/>
</filter>
<linearGradient id="h" y2="702.53" gradientUnits="userSpaceOnUse" y1="680.18" gradientTransform="matrix(1.0554,0,0,1,-26.192,8.5714)" x2="496.54" x1="486.42">
<stop stop-color="#fff" offset="0"/>
<stop stop-color="#fff" stop-opacity="0" offset="1"/>
</linearGradient>
<filter id="ar" style="color-interpolation-filters:sRGB" height="1.2327" width="1.2015" y="-.11634" x="-.10077">
<feGaussianBlur stdDeviation="1.7139866"/>
</filter>
<linearGradient id="l" y2="658.41" gradientUnits="userSpaceOnUse" y1="736.04" gradientTransform="translate(17.314)" x2="635.58" x1="635.43">
<stop stop-color="#2f2f2f" offset="0"/>
<stop stop-color="#959595" stop-opacity=".97255" offset=".60484"/>
<stop stop-color="#c8c8c8" stop-opacity=".95686" offset=".80242"/>
<stop stop-color="#fcfcfc" stop-opacity=".94382" offset="1"/>
</linearGradient>
<linearGradient id="k" y2="672.45" xlink:href="#b" gradientUnits="userSpaceOnUse" y1="727.69" gradientTransform="translate(17.314 -.50508)" x2="655.71" x1="655.71"/>
<linearGradient id="j" y2="709.81" xlink:href="#e" spreadMethod="repeat" gradientUnits="userSpaceOnUse" x2="646.76" gradientTransform="matrix(1.1821 0 0 1.0224 -99.996 -16.484)" y1="716.1" x1="646.76"/>
<linearGradient id="i" y2="698.69" gradientUnits="userSpaceOnUse" x2="638.72" gradientTransform="translate(17.672 -.53571)" y1="698.87" x1="658.82">
<stop offset="0"/>
<stop stop-opacity="0" offset="1"/>
</linearGradient>
<filter id="ap" style="color-interpolation-filters:sRGB" height="1.2327" width="1.2015" y="-.11634" x="-.10077">
<feGaussianBlur stdDeviation="1.7139866"/>
</filter>
<filter id="al" style="color-interpolation-filters:sRGB">
<feGaussianBlur stdDeviation="0.6809207"/>
</filter>
<linearGradient id="f" x1="552.27" xlink:href="#a" gradientUnits="userSpaceOnUse" y1="701.69" gradientTransform="translate(-3.5714,-2.8571)" x2="523.95" y2="701.65"/>
<filter id="ao" style="color-interpolation-filters:sRGB">
<feGaussianBlur stdDeviation="0.19426794"/>
</filter>
<filter id="an" style="color-interpolation-filters:sRGB">
<feGaussianBlur stdDeviation="0.099086215"/>
</filter>
<linearGradient id="ab" y2="632.76" spreadMethod="repeat" gradientUnits="userSpaceOnUse" x2="535.87" gradientTransform="matrix(.40818 0 0 .44487 326.84 370.46)" y1="632.71" x1="511.17">
<stop stop-color="#606060" offset="0"/>
<stop stop-color="#cacaca" stop-opacity=".94382" offset="1"/>
</linearGradient>
<linearGradient id="aa" y2="735.08" gradientUnits="userSpaceOnUse" y1="656.95" x2="510.36" x1="555.5">
<stop offset="0"/>
<stop stop-opacity="0" offset="1"/>
</linearGradient>
<linearGradient id="z" y2="248.16" gradientUnits="userSpaceOnUse" y1="-288.27" x2="448.64" x1="449.91">
<stop stop-color="#5a2f1f" stop-opacity=".21348" offset="0"/>
<stop stop-color="#3c6f95" stop-opacity=".33333" offset=".52717"/>
<stop stop-color="#1c6298" stop-opacity=".80337" offset="1"/>
</linearGradient>
<radialGradient id="g" gradientUnits="userSpaceOnUse" cy="171.54" cx="448.55" gradientTransform="matrix(1.1893 -.00022058 .0039828 13.862 -84.572 -2163.6)" r="16.145">
<stop stop-color="#d1fdf8" offset="0"/>
<stop stop-color="#a9f7f9" stop-opacity=".64045" offset="1"/>
</radialGradient>
<linearGradient id="y" y2="701.65" gradientUnits="userSpaceOnUse" x2="523.95" gradientTransform="translate(-3.5714,-2.8571)" y1="701.69" x1="552.27">
<stop stop-color="#fff" offset="0"/>
<stop stop-color="#fff" stop-opacity="0" offset="1"/>
</linearGradient>
<linearGradient id="ad" y2="45.608" gradientUnits="userSpaceOnUse" y1="47.363" gradientTransform="matrix(.30506 0 0 14.611 -690.96 -134.53)" x2="3859.5" x1="3859.5">
<stop stop-color="#f00" offset="0"/>
<stop stop-color="#f00" stop-opacity="0" offset="1"/>
</linearGradient>
<linearGradient id="v" y2="332.5" gradientUnits="userSpaceOnUse" x2="1036.6" gradientTransform="matrix(2.1035,0,0,2.1035,-1897,-590.85)" y1="332.5" x1="1028.3">
<stop stop-color="#e5ecf4" offset="0"/>
<stop stop-color="#a9c0da" offset="1"/>
</linearGradient>
<filter id="ah" style="color-interpolation-filters:sRGB" height="1" width="1" y="0" x="0">
<feGaussianBlur stdDeviation="0.49062001" result="fbSourceGraphic"/>
<feColorMatrix values="0 0 0 -1 0 0 0 0 -1 0 0 0 0 -1 0 0 0 0 1 0" result="fbSourceGraphicAlpha" in="fbSourceGraphic"/>
<feTurbulence baseFrequency="1" seed="50" result="result1" numOctaves="3" type="fractalNoise"/>
<feColorMatrix type="luminanceToAlpha" result="result0" in="fbSourceGraphic"/>
<feColorMatrix values="1 0 0 0 0 0 1 0 0 0 0 0 1 0 0 0 0 0 0.7 0 " result="result2"/>
<feComposite operator="over" result="result3" in2="result2" in="result1"/>
<feColorMatrix values="1 0 0 0 0 0 1 0 0 0 0 0 1 0 0 0 0 0 5 -3.2 " result="result91"/>
<feComposite operator="out" result="result4" in2="result91" in="fbSourceGraphic"/>
</filter>
<filter id="ai" style="color-interpolation-filters:sRGB">
<feGaussianBlur stdDeviation="0.49062001"/>
</filter>
<clipPath id="aw" clipPathUnits="userSpaceOnUse">
<path d="m-79.589 536.97h42.65c7.311 0 24.113 0 24.113 19.565 0 20.829-16.802 20.829-24.113 20.829h-42.652c0.48232-0.49344 0.04153-2.0142 0.03463-2.8494-0.10859-13.228 0.02946-23.157-0.0141-34.736-0.0031-0.93673 0.59965-2.5588-0.02021-2.8101z" fill-opacity=".91667" fill-rule="evenodd" fill="#009fda"/>
</clipPath>
<linearGradient id="u" y2="1322" gradientUnits="userSpaceOnUse" y1="1322" gradientTransform="matrix(.74059 0 0 1.01 -594.3 -889.65)" x2="609.9" x1="573.42">
<stop offset="0"/>
<stop stop-opacity="0" offset="1"/>
</linearGradient>
<linearGradient id="x" y2="667.09" gradientUnits="userSpaceOnUse" x2="24.249" gradientTransform="matrix(2.2713 0 0 .50015 -460.98 480.68)" y1="652.41" x1="24.249">
<stop stop-color="#4a4a4a" offset="0"/>
<stop stop-opacity=".49804" stop-color="#4a4a4a" offset=".39656"/>
<stop stop-opacity=".24706" stop-color="#4a4a4a" offset=".175"/>
<stop stop-opacity="0" stop-color="#4a4a4a" offset="1"/>
</linearGradient>
<linearGradient id="w" y2="467.48" gradientUnits="userSpaceOnUse" x2="92.424" gradientTransform="matrix(1.1123 0 0 1.3021 -252.16 -37.734)" y1="467.48" x1="80.312">
<stop stop-color="#4a4a4a" offset="0"/>
<stop stop-color="#4a4a4a" offset=".26613"/>
<stop stop-color="#fff" offset="1"/>
</linearGradient>
</defs>
<g transform="translate(-105.89 -335.23)">
<rect stroke-linejoin="round" ry="2.4901" rx="2.7867" transform="scale(-1,1)" height="470.87" width="12.359" stroke="#000" stroke-linecap="round" y="335.53" x="-162.28" stroke-width=".59162" fill="url(#w)"/>
<rect stroke-linejoin="round" ry=".94710" rx="2.5294" transform="scale(-1,1)" height="7.7024" width="256.94" stroke="#000" stroke-linecap="round" y="802.66" x="-390.96" stroke-width=".59162" fill="url(#x)"/>
<g transform="matrix(.49302 0 0 .49302 103.64 303.17)">
<g transform="matrix(.57755 0 0 .57755 57.743 548.08)">
<g fill-rule="evenodd">
<rect stroke-linejoin="round" rx="0" ry="0" height="31.315" width="17.93" stroke="#000" y="682.65" x="590.43" fill="url(#t)"/>
<path stroke-linejoin="round" d="m520.19 660.44c-3.06 0-5.5 3.2613-5.5 7.3125v9.8438h-41.938l-100.53 12c-1.3714 0.16368-2.5 1.3601-2.5 3.0625v12.5c0 1.7024 1.1287 2.898 2.5 3.0625l100.03 12h42.438v39.125c-64.779 2.4936-113.74 12.919-115.53 25.531-0.32185 0.54386-0.5 1.1417-0.5 1.7812v14.844c0 2.3708 2.4712 4.2812 5.5312 4.2812h281c3.06 0 5.5312-1.9105 5.5312-4.2812v-14.844c0-0.85091-0.32662-1.6163-0.875-2.2812-3.06-12.58-53.12-22.91-118.59-25.15v-38.281h19.688c1.6871 0 3.0312-1.4178 3.0312-3.1562v-37.562c0-1.7385-1.3441-3.125-3.0312-3.125h-19.688v-9.3438c0-4.0512-2.4712-7.3125-5.5312-7.3125h-45.531z" stroke="#000" fill="#606060"/>
<rect opacity=".59044" rx="3.0454" ry="3.1381" height="17.173" filter="url(#av)" width="274.76" y="783.66" x="408.61" fill="url(#s)"/>
<path opacity=".59044" d="m320.42 643.29 95.247 10c1.6779 0.17616 3.0454 1.3996 3.0454 3.138v11.968c0 1.7385-1.3674 2.9619-3.0454 3.1381l-95.247 10c-1.6779 0.17616-3.0454-1.3996-3.0454-3.1381v-31.968c0-1.7385 1.3674-3.3142 3.0454-3.138z" transform="matrix(-1,0,0,1,788.42,35.86)" filter="url(#au)" fill="url(#r)"/>
<path opacity=".59044" d="m523.05 662.36h33.615c4.0624 0 7.3329 1.3996 7.3329 3.1381v82.295c0 1.7385-3.2705 3.138-7.3329 3.138h-33.61c-4.0624 0-7.3329-1.3996-7.3329-3.138v-82.295c0-1.7385 3.2705-3.1381 7.3329-3.1381z" transform="matrix(1.1301,0,0,1.1349,-66.742,-90.496)" filter="url(#ak)" fill="url(#q)"/>
<path opacity=".59044" d="m764.46 716.17c-22.695 36.562-158.27 63.733-180.77 73.409-52.024 22.374 3.4256-25.295 3.4256-42.85s16.078-29.721 73.255-53.684c24.268-10.171 54.22-12.616 78.617-16.234 31.238-4.6322 39.242 17.179 25.474 39.359z" transform="matrix(1.102 .16146 .66206 .36576 -629.02 398.97)" filter="url(#aj)" stroke="#000" fill="url(#p)"/>
<rect opacity=".59044" ry="0" rx="0" transform="matrix(1 0 0 .97256 0 19.579)" height="35.357" filter="url(#aq)" width="40.82" y="678.08" x="472.75" fill="url(#d)"/>
<path opacity=".59044" d="m470.54 678.08h43.036v35.357h-43.04z" transform="matrix(.5237 0 0 1.0402 323.5 -27.237)" filter="url(#am)" fill="url(#c)"/>
<path opacity=".59044" d="m320.42 643.29 95.247 10c1.6779 0.17616 3.0454 1.3996 3.0454 3.138v11.968c0 1.7385-1.3674 2.9619-3.0454 3.1381l-95.247 10c-1.6779 0.17616-3.0454-1.3996-3.0454-3.1381v-31.968c0-1.7385 1.3674-3.3142 3.0454-3.138z" transform="matrix(-1,0,0,1,790.12,35.891)" filter="url(#at)" fill="url(#o)"/>
<rect stroke-linejoin="round" height="40.406" width="9.5964" stroke="#000" y="678.61" x="607.61" fill="url(#n)"/>
<rect stroke-linejoin="round" height="16.733" width="32.414" stroke="#000" y="690.44" x="617.46" stroke-width="1.3766" fill="url(#m)"/>
<rect opacity=".59044" ry="0" rx="0" transform="matrix(.26934 0 0 .72947 467.58 189.55)" height="35.357" filter="url(#as)" width="40.82" y="678.08" x="472.75" fill="url(#c)"/>
</g>
<g stroke="#000" stroke-width=".99131px" fill="none">
<path d="m607.55 707.89h9.6786"/>
<path d="m607.94 693.63h9.6786"/>
<path d="m607.57 682.52h9.6786"/>
</g>
<g fill-rule="evenodd" transform="matrix(.98722 0 0 .93826 8.332 43.105)">
<rect opacity=".59044" ry="0" rx="0" transform="matrix(.64590 0 0 .39411 314.86 423.68)" height="35.357" filter="url(#ar)" width="40.82" y="678.08" x="472.75" fill="url(#h)"/>
<path d="m617.68 690.7h34.076v16.302h-34.076z" fill-opacity=".31746" fill="#e28f2d"/>
</g>
<g fill-rule="evenodd">
<path stroke-linejoin="round" d="m650.23 670.76h6.4626v53.538h-6.46c-0.5099 0-0.92039-0.43238-0.92039-0.96947v-51.599c0-0.53709 0.41049-0.96947 0.92039-0.96947z" stroke="#000" stroke-width=".97435" fill="url(#l)"/>
<path d="m660.27 660.43 13.061-0.17857c1.8724-0.0256 6.9318 10.088 8.2016 17.026 1.2698 6.9371 2.2642 31.396 0.1046 40.482-2.1596 9.0854-6.7421 17.671-8.6147 17.671h-12.753c-1.8726 0-3.3802-1.5076-3.3802-3.3802v-68.24c0-1.8726 1.5077-3.3546 3.3802-3.3802z" stroke="#000" fill="url(#k)"/>
<rect opacity=".56314" stroke-linejoin="round" rx="3.5643" ry="3.2843" height="74.856" width="17.732" stroke="url(#i)" y="660.37" x="657.39" stroke-width="1.0994" fill="url(#j)"/>
</g>
</g>
<g transform="translate(0,14)">
<g transform="matrix(.57755 0 0 .57755 112.47 536.88)">
<path d="m425.36 247.36c16.359-0.18253 34.149-0.847 49.286-0.35714 9.8722 0.31948-0.53703-17.702-1.7857-27.5-4.2791-33.577 3.8344-43.278 5.8384-77.211 0.84381-14.287 67.383-31.809 120.9-53.094h-315.57c38.26 9.4914 128.75 18.019 137.12 51.292 0.4186 32.385 9.9317 42.778 8.1679 75.118-0.61131 11.208-15.182 31.878-3.9577 31.753z" filter="url(#ag)" fill="url(#z)"/>
<path d="m448.5 89.672c5.3843-0.12069 35.845-0.99584 43.649-0.99584-30.925 35.321-28.229 158.1-28.229 158.1l-27.874-0.50517c-0.58858-30.66-6.1938-74.422-6.742-98.502-0.49307-21.661-16.437-43.645-27.345-59.096 9.5856 0 41.62 0.99584 46.542 0.99584z" filter="url(#af)" fill="url(#g)"/>
<path opacity=".89761" d="m448.92 155.46c-4.1897 25.382-8.2188 46.508-8.2188 72.601 0 6.8809 0.25838 13.416 0.71875 19.312h15.031c0.46037-5.8964 0.6875-12.432 0.6875-19.312 0-26.092-3.6768-46.472-8.2188-72.601z" fill-rule="evenodd" fill-opacity=".80556" transform="matrix(1.4338 0 0 .67657 -194.22 82.382)" filter="url(#ae)" fill="#555ed0"/>
</g>
</g>
<path style="color:#000000;text-indent:0;block-progression:tb;text-decoration-line:none;text-transform:none" d="m307.96 936.4c-11.758-0.0457-27.851 0.0913-45.188 0.75-34.674 1.3174-73.139 3.6092-97.781 14.406-44.552 19.52-74.562 65.156-74.562 65.156l24.062 16.562s29.289-40.541 62.219-54.969c14.098-6.1772 53.586-10.724 87.156-12 33.571-1.2755 62.438-0.46875 62.438-0.46875l0.8125-29.188s-7.3986-0.20429-19.156-0.25z" stroke="#000" stroke-width="1.4" fill="#db1111"/>
<g stroke-linejoin="bevel" transform="translate(-8)" stroke="#000">
<rect style="color:#000000" height="9.0737" width="332.98" y="584.46" x="214.21" stroke-width="1.4" fill="#b1b1b1"/>
<path style="color:#000000" d="m234.24 594.97v8.7931h16.938l-52.438 406.15 15.906 2.2436 52.719-408.39h226.66l52.719 408.39 15.906-2.2436-52.438-406.15h16.938v-8.7931h-292.91z" stroke-width="1.379" fill="#191919"/>
</g>
<rect opacity=".59044" ry="0" fill-rule="evenodd" rx="0" transform="matrix(.57755 0 0 .56171 58.043 560.75)" height="35.357" filter="url(#ap)" width="40.82" y="678.08" x="472.75" fill="url(#d)"/>
<g fill-rule="evenodd" transform="matrix(.57755 0 0 .57755 59.567 559.28)">
<path stroke-linejoin="bevel" d="m516.39 314.83h47.213v329.05l-47.21-0.01z" stroke="#000" fill="#606060"/>
<rect stroke-linejoin="round" height="85.732" width="59.303" stroke="#050505" y="229.14" x="509.99" stroke-width=".98265" fill="#606060"/>
<path opacity=".59044" d="m523.05 662.36 42.491 0.66755c0.0862 13.051-0.29512 69.201-0.22778 87.904h-42.263c-4.0624 0-5.3206-0.48252-5.313-2.221l0.36724-84.628c0.008-1.7385 0.88406-1.7858 4.9458-1.722z" transform="matrix(1.2219 0 0 .95711 -122.88 -404.92)" filter="url(#al)" fill="url(#y)"/>
<path opacity=".59044" d="m523.05 662.36 42.491 0.66755c0.0862 13.051-0.29512 69.201-0.22778 87.904h-42.263c-4.0624 0-5.3206-0.48252-5.313-2.221l0.36724-84.628c0.008-1.7385 0.88406-1.7858 4.9458-1.722z" transform="matrix(.98696 0 0 3.6607 4.5916 -2106.5)" filter="url(#ao)" fill="url(#f)"/>
<rect stroke-linejoin="round" height="85.732" width="59.303" stroke="#050505" y="558.11" x="509.99" stroke-width=".98265" fill="#606060"/>
</g>
<g transform="matrix(1 0 0 1.0428 -177.79 200.33)">
<path opacity=".59044" d="m523.05 662.36 42.491 0.66755c0.0862 13.051-0.29512 69.201-0.22778 87.904h-42.263c-4.0624 0-5.3206-0.48252-5.313-2.221l0.36724-84.628c0.008-1.7385 0.88406-1.7858 4.9458-1.722z" fill-rule="evenodd" transform="matrix(.70765 0 0 .52146 165.78 309.01)" filter="url(#an)" fill="url(#f)"/>
<rect stroke-linejoin="round" fill-rule="evenodd" height="2.815" width="51.441" stroke="#000" y="650.88" x="523.3" stroke-width=".36902" fill="url(#ab)"/>
<path d="m543.68 654.7c-0.32477 0-0.58136 0.37443-0.58136 0.84356v19.085c0 0.0431 0.007 0.0841 0.0114 0.12539 0.002 0.0149-0.002 0.031 0 0.0456-0.005 0.10688-0.0228 0.21097-0.0228 0.31919 0 3.4596 2.6891 6.2582 5.996 6.2582 3.307 0 5.9847-2.7986 5.9847-6.2582 0-0.10822-0.0176-0.21231-0.0229-0.31919 0.002-0.0147-0.002-0.0306 0-0.0456 0.004-0.0413 0.0114-0.0823 0.0114-0.12539v-19.085c0-0.46913-0.25658-0.84356-0.58136-0.84356h-10.795z" stroke="#4d4d4d" stroke-width=".86305" fill="url(#aa)"/>
</g>
</g>
<g transform="matrix(.38927 .050129 -.055673 .43231 628.88 430.12)">
<g transform="matrix(.46468 -.061467 .076099 .57381 -979.18 -113.91)">
<g fill-rule="evenodd">
<path d="m246.61 174.46c-17.2 0-31.13 15.83-32.09 35.72h-0.06v0.69c-0.02 0.49-0.13 0.94-0.13 1.43 0 0.5 0.11 0.95 0.13 1.44v583.35c-0.02 0.48-0.13 0.94-0.13 1.43 0 0.5 0.11 0.95 0.13 1.44v0.22h0.03c0.63 16.63 10.35 30.36 23.53 34.66v59.78c-0.06 0.42-0.25 0.8-0.25 1.25 0 4.88 3.97 8.84 8.84 8.84 4.88 0 8.85-3.96 8.85-8.84 0-0.42-0.19-0.78-0.25-1.19v-59.84c13.18-4.3 22.9-18.03 23.53-34.66 0.02-0.56 0.16-1.09 0.16-1.66 0-0.62-0.13-1.2-0.16-1.81v-582.59c0.03-0.62 0.16-1.19 0.16-1.82 0-0.62-0.13-1.19-0.16-1.81v-0.31h-0.03c-0.96-19.89-14.89-35.72-32.1-35.72z" fill-opacity=".039106" stroke="#000" stroke-width="3.7829" fill="#0069ff"/>
<rect fill-opacity=".73743" height="550" width="52.857" y="238.08" x="220" fill="#fff"/>
<rect stroke-opacity=".25698" height="656.45" width="13.706" stroke="#000068" y="198.48" x="239.72" fill="url(#ad)"/>
<path d="m237.89 835.21 0.36 59.32c-0.06 0.43-0.25 0.81-0.25 1.25 0 4.88 3.96 8.85 8.84 8.84 4.88 0 8.85-3.96 8.85-8.84 0-0.42-0.2-0.78-0.25-1.19l-0.35714-58.846z" fill="#560000"/>
</g>
<g stroke="#000" stroke-width="1px" transform="translate(-252,8)" fill="none">
<path d="m476 337.15h42.86"/>
<path d="m476 415.05h42.86"/>
<path d="m476 363.12h42.86"/>
<path d="m476 389.08h42.86"/>
<path d="m476 441.02h42.86"/>
<path d="m476 570.85h42.86"/>
<path d="m476 596.82h42.86"/>
<path d="m476 622.78h42.86"/>
<path d="m476 648.75h42.86"/>
<path d="m476 674.72h42.86"/>
<path d="m476 700.68h42.86"/>
<path d="m476 544.88h42.86"/>
<path d="m476 518.92h42.86"/>
<path d="m476 726.65h42.86"/>
<path d="m476 466.98h42.86"/>
<path d="m476 492.95h42.86"/>
<path d="m476 311.19h42.86"/>
<path d="m476 285.22h42.86"/>
</g>
</g>
</g>
<g transform="translate(-403.35 -192.04)">
<g clip-path="url(#aw)" transform="matrix(0 .63815 -.63815 0 1053.7 779.44)" filter="url(#ah)" fill="#bebe00">
<path d="m17.837 521.2v59.425c0 4.4479-2.8898 8.0287-6.4793 8.0287h-115.84c-3.5895 0-6.4793-3.5808-6.4793-8.0287v-59.246" filter="url(#ai)" fill="#bebe00"/>
</g>
<g transform="matrix(.70764 0 0 .70764 493.41 610.1)" fill-rule="evenodd">
<path opacity=".17702" d="m265.95 15.878c4.2965 4.8489 5.0438 2.5727 5.1214 8.627v188.31c1.5551 8.4989 9.711 13.682 13.609 15.152-1.8456-3.01-5.0636-62.654-5.1344-67.439l-2.61-136.02c-1.6684-4.7193-1.8062-4.6532-3.8625-8.5715l-7.1214-0.0555z" fill="url(#v)"/>
<path opacity="0.91" stroke-linejoin="round" d="m307.5 24.505v181.71c0 6.5931 0 21.745-17.644 21.745-18.784 0-18.784-15.152-18.784-21.745v-181.72c0-4.7193 0-4.7193-5.1578-8.5715h47.271c-5.6846 3.8522-5.6846 3.8522-5.6846 8.5715z" fill-opacity=".24825" stroke="#000" stroke-linecap="round" stroke-width="1.063" fill="#d8d8d8"/>
</g>
</g>
<path d="m247.77 532.22v52.347c0 5.3358 0.1131 5.3412 40.021 5.3412 38.19 0 37.724-0.006 37.724-5.3412v-52.347h-77.746z" fill-opacity=".37647" fill="#008080"/>
<g>
<g transform="matrix(.59761 0 0 .59761 -43.556 75.761)" stroke-width="1.0542">
<g opacity="0.139" fill="#1b1b1b" transform="matrix(-1 0 0 1 1042.8 0)">
<g font-size="9.2453px" font-family="Sans">
<text style="word-spacing:0px;letter-spacing:0px" line-height="87.00000048%" xml:space="preserve" y="723.65991" x="518.4762"><tspan line-height="87.00000048%" y="723.65991" x="518.4762" fill="#1b1b1b">250</tspan></text>
<text style="word-spacing:0px;letter-spacing:0px" line-height="87.00000048%" xml:space="preserve" y="806.83295" x="518.13763"><tspan line-height="87.00000048%" y="806.83295" x="518.13763" fill="#1b1b1b">100</tspan></text>
<text style="word-spacing:0px;letter-spacing:0px" line-height="87.00000048%" xml:space="preserve" y="834.55731" x="518.44006"><tspan line-height="87.00000048%" y="834.55731" x="518.44006" fill="#1b1b1b">50</tspan></text>
</g>
<g stroke="#040404" stroke-linecap="round" stroke-width="1.0542">
<path stroke-linejoin="round" d="m515.51 721.02v110.21"/>
<g>
<path d="m509.79 803.84h5.7143"/>
<path d="m509.79 776.02h5.7143"/>
<path d="m509.79 748.2h5.7143"/>
<path d="m509.79 831.66h5.7143"/>
<path d="m509.79 720.22h5.7143"/>
</g>
</g>
<text style="word-spacing:0px;letter-spacing:0px" line-height="87.00000048%" xml:space="preserve" font-size="9.2453px" y="779.10858" x="518.13763" font-family="Sans"><tspan line-height="87.00000048%" y="779.10858" x="518.13763" fill="#1b1b1b">150</tspan></text>
<text style="word-spacing:0px;letter-spacing:0px" line-height="87.00000048%" xml:space="preserve" font-size="9.2453px" y="751.38422" x="518.4762" font-family="Sans"><tspan line-height="87.00000048%" y="751.38422" x="518.4762" fill="#1b1b1b">200</tspan></text>
</g>
<path stroke-linejoin="round" d="m553.83 860.59c63.904 0 63.136 0 63.136-8.9286v-152.17c0-5.9484 3.4654-9.5534 5.0125-12.257 0.77257-1.3502-0.37309-2.7168-5.0125-2.7168h-130.11s-3.219 0-5.8864 2.2401c-3.0956 2.5997-4.7823 4.8354-3.2229 6.6852 9.1093-1.8498 9.1093-1.2424 9.1093 3.4213v154.8c0 8.9286 0.19162 8.9286 66.971 8.9286z" fill-opacity=".37647" stroke="#000" stroke-width="1.0542" fill="#e0e0f6"/>
</g>
<g transform="matrix(.51248 -.0039182 -.0034088 -.58905 187.78 670.49)" fill="#a6a6a6">
<g fill="#a6a6a6" transform="translate(92.586,11.917)">
<g stroke-linejoin="round" stroke="#1e1e1e" fill="#a6a6a6">
<path d="m94.646 355.67-0.0085 9.7614 50.823-0.2529v8.2645l-50.823 0.2529v9.723l-10.21-0.0201-9.5675-8.2233 0.007-11.35 9.6927-8.103c1.6462-0.01 8.0628 0.0164 10.086-0.0527z" fill-rule="evenodd" stroke-width="1.2537"/>
<path d="m94.637 365.43h-3.8892v8.2645h3.8892" stroke-width="1.1394px"/>
</g>
</g>
</g>
<rect stroke-linejoin="bevel" rx="1.2639" ry=".13190" height="30.53" width="29.373" stroke="#000" stroke-linecap="round" y="430.38" x="140.52" stroke-width=".49302" fill="#797979"/>
<rect opacity=".67577" transform="scale(-1,1)" rx=".10866" ry=".015465" height="29.381" width="26.495" y="430.95" x="-169.37" fill="url(#u)"/>
<rect stroke-linejoin="bevel" rx="1.7038" ry="1.9806" height="8.2544" width="166.85" stroke="#000" stroke-linecap="round" y="441.13" x="106.14" stroke-width=".49302" fill="#a6a6a6"/>
</g>
<g transform="matrix(-.0035482 -.71405 .71405 -.0035482 -107.8 537.87)">
<g stroke-linejoin="round" stroke="#1e1e1e">
<path d="m137.85 355.67-16.315-0.12462c0.0949 13.854 0-5.5097 0 9.885h12.64v8.2645h-12.64v9.723l16.447-0.0628 6.3599-8.2446-0.007-11.35-6.4851-8.0816z" fill-rule="evenodd" stroke-width=".75970" fill="#797979"/>
<path stroke-width=".69045px" d="m134.18 365.43h3.7271v-9.885" fill="none"/>
<path stroke-width=".69045px" d="m134.18 373.7h3.7271v9.723" fill="none"/>
</g>
</g>
<g transform="matrix(.0047495 -.71404 .71404 .0047495 -117.63 582.1)">
<g transform="translate(92.586,11.917)">
<g stroke-linejoin="round" stroke="#1e1e1e">
<path d="m94.646 355.67-0.0085 9.7614h12.802v8.2645h-12.802v9.723l-3.7944-0.0628-6.3599-8.2446 0.007-11.35 6.4851-8.0816c1.6462-0.01 1.6478 0.0591 3.6707-0.01z" fill-rule="evenodd" stroke-width=".75970" fill="#797979"/>
<path stroke-width=".69045px" d="m94.637 365.43h-3.8892v8.2645h3.8892" fill="none"/>
</g>
</g>
</g>
<g stroke-linejoin="round" transform="matrix(-.89104 .0031728 -.0044275 -.63848 401.84 680.45)" stroke="#1e1e1e" fill="#a6a6a6">
<path d="m136.54 355.67-36.74-0.22611c0.0949 13.854 0-5.5097 0 9.885l34.375 0.10803v8.2645l-34.375-0.10803v9.723l36.872 0.0387 7.6694-8.2381-0.007-11.35-7.7945-8.0881z" fill-rule="evenodd" stroke-width=".77384"/>
<path d="m134.18 365.43 2.4177-0.007v-9.885" stroke-width=".86943px"/>
<path d="m134.18 373.7 2.4177-0.007v9.723" stroke-width=".86943px"/>
</g>
<path d="m356.76 209.12v11.95h1.42v-1.29c0.29 0.51 0.67 0.89 1.12 1.14s1 0.37 1.63 0.37c1.04 0 1.89-0.41 2.54-1.24s0.98-1.92 0.98-3.27c0-1.36-0.33-2.45-0.98-3.28s-1.5-1.24-2.54-1.24c-0.63 0-1.18 0.13-1.63 0.38-0.45 0.24-0.83 0.62-1.12 1.13v-4.65h-1.42zm25.79 0v11.95h1.42v-4.86c0-0.84 0.23-1.5 0.67-1.99s1.04-0.73 1.8-0.73c0.63 0 1.11 0.2 1.43 0.61 0.32 0.4 0.47 1.01 0.47 1.82v5.15h1.42v-5.19c0-1.19-0.26-2.09-0.76-2.7-0.51-0.61-1.26-0.92-2.24-0.92-0.6 0-1.13 0.13-1.59 0.38-0.46 0.26-0.86 0.65-1.2 1.16v-4.68h-1.42zm27.92 0v1.79h1.41v-1.79h-1.41zm10.48 0v11.95h1.42v-4.86c0-0.84 0.22-1.5 0.66-1.99s1.04-0.73 1.8-0.73c0.64 0 1.11 0.2 1.43 0.61 0.32 0.4 0.48 1.01 0.48 1.82v5.15h1.41v-5.19c0-1.19-0.25-2.09-0.76-2.7s-1.26-0.92-2.24-0.92c-0.6 0-1.13 0.13-1.59 0.38-0.46 0.26-0.85 0.65-1.19 1.16v-4.68h-1.42zm-116.61 0.48l2.87 11.47h1.96l2.44-9.95 2.42 9.95h1.95l2.88-11.47h-1.58l-2.4 9.69-2.41-9.69h-1.75l-2.4 9.69-2.41-9.69h-1.57zm25.11 0.43v2.44h-1.03v1.1h1.03v4.66c0 1.08 0.21 1.82 0.62 2.23 0.42 0.41 1.17 0.61 2.26 0.61h1.45v-1.19h-1.45c-0.59 0-0.98-0.09-1.17-0.29s-0.29-0.65-0.29-1.36v-4.66h2.91v-1.1h-2.91v-2.44h-1.42zm46.96 0v2.44h-1.03v1.1h1.03v4.66c0 1.08 0.21 1.82 0.63 2.23 0.41 0.41 1.16 0.61 2.25 0.61h1.45v-1.19h-1.45c-0.59 0-0.98-0.09-1.17-0.29s-0.29-0.65-0.29-1.36v-4.66h2.91v-1.1h-2.91v-2.44h-1.42zm38.39 0v2.44h-1.03v1.1h1.03v4.66c0 1.08 0.21 1.82 0.63 2.23 0.41 0.41 1.16 0.61 2.25 0.61h1.45v-1.19h-1.45c-0.59 0-0.98-0.09-1.17-0.29s-0.29-0.65-0.29-1.36v-4.66h2.91v-1.1h-2.91v-2.44h-1.42zm-91.95 2.23c-0.46 0-0.94 0.05-1.42 0.15-0.49 0.1-0.99 0.25-1.51 0.45v1.31c0.43-0.24 0.88-0.42 1.35-0.54 0.46-0.11 0.94-0.17 1.43-0.17 0.78 0 1.38 0.18 1.8 0.54 0.43 0.35 0.64 0.85 0.64 1.5v0.14h-1.98c-1.28 0-2.25 0.25-2.9 0.74s-0.97 1.22-0.97 2.18c0 0.83 0.26 1.5 0.78 1.99s1.22 0.74 2.1 0.74c0.7 0 1.29-0.12 1.77-0.37s0.88-0.64 1.2-1.16v1.31h1.42v-4.91c0-1.31-0.31-2.29-0.93-2.93-0.61-0.65-1.54-0.97-2.78-0.97zm16.4 0c-1.29 0-2.32 0.41-3.08 1.24s-1.14 1.94-1.14 3.35c0 1.36 0.4 2.44 1.2 3.24 0.81 0.8 1.89 1.2 3.26 1.2 0.55 0 1.09-0.06 1.63-0.17 0.53-0.11 1.05-0.27 1.55-0.49v-1.34c-0.5 0.27-1 0.47-1.52 0.6-0.5 0.14-1.03 0.2-1.57 0.2-0.94 0-1.67-0.25-2.2-0.76-0.52-0.51-0.81-1.25-0.87-2.22h6.49v-0.7c0-1.28-0.33-2.28-1.01-3.03-0.67-0.74-1.58-1.12-2.74-1.12zm10.33 0c-0.68 0-1.25 0.13-1.73 0.38-0.48 0.26-0.86 0.64-1.16 1.16v-1.33h-1.42v8.6h1.42v-4.53c0-0.98 0.21-1.72 0.64-2.24s1.04-0.78 1.84-0.78c0.23 0 0.43 0.02 0.61 0.07 0.19 0.04 0.37 0.11 0.53 0.2l-0.01-1.45c-0.14-0.03-0.28-0.05-0.39-0.06-0.12-0.01-0.23-0.02-0.33-0.02zm20.23 0c-0.46 0-0.94 0.05-1.42 0.15-0.49 0.1-0.99 0.25-1.51 0.45v1.31c0.43-0.24 0.88-0.42 1.35-0.54 0.46-0.11 0.94-0.17 1.43-0.17 0.78 0 1.37 0.18 1.8 0.54 0.43 0.35 0.65 0.85 0.65 1.5v0.14h-1.99c-1.28 0-2.25 0.25-2.9 0.74-0.64 0.49-0.97 1.22-0.97 2.18 0 0.83 0.26 1.5 0.78 1.99s1.22 0.74 2.1 0.74c0.7 0 1.29-0.12 1.77-0.37s0.88-0.64 1.21-1.16v1.31h1.41v-4.91c0-1.31-0.31-2.29-0.92-2.93-0.62-0.65-1.55-0.97-2.79-0.97zm26.97 0.21l2.25 8.6h1.66l1.86-7.05 1.85 7.05h1.67l2.25-8.6h-1.42l-1.76 6.71-1.76-6.71h-1.67l-1.75 6.71-1.77-6.71h-1.41zm13.69 0v8.6h1.41v-8.6h-1.41zm-49.89 0.97c0.75 0 1.33 0.3 1.76 0.89s0.64 1.41 0.64 2.45c0 1.03-0.21 1.85-0.64 2.44s-1.01 0.89-1.76 0.89-1.34-0.3-1.77-0.89c-0.42-0.59-0.63-1.41-0.63-2.44 0-1.04 0.21-1.86 0.63-2.45 0.43-0.59 1.02-0.89 1.77-0.89zm-21.32 0.02c0.7 0 1.26 0.23 1.68 0.69s0.64 1.08 0.65 1.85l-5.04 0.01c0.08-0.81 0.35-1.44 0.82-1.88 0.47-0.45 1.11-0.67 1.89-0.67zm-15.52 3.28h1.4v0.32c0 0.92-0.23 1.66-0.71 2.22-0.47 0.55-1.1 0.83-1.88 0.83-0.57 0-1.02-0.15-1.35-0.44-0.33-0.3-0.49-0.7-0.49-1.2 0-0.63 0.22-1.07 0.66-1.33s1.23-0.4 2.37-0.4zm46.96 0h1.41v0.32c0 0.92-0.24 1.66-0.72 2.22-0.47 0.55-1.1 0.83-1.88 0.83-0.57 0-1.02-0.15-1.35-0.44-0.33-0.3-0.49-0.7-0.49-1.2 0-0.63 0.22-1.07 0.66-1.33s1.23-0.4 2.37-0.4zm-65.42 12.94v2.44h-1.04v1.1h1.04v4.67c0 1.08 0.21 1.82 0.62 2.23 0.42 0.4 1.17 0.6 2.26 0.6h1.45v-1.18h-1.45c-0.59 0-0.98-0.1-1.18-0.3-0.19-0.2-0.28-0.65-0.28-1.35v-4.67h2.91v-1.1h-2.91v-2.44h-1.42zm66.96 0v2.44h-1.04v1.1h1.04v4.67c0 1.08 0.2 1.82 0.62 2.23 0.41 0.4 1.16 0.6 2.26 0.6h1.45v-1.18h-1.45c-0.59 0-0.99-0.1-1.18-0.3s-0.28-0.65-0.28-1.35v-4.67h2.91v-1.1h-2.91v-2.44h-1.42zm-57.16 2.24c-1.29 0-2.32 0.41-3.08 1.24s-1.14 1.94-1.14 3.35c0 1.36 0.4 2.44 1.2 3.24s1.89 1.2 3.26 1.2c0.55 0 1.09-0.06 1.62-0.17 0.54-0.12 1.06-0.28 1.56-0.49v-1.34c-0.5 0.27-1.01 0.47-1.52 0.6-0.5 0.13-1.03 0.2-1.57 0.2-0.94 0-1.67-0.25-2.2-0.76-0.52-0.51-0.81-1.26-0.87-2.23h6.49v-0.69c0-1.28-0.34-2.29-1.01-3.03-0.67-0.75-1.59-1.12-2.74-1.12zm10.2 0c-0.62 0-1.15 0.12-1.6 0.37s-0.84 0.64-1.16 1.17v-1.34h-1.42v8.6h1.42v-4.86c0-0.83 0.21-1.49 0.64-1.98 0.42-0.49 0.99-0.73 1.72-0.73 0.6 0 1.05 0.19 1.35 0.59 0.29 0.4 0.43 1.01 0.43 1.84v5.14h1.42v-4.86c0-0.84 0.22-1.5 0.64-1.98 0.43-0.49 1.01-0.73 1.74-0.73 0.6 0 1.04 0.19 1.33 0.59s0.44 1.02 0.44 1.84v5.14h1.42v-5.19c0-1.15-0.24-2.04-0.73-2.67-0.48-0.63-1.17-0.94-2.07-0.94-0.67 0-1.25 0.15-1.74 0.45s-0.91 0.77-1.26 1.41c-0.21-0.61-0.54-1.07-0.98-1.39-0.43-0.31-0.96-0.47-1.59-0.47zm15.31 0c-0.63 0-1.17 0.12-1.63 0.37-0.45 0.25-0.82 0.63-1.12 1.14v-1.31h-1.42v11.88h1.42v-4.57c0.3 0.52 0.67 0.9 1.12 1.15 0.46 0.24 1 0.37 1.63 0.37 1.05 0 1.89-0.42 2.54-1.25 0.66-0.83 0.99-1.92 0.99-3.27s-0.33-2.44-0.99-3.27c-0.65-0.83-1.49-1.24-2.54-1.24zm9.47 0c-1.29 0-2.32 0.41-3.08 1.24s-1.13 1.94-1.13 3.35c0 1.36 0.39 2.44 1.19 3.24 0.81 0.8 1.89 1.2 3.27 1.2 0.54 0 1.08-0.06 1.62-0.17 0.53-0.12 1.05-0.28 1.55-0.49v-1.34c-0.5 0.27-1 0.47-1.52 0.6-0.5 0.13-1.03 0.2-1.57 0.2-0.94 0-1.67-0.25-2.19-0.76-0.53-0.51-0.82-1.26-0.88-2.23h6.49v-0.69c0-1.28-0.33-2.29-1.01-3.03-0.67-0.75-1.58-1.12-2.74-1.12zm10.33 0c-0.68 0-1.25 0.12-1.73 0.38-0.48 0.25-0.86 0.64-1.16 1.16v-1.34h-1.42v8.6h1.42v-4.53c0-0.97 0.21-1.71 0.64-2.23s1.04-0.78 1.84-0.78c0.23 0 0.43 0.02 0.62 0.07 0.19 0.04 0.36 0.1 0.52 0.2l-0.01-1.46c-0.14-0.02-0.27-0.04-0.39-0.05-0.12-0.02-0.23-0.02-0.33-0.02zm5.24 0c-0.46 0-0.93 0.05-1.42 0.15s-0.99 0.25-1.5 0.45v1.3c0.43-0.23 0.87-0.41 1.34-0.53s0.94-0.17 1.44-0.17c0.77 0 1.37 0.17 1.79 0.53 0.43 0.36 0.65 0.86 0.65 1.51v0.13h-1.98c-1.29 0-2.25 0.25-2.91 0.74-0.64 0.49-0.96 1.22-0.96 2.19 0 0.83 0.25 1.49 0.77 1.99 0.52 0.49 1.23 0.74 2.11 0.74 0.69 0 1.28-0.13 1.76-0.37 0.48-0.25 0.89-0.64 1.21-1.16v1.3h1.41v-4.9c0-1.31-0.31-2.29-0.92-2.94-0.61-0.64-1.54-0.96-2.79-0.96zm27.05 0c-0.69 0-1.26 0.12-1.74 0.38-0.48 0.25-0.86 0.64-1.16 1.16v-1.34h-1.42v8.6h1.42v-4.53c0-0.97 0.21-1.71 0.64-2.23s1.04-0.78 1.84-0.78c0.22 0 0.43 0.02 0.62 0.07 0.18 0.04 0.36 0.1 0.52 0.2l-0.01-1.46c-0.14-0.02-0.27-0.04-0.39-0.05-0.12-0.02-0.23-0.02-0.32-0.02zm5.48 0c-1.29 0-2.32 0.41-3.08 1.24s-1.14 1.94-1.14 3.35c0 1.36 0.4 2.44 1.2 3.24s1.89 1.2 3.26 1.2c0.55 0 1.09-0.06 1.62-0.17 0.54-0.12 1.06-0.28 1.56-0.49v-1.34c-0.5 0.27-1.01 0.47-1.52 0.6-0.5 0.13-1.03 0.2-1.57 0.2-0.94 0-1.67-0.25-2.2-0.76-0.52-0.51-0.81-1.26-0.87-2.23h6.49v-0.69c0-1.28-0.34-2.29-1.01-3.03-0.67-0.75-1.58-1.12-2.74-1.12zm-19.87 0.2v5.21c0 1.18 0.25 2.08 0.76 2.7 0.52 0.61 1.26 0.92 2.25 0.92 0.6 0 1.13-0.13 1.58-0.38 0.45-0.26 0.85-0.64 1.2-1.17v1.32h1.41v-8.6h-1.41v4.88c0 0.84-0.23 1.5-0.67 1.99-0.44 0.48-1.04 0.73-1.81 0.73-0.63 0-1.11-0.2-1.43-0.61-0.31-0.41-0.47-1.02-0.47-1.83v-5.16h-1.41zm-38.04 0.98c0.75 0 1.33 0.3 1.76 0.89s0.64 1.4 0.64 2.44-0.21 1.86-0.64 2.45-1.01 0.88-1.76 0.88-1.34-0.29-1.77-0.88c-0.42-0.59-0.64-1.41-0.64-2.45s0.22-1.85 0.64-2.44c0.43-0.59 1.02-0.89 1.77-0.89zm-25.16 0.02c0.7 0 1.26 0.23 1.68 0.69s0.64 1.07 0.65 1.85h-5.04c0.07-0.8 0.35-1.43 0.82-1.88 0.47-0.44 1.11-0.66 1.89-0.66zm34.99 0c0.69 0 1.25 0.23 1.67 0.69s0.64 1.07 0.65 1.85h-5.03c0.07-0.8 0.34-1.43 0.81-1.88 0.48-0.44 1.11-0.66 1.9-0.66zm48.09 0c0.7 0 1.26 0.23 1.68 0.69s0.64 1.07 0.65 1.85h-5.04c0.07-0.8 0.34-1.43 0.82-1.88 0.47-0.44 1.1-0.66 1.89-0.66zm-31.65 3.28h1.41v0.32c0 0.92-0.24 1.66-0.72 2.22-0.47 0.55-1.09 0.82-1.88 0.82-0.57 0-1.02-0.14-1.35-0.43-0.33-0.3-0.49-0.7-0.49-1.2 0-0.63 0.22-1.08 0.66-1.34s1.23-0.39 2.37-0.39zm-53.02 12.03v11.95h1.42v-11.95h-1.42zm26.85 0v11.95h1.41v-11.95h-1.41zm18.67 0v1.79h1.41v-1.79h-1.41zm56.67 0v1.79h1.41v-1.79h-1.41zm-107.65 3.14c-1.06 0-1.87 0.22-2.44 0.66-0.58 0.44-0.87 1.07-0.87 1.88 0 0.66 0.2 1.19 0.59 1.57s1.02 0.66 1.89 0.85l0.5 0.11c0.87 0.19 1.44 0.39 1.69 0.59 0.27 0.21 0.39 0.5 0.39 0.89 0 0.41-0.17 0.73-0.53 0.96s-0.87 0.34-1.54 0.34c-0.49 0-1-0.07-1.5-0.2-0.51-0.14-1.02-0.34-1.55-0.61v1.46c0.56 0.18 1.08 0.31 1.58 0.39 0.5 0.1 0.98 0.14 1.44 0.14 1.11 0 1.98-0.23 2.6-0.7 0.64-0.46 0.96-1.09 0.96-1.89 0-0.7-0.22-1.25-0.64-1.64s-1.13-0.7-2.14-0.91l-0.48-0.11c-0.76-0.17-1.26-0.34-1.51-0.53s-0.38-0.45-0.38-0.77c0-0.43 0.17-0.76 0.52-0.97 0.36-0.22 0.88-0.32 1.59-0.32 0.46 0 0.9 0.05 1.33 0.15s0.85 0.26 1.25 0.46v-1.33c-0.39-0.16-0.82-0.27-1.28-0.35s-0.95-0.12-1.47-0.12zm13.16 0c-1.24 0-2.2 0.4-2.91 1.2-0.69 0.8-1.04 1.91-1.04 3.32s0.35 2.51 1.04 3.32c0.71 0.79 1.67 1.19 2.91 1.19 1.23 0 2.19-0.4 2.89-1.19 0.7-0.81 1.05-1.91 1.05-3.32s-0.35-2.52-1.05-3.32-1.66-1.2-2.89-1.2zm46.33 0c-0.6 0-1.13 0.13-1.59 0.39-0.46 0.25-0.85 0.64-1.19 1.16v-1.34h-1.42v8.6h1.42v-4.86c0-0.84 0.22-1.5 0.66-1.99s1.04-0.73 1.8-0.73c0.64 0 1.12 0.2 1.43 0.61 0.32 0.4 0.48 1.01 0.48 1.83v5.14h1.41v-5.19c0-1.19-0.25-2.08-0.76-2.69-0.51-0.62-1.25-0.93-2.24-0.93zm9.54 0c-1.34 0-2.39 0.41-3.17 1.21-0.77 0.8-1.15 1.91-1.15 3.31 0 1.38 0.38 2.48 1.14 3.29 0.77 0.82 1.8 1.22 3.09 1.22 0.48 0 0.92-0.04 1.34-0.14 0.43-0.09 0.84-0.22 1.23-0.41v-1.3c-0.4 0.22-0.8 0.38-1.2 0.49s-0.81 0.17-1.22 0.17c-0.91 0-1.62-0.29-2.13-0.87s-0.76-1.4-0.76-2.45 0.25-1.87 0.76-2.44c0.51-0.59 1.22-0.88 2.13-0.88 0.41 0 0.82 0.06 1.22 0.17s0.8 0.27 1.2 0.49v-1.32c-0.39-0.18-0.79-0.31-1.2-0.4-0.42-0.09-0.84-0.14-1.28-0.14zm9.22 0c-0.68 0-1.26 0.13-1.74 0.39-0.48 0.25-0.86 0.64-1.16 1.16v-1.34h-1.42v8.6h1.42v-4.53c0-0.97 0.21-1.72 0.64-2.23 0.43-0.52 1.04-0.79 1.84-0.79 0.23 0 0.43 0.03 0.62 0.07s0.36 0.11 0.52 0.2l-0.01-1.45c-0.14-0.03-0.27-0.04-0.39-0.05-0.12-0.02-0.23-0.03-0.32-0.03zm5.48 0c-1.29 0-2.32 0.42-3.08 1.25-0.76 0.82-1.14 1.94-1.14 3.35 0 1.36 0.4 2.44 1.2 3.24 0.81 0.79 1.89 1.19 3.27 1.19 0.54 0 1.08-0.05 1.61-0.16 0.54-0.12 1.06-0.28 1.56-0.5v-1.33c-0.5 0.26-1 0.46-1.52 0.6-0.5 0.13-1.03 0.2-1.57 0.2-0.94 0-1.67-0.26-2.2-0.76-0.52-0.52-0.81-1.26-0.87-2.23h6.49v-0.69c0-1.28-0.33-2.29-1.01-3.03-0.67-0.75-1.58-1.13-2.74-1.13zm9.09 0c-0.46 0-0.93 0.05-1.42 0.16-0.49 0.09-0.99 0.24-1.5 0.44v1.31c0.43-0.24 0.87-0.41 1.34-0.53s0.94-0.18 1.43-0.18c0.78 0 1.38 0.18 1.8 0.54 0.43 0.35 0.65 0.85 0.65 1.5v0.14h-1.98c-1.29 0-2.26 0.25-2.91 0.74-0.64 0.49-0.97 1.22-0.97 2.19 0 0.83 0.26 1.49 0.78 1.99 0.52 0.49 1.22 0.73 2.1 0.73 0.7 0 1.29-0.12 1.77-0.37s0.88-0.63 1.21-1.15v1.3h1.41v-4.91c0-1.31-0.31-2.28-0.92-2.93-0.62-0.64-1.55-0.97-2.79-0.97zm9.36 0c-1.05 0-1.87 0.22-2.44 0.66s-0.86 1.07-0.86 1.88c0 0.66 0.19 1.19 0.58 1.57s1.02 0.66 1.9 0.85l0.49 0.11c0.88 0.19 1.44 0.39 1.7 0.59 0.26 0.21 0.39 0.5 0.39 0.89 0 0.41-0.18 0.73-0.54 0.96s-0.87 0.34-1.53 0.34c-0.5 0-1-0.07-1.51-0.2-0.51-0.14-1.02-0.34-1.54-0.61v1.46c0.55 0.18 1.08 0.31 1.57 0.39 0.5 0.1 0.98 0.14 1.45 0.14 1.1 0 1.97-0.23 2.6-0.7 0.63-0.46 0.95-1.09 0.95-1.89 0-0.7-0.21-1.25-0.64-1.64-0.42-0.39-1.13-0.7-2.13-0.91l-0.49-0.11c-0.75-0.17-1.26-0.34-1.51-0.53s-0.37-0.45-0.37-0.77c0-0.43 0.17-0.76 0.52-0.97 0.35-0.22 0.88-0.32 1.58-0.32 0.46 0 0.9 0.05 1.33 0.15s0.85 0.26 1.25 0.46v-1.33c-0.39-0.16-0.81-0.27-1.27-0.35-0.47-0.08-0.96-0.12-1.48-0.12zm13.98 0c-0.6 0-1.13 0.13-1.59 0.39-0.46 0.25-0.86 0.64-1.19 1.16v-1.34h-1.43v8.6h1.43v-4.86c0-0.84 0.22-1.5 0.66-1.99s1.04-0.73 1.8-0.73c0.64 0 1.11 0.2 1.43 0.61 0.32 0.4 0.47 1.01 0.47 1.83v5.14h1.42v-5.19c0-1.19-0.26-2.08-0.76-2.69-0.51-0.62-1.26-0.93-2.24-0.93zm8.73 0c-1.05 0-1.9 0.41-2.55 1.21-0.64 0.8-0.96 1.87-0.96 3.2s0.32 2.39 0.96 3.2c0.65 0.8 1.5 1.2 2.55 1.2 0.64 0 1.18-0.13 1.64-0.38 0.45-0.25 0.83-0.62 1.12-1.13v0.7c0 0.97-0.23 1.7-0.69 2.19-0.46 0.48-1.16 0.72-2.08 0.72-0.42 0-0.83-0.05-1.24-0.16-0.4-0.1-0.81-0.27-1.23-0.5v1.38c0.42 0.15 0.84 0.27 1.28 0.34s0.91 0.11 1.41 0.11c1.34 0 2.34-0.36 2.99-1.07 0.65-0.72 0.97-1.8 0.97-3.27v-7.53h-1.41v1.31c-0.29-0.51-0.67-0.89-1.12-1.14-0.46-0.25-1-0.38-1.64-0.38zm-106.27 0.21l2.25 8.6h1.66l1.86-7.05 1.85 7.05h1.67l2.25-8.6h-1.41l-1.76 6.71-1.77-6.71h-1.67l-1.75 6.71-1.77-6.71h-1.41zm17.04 0l3.47 8.46-0.25 0.65c-0.26 0.68-0.5 1.12-0.71 1.3-0.22 0.19-0.52 0.28-0.91 0.28h-0.83v1.18h1.13c0.63 0 1.14-0.15 1.52-0.47 0.38-0.31 0.77-0.98 1.17-2l3.77-9.4h-1.49l-2.69 6.73-2.69-6.73h-1.49zm15.32 0v8.6h1.41v-8.6h-1.41zm56.67 0v8.6h1.41v-8.6h-1.41zm17.59 0.98c0.76 0 1.35 0.28 1.77 0.84 0.43 0.56 0.64 1.36 0.64 2.38s-0.21 1.81-0.64 2.37c-0.42 0.57-1.01 0.85-1.77 0.85s-1.35-0.28-1.78-0.85c-0.42-0.56-0.62-1.35-0.62-2.37s0.2-1.82 0.62-2.38c0.43-0.56 1.02-0.84 1.78-0.84zm-112.08 0.01c0.75 0 1.35 0.3 1.79 0.9 0.44 0.59 0.66 1.4 0.66 2.42s-0.22 1.83-0.66 2.43c-0.44 0.59-1.04 0.89-1.79 0.89-0.77 0-1.37-0.3-1.81-0.89-0.43-0.59-0.65-1.4-0.65-2.43s0.22-1.84 0.66-2.43 1.04-0.89 1.8-0.89zm70.59 0c0.69 0 1.25 0.23 1.67 0.69s0.64 1.08 0.65 1.85l-5.04 0.01c0.08-0.81 0.35-1.44 0.82-1.88 0.47-0.45 1.11-0.67 1.9-0.67zm9.96 3.29h1.41v0.31c0 0.92-0.24 1.66-0.72 2.22-0.47 0.55-1.1 0.83-1.88 0.83-0.57 0-1.02-0.14-1.35-0.44-0.33-0.29-0.49-0.69-0.49-1.19 0-0.63 0.22-1.08 0.66-1.34s1.23-0.39 2.37-0.39zm38.62 2.37v1.32l-0.63 2.46h0.99l1.26-2.46v-1.32h-1.62z" transform="translate(105.89 335.23)"/>
<path style="color:#000000" marker-end="url(#Arrow1Mend)" d="m489.64 559.62h-164.57" stroke="#000" marker="none" stroke-width="1.3805" fill="none"/>
<path style="color:#000000" marker-end="url(#Arrow1Mend)" d="m466.15 680.51h-300.78" stroke="#000" marker="none" stroke-width="1.38" fill="none"/>
<path d="m359.87 329.32v4.66c-0.3-0.52-0.67-0.89-1.13-1.14-0.45-0.25-0.99-0.38-1.63-0.38-1.04 0-1.88 0.42-2.54 1.25-0.65 0.83-0.97 1.92-0.97 3.27s0.32 2.44 0.97 3.27c0.66 0.83 1.5 1.24 2.54 1.24 0.64 0 1.18-0.12 1.63-0.37 0.46-0.25 0.83-0.63 1.13-1.14v1.29h1.41v-11.95h-1.41zm34.61 0v4.66c-0.29-0.52-0.67-0.89-1.12-1.14s-1-0.38-1.63-0.38c-1.04 0-1.89 0.42-2.54 1.25s-0.98 1.92-0.98 3.27 0.33 2.44 0.98 3.27 1.5 1.24 2.54 1.24c0.63 0 1.18-0.12 1.63-0.37s0.83-0.63 1.12-1.14v1.29h1.42v-11.95h-1.42zm17.99 0v11.95h1.42v-11.95h-1.42zm44.27 0v11.95h1.42v-4.86c0-0.84 0.22-1.5 0.66-1.99 0.44-0.48 1.04-0.73 1.8-0.73 0.64 0 1.12 0.2 1.43 0.61 0.32 0.4 0.48 1.01 0.48 1.83v5.14h1.41v-5.19c0-1.19-0.25-2.09-0.76-2.7s-1.25-0.92-2.24-0.92c-0.6 0-1.13 0.13-1.59 0.39-0.45 0.25-0.85 0.64-1.19 1.16v-4.69h-1.42zm19.65 0v11.95h1.41v-11.95h-1.41zm10.02 0v4.66c-0.3-0.52-0.67-0.89-1.13-1.14-0.45-0.25-0.99-0.38-1.63-0.38-1.04 0-1.88 0.42-2.54 1.25-0.65 0.83-0.97 1.92-0.97 3.27s0.32 2.44 0.97 3.27c0.66 0.83 1.5 1.24 2.54 1.24 0.64 0 1.18-0.12 1.63-0.37 0.46-0.25 0.83-0.63 1.13-1.14v1.29h1.41v-11.95h-1.41zm4.32 0v1.79h1.41v-1.79h-1.41zm-168.72 0.28c-1.26 0-2.24 0.29-2.96 0.87-0.71 0.59-1.07 1.39-1.07 2.4 0 0.88 0.26 1.56 0.78 2.05s1.35 0.85 2.51 1.08l0.95 0.19c0.79 0.16 1.35 0.39 1.69 0.71 0.35 0.32 0.53 0.76 0.53 1.32 0 0.65-0.25 1.14-0.73 1.49s-1.16 0.52-2.05 0.52c-0.58 0-1.18-0.09-1.78-0.27-0.6-0.17-1.22-0.44-1.85-0.79v1.59c0.66 0.24 1.29 0.43 1.9 0.55s1.19 0.18 1.73 0.18c1.44 0 2.53-0.28 3.27-0.86 0.75-0.57 1.12-1.41 1.12-2.52 0-0.93-0.27-1.68-0.82-2.23-0.55-0.56-1.41-0.95-2.56-1.17l-0.94-0.19c-0.85-0.16-1.43-0.36-1.73-0.62-0.31-0.26-0.46-0.65-0.46-1.15 0-0.61 0.23-1.07 0.69-1.4s1.11-0.49 1.96-0.49c0.48 0 0.99 0.07 1.51 0.21 0.52 0.13 1.07 0.34 1.66 0.63v-1.52c-0.58-0.19-1.15-0.34-1.71-0.43-0.56-0.1-1.1-0.15-1.64-0.15zm6.38 0.63v2.44h-1.04v1.1h1.04v4.67c0 1.07 0.21 1.81 0.62 2.22 0.42 0.41 1.17 0.61 2.26 0.61h1.45v-1.18h-1.45c-0.59 0-0.98-0.1-1.18-0.3-0.19-0.2-0.28-0.65-0.28-1.35v-4.67h2.91v-1.1h-2.91v-2.44h-1.42zm9.21 2.23c-0.46 0-0.93 0.05-1.42 0.16-0.48 0.09-0.99 0.24-1.5 0.44v1.31c0.43-0.24 0.88-0.41 1.34-0.53 0.47-0.12 0.95-0.18 1.44-0.18 0.77 0 1.37 0.18 1.79 0.54 0.43 0.35 0.65 0.85 0.65 1.5v0.14h-1.98c-1.29 0-2.25 0.25-2.9 0.74s-0.97 1.22-0.97 2.19c0 0.83 0.26 1.49 0.77 1.99 0.53 0.49 1.23 0.73 2.11 0.73 0.69 0 1.28-0.12 1.76-0.37s0.89-0.63 1.21-1.16v1.31h1.41v-4.9c0-1.32-0.31-2.29-0.92-2.94-0.61-0.64-1.54-0.97-2.79-0.97zm10.78 0c-0.6 0-1.13 0.13-1.59 0.39-0.46 0.25-0.86 0.64-1.19 1.16v-1.34h-1.42v8.6h1.42v-4.86c0-0.84 0.22-1.5 0.66-1.99 0.44-0.48 1.04-0.73 1.8-0.73 0.64 0 1.11 0.2 1.43 0.61 0.32 0.4 0.47 1.01 0.47 1.83v5.14h1.42v-5.19c0-1.19-0.26-2.09-0.76-2.7-0.51-0.61-1.26-0.92-2.24-0.92zm23.84 0c-0.46 0-0.94 0.05-1.42 0.16-0.49 0.09-0.99 0.24-1.51 0.44v1.31c0.43-0.24 0.88-0.41 1.34-0.53 0.47-0.12 0.95-0.18 1.44-0.18 0.78 0 1.37 0.18 1.8 0.54 0.43 0.35 0.64 0.85 0.64 1.5v0.14h-1.98c-1.28 0-2.25 0.25-2.9 0.74s-0.97 1.22-0.97 2.19c0 0.83 0.26 1.49 0.78 1.99 0.52 0.49 1.22 0.73 2.1 0.73 0.7 0 1.29-0.12 1.77-0.37s0.88-0.63 1.2-1.16v1.31h1.42v-4.9c0-1.32-0.31-2.29-0.93-2.94-0.61-0.64-1.54-0.97-2.78-0.97zm10.77 0c-0.6 0-1.13 0.13-1.59 0.39-0.46 0.25-0.85 0.64-1.19 1.16v-1.34h-1.42v8.6h1.42v-4.86c0-0.84 0.22-1.5 0.66-1.99 0.44-0.48 1.04-0.73 1.81-0.73 0.63 0 1.11 0.2 1.42 0.61 0.32 0.4 0.48 1.01 0.48 1.83v5.14h1.41v-5.19c0-1.19-0.25-2.09-0.76-2.7-0.5-0.61-1.25-0.92-2.24-0.92zm24.53 0c-1.34 0-2.4 0.41-3.17 1.21s-1.15 1.91-1.15 3.31c0 1.38 0.38 2.48 1.14 3.29 0.77 0.82 1.79 1.22 3.09 1.22 0.48 0 0.92-0.04 1.34-0.13 0.43-0.1 0.84-0.23 1.23-0.42v-1.31c-0.4 0.22-0.8 0.39-1.2 0.5s-0.81 0.16-1.22 0.16c-0.91 0-1.62-0.28-2.13-0.86-0.51-0.59-0.76-1.4-0.76-2.45s0.25-1.86 0.76-2.44c0.51-0.59 1.22-0.88 2.13-0.88 0.41 0 0.82 0.06 1.22 0.17s0.8 0.27 1.2 0.49v-1.32c-0.39-0.18-0.79-0.31-1.2-0.4-0.42-0.09-0.84-0.14-1.28-0.14zm12.33 0c-0.46 0-0.93 0.05-1.42 0.16-0.48 0.09-0.99 0.24-1.5 0.44v1.31c0.43-0.24 0.88-0.41 1.34-0.53 0.47-0.12 0.95-0.18 1.44-0.18 0.77 0 1.37 0.18 1.79 0.54 0.43 0.35 0.65 0.85 0.65 1.5v0.14h-1.98c-1.29 0-2.25 0.25-2.9 0.74s-0.97 1.22-0.97 2.19c0 0.83 0.26 1.49 0.77 1.99 0.53 0.49 1.23 0.73 2.11 0.73 0.69 0 1.28-0.12 1.76-0.37s0.89-0.63 1.21-1.16v1.31h1.41v-4.9c0-1.32-0.31-2.29-0.92-2.94-0.61-0.64-1.54-0.97-2.79-0.97zm10.76 0c-0.62 0-1.15 0.13-1.6 0.38s-0.84 0.64-1.16 1.17v-1.34h-1.42v8.6h1.42v-4.86c0-0.83 0.21-1.49 0.63-1.98 0.43-0.49 1-0.74 1.72-0.74 0.61 0 1.06 0.2 1.35 0.6 0.3 0.4 0.44 1.01 0.44 1.84v5.14h1.42v-4.86c0-0.84 0.22-1.5 0.64-1.99 0.43-0.48 1.01-0.73 1.74-0.73 0.6 0 1.04 0.2 1.33 0.6s0.44 1.01 0.44 1.84v5.14h1.42v-5.19c0-1.16-0.24-2.05-0.73-2.67-0.48-0.63-1.18-0.95-2.07-0.95-0.67 0-1.25 0.15-1.74 0.46-0.49 0.3-0.91 0.77-1.26 1.4-0.21-0.6-0.54-1.06-0.98-1.38-0.43-0.32-0.96-0.48-1.59-0.48zm15.31 0c-0.63 0-1.17 0.13-1.63 0.38-0.45 0.25-0.82 0.62-1.12 1.14v-1.31h-1.42v11.87h1.42v-4.56c0.3 0.51 0.67 0.89 1.12 1.14 0.46 0.25 1 0.37 1.63 0.37 1.05 0 1.89-0.41 2.54-1.24 0.66-0.83 0.99-1.92 0.99-3.27s-0.33-2.44-0.99-3.27c-0.65-0.83-1.49-1.25-2.54-1.25zm24.19 0c-1.23 0-2.2 0.4-2.9 1.2s-1.05 1.91-1.05 3.32 0.35 2.51 1.05 3.31 1.67 1.2 2.9 1.2 2.19-0.4 2.89-1.2c0.71-0.8 1.05-1.9 1.05-3.31s-0.34-2.52-1.05-3.32c-0.7-0.8-1.66-1.2-2.89-1.2zm29.13 0c-0.6 0-1.13 0.13-1.59 0.39-0.46 0.25-0.85 0.64-1.19 1.16v-1.34h-1.42v8.6h1.42v-4.86c0-0.84 0.22-1.5 0.66-1.99 0.44-0.48 1.04-0.73 1.81-0.73 0.63 0 1.11 0.2 1.42 0.61 0.32 0.4 0.48 1.01 0.48 1.83v5.14h1.41v-5.19c0-1.19-0.25-2.09-0.76-2.7-0.5-0.61-1.25-0.92-2.24-0.92zm8.74 0c-1.06 0-1.91 0.41-2.55 1.21-0.65 0.8-0.97 1.87-0.97 3.2s0.32 2.39 0.97 3.19c0.64 0.81 1.49 1.21 2.55 1.21 0.63 0 1.18-0.12 1.63-0.38 0.46-0.25 0.83-0.63 1.12-1.13v0.7c0 0.97-0.23 1.7-0.69 2.18-0.46 0.49-1.15 0.74-2.08 0.74-0.42 0-0.83-0.06-1.23-0.17-0.41-0.1-0.82-0.27-1.23-0.5v1.38c0.41 0.15 0.84 0.26 1.28 0.34 0.44 0.07 0.91 0.11 1.41 0.11 1.34 0 2.33-0.36 2.98-1.07s0.98-1.8 0.98-3.27v-7.53h-1.42v1.31c-0.29-0.51-0.66-0.89-1.12-1.14-0.45-0.25-1-0.38-1.63-0.38zm-17.25 0.21v8.6h1.41v-8.6h-1.41zm-133.27 0.98c0.75 0 1.33 0.29 1.76 0.89 0.43 0.59 0.65 1.4 0.65 2.44s-0.22 1.85-0.65 2.45c-0.43 0.59-1.01 0.88-1.76 0.88s-1.34-0.29-1.77-0.88c-0.42-0.6-0.63-1.41-0.63-2.45s0.21-1.85 0.63-2.44c0.43-0.6 1.02-0.89 1.77-0.89zm34.61 0c0.75 0 1.34 0.29 1.77 0.89 0.43 0.59 0.64 1.4 0.64 2.44s-0.21 1.85-0.64 2.45c-0.43 0.59-1.02 0.88-1.77 0.88-0.74 0-1.33-0.29-1.76-0.88-0.43-0.6-0.64-1.41-0.64-2.45s0.21-1.85 0.64-2.44c0.43-0.6 1.02-0.89 1.76-0.89zm53.51 0c0.74 0 1.33 0.29 1.75 0.89 0.43 0.59 0.65 1.4 0.65 2.44s-0.22 1.85-0.65 2.45c-0.42 0.59-1.01 0.88-1.75 0.88-0.75 0-1.34-0.29-1.77-0.88-0.42-0.6-0.64-1.41-0.64-2.45s0.22-1.85 0.64-2.44c0.43-0.6 1.02-0.89 1.77-0.89zm38.42 0c0.75 0 1.33 0.29 1.76 0.89 0.43 0.59 0.65 1.4 0.65 2.44s-0.22 1.85-0.65 2.45c-0.43 0.59-1.01 0.88-1.76 0.88s-1.34-0.29-1.77-0.88c-0.42-0.6-0.63-1.41-0.63-2.45s0.21-1.85 0.63-2.44c0.43-0.6 1.02-0.89 1.77-0.89zm24.32 0c0.77 0 1.36 0.28 1.78 0.84s0.63 1.36 0.63 2.38-0.21 1.81-0.63 2.37c-0.42 0.57-1.01 0.85-1.78 0.85-0.75 0-1.34-0.28-1.77-0.85-0.42-0.56-0.63-1.35-0.63-2.37s0.21-1.82 0.63-2.38c0.43-0.56 1.02-0.84 1.77-0.84zm-38.21 0.01c0.75 0 1.35 0.3 1.79 0.9 0.44 0.59 0.66 1.4 0.66 2.42s-0.22 1.83-0.66 2.42c-0.44 0.6-1.04 0.89-1.79 0.89-0.76 0-1.37-0.29-1.81-0.88-0.43-0.59-0.65-1.4-0.65-2.43s0.22-1.84 0.66-2.43 1.04-0.89 1.8-0.89zm-131.62 3.29h1.41v0.31c0 0.93-0.24 1.66-0.71 2.22-0.48 0.56-1.1 0.83-1.89 0.83-0.56 0-1.01-0.15-1.35-0.44-0.32-0.29-0.49-0.69-0.49-1.19 0-0.63 0.22-1.08 0.66-1.34s1.23-0.39 2.37-0.39zm34.62 0h1.4v0.31c0 0.93-0.24 1.66-0.71 2.22s-1.1 0.83-1.88 0.83c-0.57 0-1.02-0.15-1.35-0.44s-0.5-0.69-0.5-1.19c0-0.63 0.22-1.08 0.66-1.34s1.24-0.39 2.38-0.39zm47.63 0h1.41v0.31c0 0.93-0.24 1.66-0.71 2.22-0.48 0.56-1.1 0.83-1.89 0.83-0.56 0-1.01-0.15-1.35-0.44-0.32-0.29-0.49-0.69-0.49-1.19 0-0.63 0.22-1.08 0.66-1.34s1.23-0.39 2.37-0.39zm-96.19 12.03v11.95h1.42v-4.86c0-0.84 0.22-1.51 0.66-1.99 0.44-0.49 1.04-0.73 1.81-0.73 0.63 0 1.11 0.2 1.42 0.61 0.32 0.4 0.48 1.01 0.48 1.82v5.15h1.41v-5.19c0-1.19-0.25-2.09-0.76-2.7-0.5-0.61-1.25-0.92-2.24-0.92-0.6 0-1.13 0.13-1.59 0.38-0.46 0.26-0.85 0.65-1.19 1.16v-4.68h-1.42zm76.05 0v11.95h1.42v-1.29c0.29 0.51 0.67 0.89 1.12 1.14s1 0.37 1.63 0.37c1.04 0 1.89-0.41 2.54-1.24s0.98-1.92 0.98-3.28c0-1.35-0.33-2.44-0.98-3.26-0.65-0.83-1.5-1.25-2.54-1.25-0.63 0-1.18 0.13-1.63 0.38-0.45 0.24-0.83 0.62-1.12 1.13v-4.65h-1.42zm24.71 0v1.79h1.42v-1.79h-1.42zm25.47 0v11.95h1.42v-4.86c0-0.84 0.22-1.51 0.66-1.99 0.44-0.49 1.05-0.73 1.81-0.73 0.63 0 1.11 0.2 1.43 0.61 0.31 0.4 0.47 1.01 0.47 1.82v5.15h1.41v-5.19c0-1.19-0.25-2.09-0.76-2.7-0.5-0.61-1.25-0.92-2.24-0.92-0.6 0-1.13 0.13-1.59 0.38-0.45 0.26-0.85 0.65-1.19 1.16v-4.68h-1.42zm-132.37 0.91v2.44h-1.04v1.1h1.04v4.66c0 1.08 0.2 1.82 0.62 2.23 0.41 0.4 1.17 0.61 2.26 0.61h1.45v-1.19h-1.45c-0.59 0-0.98-0.1-1.18-0.29-0.19-0.2-0.28-0.65-0.28-1.36v-4.66h2.91v-1.1h-2.91v-2.44h-1.42zm30.83 0v2.44h-1.03v1.1h1.03v4.66c0 1.08 0.21 1.82 0.63 2.23 0.41 0.4 1.16 0.61 2.25 0.61h1.45v-1.19h-1.45c-0.59 0-0.98-0.1-1.17-0.29-0.19-0.2-0.29-0.65-0.29-1.36v-4.66h2.91v-1.1h-2.91v-2.44h-1.42zm24.05 0v2.44h-1.03v1.1h1.03v4.66c0 1.08 0.21 1.82 0.62 2.23 0.42 0.4 1.17 0.61 2.26 0.61h1.45v-1.19h-1.45c-0.59 0-0.98-0.1-1.17-0.29-0.19-0.2-0.29-0.65-0.29-1.36v-4.66h2.91v-1.1h-2.91v-2.44h-1.42zm11.18 0v2.44h-1.03v1.1h1.03v4.66c0 1.08 0.21 1.82 0.62 2.23 0.42 0.4 1.17 0.61 2.26 0.61h1.45v-1.19h-1.45c-0.59 0-0.98-0.1-1.17-0.29-0.19-0.2-0.29-0.65-0.29-1.36v-4.66h2.91v-1.1h-2.91v-2.44h-1.42zm60.17 0v2.44h-1.04v1.1h1.04v4.66c0 1.08 0.21 1.82 0.62 2.23 0.42 0.4 1.17 0.61 2.26 0.61h1.45v-1.19h-1.45c-0.59 0-0.98-0.1-1.18-0.29-0.19-0.2-0.28-0.65-0.28-1.36v-4.66h2.91v-1.1h-2.91v-2.44h-1.42zm59.15 0v2.44h-1.03v1.1h1.03v4.66c0 1.08 0.21 1.82 0.63 2.23 0.41 0.4 1.16 0.61 2.25 0.61h1.45v-1.19h-1.45c-0.59 0-0.98-0.1-1.17-0.29-0.19-0.2-0.29-0.65-0.29-1.36v-4.66h2.91v-1.1h-2.91v-2.44h-1.42zm-165.6 2.23c-1.29 0-2.32 0.42-3.08 1.25-0.76 0.82-1.14 1.94-1.14 3.34 0 1.36 0.4 2.44 1.2 3.24s1.89 1.2 3.26 1.2c0.55 0 1.09-0.06 1.62-0.17 0.54-0.11 1.05-0.27 1.56-0.49v-1.34c-0.5 0.27-1.01 0.47-1.52 0.6-0.5 0.14-1.03 0.2-1.57 0.2-0.94 0-1.67-0.25-2.2-0.76-0.52-0.51-0.81-1.25-0.87-2.23h6.49v-0.69c0-1.28-0.34-2.29-1.01-3.03-0.67-0.75-1.59-1.12-2.74-1.12zm20.85 0c-1.29 0-2.31 0.42-3.08 1.25-0.75 0.82-1.13 1.94-1.13 3.34 0 1.36 0.39 2.44 1.19 3.24 0.81 0.8 1.9 1.2 3.27 1.2 0.54 0 1.08-0.06 1.62-0.17 0.53-0.11 1.05-0.27 1.55-0.49v-1.34c-0.5 0.27-1 0.47-1.51 0.6-0.51 0.14-1.04 0.2-1.58 0.2-0.94 0-1.67-0.25-2.19-0.76-0.53-0.51-0.82-1.25-0.88-2.23h6.5v-0.69c0-1.28-0.34-2.29-1.02-3.03-0.67-0.75-1.58-1.12-2.74-1.12zm8.81 0c-1.06 0-1.87 0.22-2.44 0.66-0.58 0.44-0.86 1.07-0.86 1.87 0 0.67 0.19 1.19 0.58 1.58 0.39 0.38 1.02 0.66 1.9 0.84l0.49 0.12c0.87 0.19 1.44 0.38 1.69 0.59 0.27 0.2 0.4 0.5 0.4 0.88 0 0.42-0.18 0.74-0.54 0.97-0.36 0.22-0.87 0.34-1.54 0.34-0.49 0-0.99-0.07-1.5-0.2-0.51-0.14-1.02-0.34-1.55-0.62v1.46c0.56 0.18 1.08 0.31 1.58 0.4s0.98 0.14 1.44 0.14c1.11 0 1.98-0.23 2.61-0.7 0.63-0.46 0.95-1.1 0.95-1.9 0-0.7-0.22-1.24-0.64-1.63s-1.13-0.7-2.13-0.91l-0.49-0.11c-0.75-0.17-1.26-0.35-1.51-0.53-0.25-0.19-0.38-0.45-0.38-0.78 0-0.43 0.18-0.75 0.53-0.97 0.35-0.21 0.88-0.32 1.58-0.32 0.46 0 0.9 0.05 1.33 0.16 0.43 0.1 0.85 0.25 1.25 0.46v-1.34c-0.39-0.15-0.82-0.27-1.28-0.34-0.46-0.08-0.95-0.12-1.47-0.12zm46.38 0c-1.29 0-2.31 0.42-3.08 1.25-0.75 0.82-1.13 1.94-1.13 3.34 0 1.36 0.4 2.44 1.19 3.24 0.81 0.8 1.9 1.2 3.27 1.2 0.55 0 1.09-0.06 1.62-0.17s1.05-0.27 1.56-0.49v-1.34c-0.5 0.27-1.01 0.47-1.52 0.6-0.51 0.14-1.03 0.2-1.58 0.2-0.93 0-1.67-0.25-2.19-0.76s-0.82-1.25-0.88-2.23h6.5v-0.69c0-1.28-0.34-2.29-1.02-3.03-0.67-0.75-1.58-1.12-2.74-1.12zm19.59 0c-0.6 0-1.13 0.13-1.59 0.38-0.46 0.26-0.85 0.65-1.19 1.16v-1.33h-1.42v8.6h1.42v-4.86c0-0.84 0.22-1.51 0.66-1.99 0.44-0.49 1.04-0.73 1.81-0.73 0.63 0 1.11 0.2 1.42 0.61 0.32 0.4 0.48 1.01 0.48 1.82v5.15h1.41v-5.19c0-1.19-0.25-2.09-0.76-2.7-0.5-0.61-1.25-0.92-2.24-0.92zm30.6 0c-1.29 0-2.32 0.42-3.08 1.25-0.76 0.82-1.14 1.94-1.14 3.34 0 1.36 0.4 2.44 1.2 3.24s1.89 1.2 3.26 1.2c0.55 0 1.09-0.06 1.63-0.17 0.53-0.11 1.05-0.27 1.55-0.49v-1.34c-0.5 0.27-1.01 0.47-1.52 0.6-0.5 0.14-1.03 0.2-1.57 0.2-0.94 0-1.67-0.25-2.2-0.76-0.52-0.51-0.81-1.25-0.87-2.23h6.49v-0.69c0-1.28-0.33-2.29-1.01-3.03-0.67-0.75-1.59-1.12-2.74-1.12zm14.79 0c-1.34 0-2.4 0.4-3.17 1.21-0.77 0.8-1.16 1.9-1.16 3.3 0 1.39 0.39 2.49 1.15 3.3s1.79 1.22 3.09 1.22c0.47 0 0.92-0.05 1.34-0.14s0.83-0.23 1.23-0.41v-1.31c-0.4 0.22-0.8 0.39-1.21 0.5-0.4 0.11-0.8 0.16-1.21 0.16-0.92 0-1.63-0.29-2.14-0.87-0.5-0.58-0.76-1.4-0.76-2.45 0-1.04 0.26-1.86 0.76-2.44 0.51-0.58 1.22-0.87 2.14-0.87 0.41 0 0.81 0.05 1.21 0.17 0.41 0.1 0.81 0.27 1.21 0.49v-1.32c-0.39-0.18-0.79-0.32-1.21-0.4-0.41-0.09-0.84-0.14-1.27-0.14zm8.55 0c-1.29 0-2.32 0.42-3.08 1.25-0.76 0.82-1.14 1.94-1.14 3.34 0 1.36 0.41 2.44 1.2 3.24 0.81 0.8 1.89 1.2 3.27 1.2 0.54 0 1.08-0.06 1.62-0.17 0.53-0.11 1.05-0.27 1.56-0.49v-1.34c-0.51 0.27-1.01 0.47-1.52 0.6-0.51 0.14-1.04 0.2-1.58 0.2-0.93 0-1.67-0.25-2.2-0.76-0.52-0.51-0.81-1.25-0.87-2.23h6.5v-0.69c0-1.28-0.34-2.29-1.02-3.03-0.67-0.75-1.58-1.12-2.74-1.12zm10.22 0c-0.6 0-1.13 0.13-1.59 0.38-0.45 0.26-0.85 0.65-1.19 1.16v-1.33h-1.42v8.6h1.42v-4.86c0-0.84 0.22-1.51 0.66-1.99 0.44-0.49 1.04-0.73 1.81-0.73 0.63 0 1.11 0.2 1.42 0.61 0.32 0.4 0.48 1.01 0.48 1.82v5.15h1.41v-5.19c0-1.19-0.25-2.09-0.76-2.7-0.5-0.61-1.25-0.92-2.24-0.92zm16.27 0c-0.68 0-1.26 0.13-1.73 0.38-0.48 0.25-0.87 0.64-1.16 1.16v-1.33h-1.42v8.6h1.42v-4.53c0-0.98 0.21-1.72 0.63-2.24 0.43-0.52 1.05-0.78 1.85-0.78 0.22 0 0.43 0.02 0.61 0.07 0.19 0.04 0.36 0.11 0.52 0.2l-0.01-1.45c-0.14-0.03-0.27-0.05-0.39-0.06-0.11-0.01-0.22-0.02-0.32-0.02zm5.48 0c-1.29 0-2.31 0.42-3.08 1.25-0.75 0.82-1.13 1.94-1.13 3.34 0 1.36 0.4 2.44 1.2 3.24s1.89 1.2 3.26 1.2c0.55 0 1.09-0.06 1.62-0.17s1.05-0.27 1.56-0.49v-1.34c-0.5 0.27-1.01 0.47-1.52 0.6-0.51 0.14-1.03 0.2-1.58 0.2-0.93 0-1.67-0.25-2.19-0.76s-0.82-1.25-0.88-2.23h6.5v-0.69c0-1.28-0.34-2.29-1.02-3.03-0.67-0.75-1.58-1.12-2.74-1.12zm-129.21 0.21v5.2c0 1.19 0.26 2.08 0.77 2.7 0.51 0.61 1.26 0.92 2.25 0.92 0.6 0 1.12-0.13 1.57-0.38 0.46-0.25 0.86-0.64 1.2-1.16v1.32h1.41v-8.6h-1.41v4.87c0 0.84-0.22 1.51-0.67 1.99-0.44 0.49-1.04 0.73-1.8 0.73-0.63 0-1.11-0.2-1.43-0.61s-0.47-1.02-0.47-1.83v-5.15h-1.42zm34.79 0v8.6h1.42v-8.6h-1.42zm-20.89 0.97c0.75 0 1.33 0.3 1.76 0.89s0.64 1.41 0.64 2.44c0 1.04-0.21 1.86-0.64 2.45s-1.01 0.89-1.76 0.89-1.34-0.3-1.77-0.89c-0.42-0.59-0.63-1.41-0.63-2.45 0-1.03 0.21-1.85 0.63-2.44 0.43-0.59 1.02-0.89 1.77-0.89zm-66.22 0.02c0.7 0 1.26 0.23 1.68 0.69s0.64 1.08 0.65 1.85l-5.04 0.01c0.07-0.81 0.34-1.44 0.81-1.88 0.48-0.45 1.11-0.67 1.9-0.67zm20.86 0c0.69 0 1.25 0.23 1.67 0.69 0.43 0.46 0.64 1.08 0.65 1.85l-5.03 0.01c0.07-0.81 0.34-1.44 0.81-1.88 0.48-0.45 1.11-0.67 1.9-0.67zm55.19 0c0.69 0 1.25 0.23 1.67 0.69 0.43 0.46 0.64 1.08 0.65 1.85l-5.03 0.01c0.07-0.81 0.34-1.44 0.81-1.88 0.48-0.45 1.11-0.67 1.9-0.67zm50.18 0c0.7 0 1.26 0.23 1.68 0.69s0.64 1.08 0.65 1.85l-5.04 0.01c0.08-0.81 0.35-1.44 0.82-1.88 0.47-0.45 1.11-0.67 1.89-0.67zm23.35 0c0.69 0 1.25 0.23 1.67 0.69s0.64 1.08 0.65 1.85l-5.03 0.01c0.07-0.81 0.34-1.44 0.81-1.88 0.47-0.45 1.11-0.67 1.9-0.67zm31.97 0c0.69 0 1.25 0.23 1.67 0.69 0.43 0.46 0.65 1.08 0.66 1.85l-5.04 0.01c0.07-0.81 0.34-1.44 0.81-1.88 0.48-0.45 1.11-0.67 1.9-0.67zm-188.69 15.32c-0.97 0-1.67 0.22-2.12 0.66-0.44 0.43-0.67 1.13-0.67 2.08v0.6h-1.35v1.1h1.35v7.5h1.43v-7.5h2.32v-1.1h-2.32v-0.76c0-0.53 0.09-0.9 0.29-1.1 0.2-0.21 0.55-0.31 1.06-0.31h1.35v-1.17h-1.34zm13.64 0v11.94h1.42v-4.86c0-0.84 0.22-1.5 0.66-1.99 0.44-0.48 1.04-0.72 1.8-0.72 0.64 0 1.11 0.2 1.43 0.6 0.32 0.41 0.48 1.02 0.48 1.83v5.14h1.41v-5.19c0-1.19-0.25-2.08-0.76-2.69-0.51-0.62-1.25-0.92-2.24-0.92-0.6 0-1.13 0.12-1.59 0.38s-0.85 0.64-1.19 1.16v-4.68h-1.42zm74.51 0v11.94h1.42v-1.29c0.3 0.52 0.67 0.9 1.12 1.15 0.46 0.24 1 0.37 1.63 0.37 1.04 0 1.89-0.42 2.54-1.25 0.66-0.83 0.98-1.92 0.98-3.27s-0.32-2.44-0.98-3.27c-0.65-0.83-1.5-1.24-2.54-1.24-0.63 0-1.17 0.12-1.63 0.37-0.45 0.25-0.82 0.63-1.12 1.14v-4.65h-1.42zm25.8 0v11.94h1.42v-4.86c0-0.84 0.22-1.5 0.66-1.99 0.44-0.48 1.04-0.72 1.8-0.72 0.64 0 1.11 0.2 1.43 0.6 0.32 0.41 0.48 1.02 0.48 1.83v5.14h1.41v-5.19c0-1.19-0.25-2.08-0.76-2.69-0.51-0.62-1.26-0.92-2.24-0.92-0.6 0-1.13 0.12-1.59 0.38s-0.85 0.64-1.19 1.16v-4.68h-1.42zm-106.46 0.9v2.44h-1.03v1.1h1.03v4.67c0 1.07 0.21 1.82 0.63 2.23 0.41 0.4 1.17 0.6 2.26 0.6h1.45v-1.18h-1.45c-0.59 0-0.99-0.1-1.18-0.3s-0.28-0.65-0.28-1.35v-4.67h2.91v-1.1h-2.91v-2.44h-1.43zm53.35 0v2.44h-1.03v1.1h1.03v4.67c0 1.07 0.21 1.82 0.63 2.23 0.41 0.4 1.16 0.6 2.25 0.6h1.45v-1.18h-1.45c-0.59 0-0.98-0.1-1.17-0.3s-0.29-0.65-0.29-1.35v-4.67h2.91v-1.1h-2.91v-2.44h-1.42zm46.97 0v2.44h-1.04v1.1h1.04v4.67c0 1.07 0.2 1.82 0.62 2.23 0.41 0.4 1.16 0.6 2.25 0.6h1.46v-1.18h-1.46c-0.58 0-0.98-0.1-1.17-0.3s-0.28-0.65-0.28-1.35v-4.67h2.91v-1.1h-2.91v-2.44h-1.42zm-117.11 2.24c-1.23 0-2.2 0.4-2.9 1.19-0.69 0.8-1.04 1.91-1.04 3.32s0.35 2.52 1.04 3.32c0.7 0.8 1.67 1.2 2.9 1.2s2.2-0.4 2.9-1.2 1.05-1.91 1.05-3.32-0.35-2.52-1.05-3.32c-0.7-0.79-1.67-1.19-2.9-1.19zm36.57 0c-1.29 0-2.31 0.41-3.07 1.24s-1.14 1.94-1.14 3.35c0 1.36 0.4 2.44 1.2 3.24s1.89 1.2 3.26 1.2c0.55 0 1.09-0.06 1.62-0.17s1.05-0.28 1.56-0.49v-1.34c-0.5 0.27-1.01 0.47-1.52 0.6s-1.03 0.2-1.58 0.2c-0.93 0-1.66-0.25-2.19-0.76-0.52-0.51-0.81-1.26-0.88-2.23h6.5v-0.69c0-1.28-0.34-2.29-1.01-3.03-0.67-0.75-1.59-1.12-2.75-1.12zm26.97 0c-0.46 0-0.93 0.05-1.42 0.15s-0.99 0.25-1.5 0.45v1.3c0.42-0.23 0.87-0.41 1.34-0.53 0.46-0.12 0.94-0.18 1.43-0.18 0.78 0 1.38 0.18 1.8 0.54 0.43 0.35 0.65 0.86 0.65 1.51v0.14h-1.98c-1.29 0-2.26 0.24-2.91 0.73-0.64 0.49-0.96 1.22-0.96 2.19 0 0.83 0.25 1.49 0.77 1.99 0.52 0.49 1.22 0.74 2.1 0.74 0.7 0 1.29-0.13 1.77-0.37 0.48-0.25 0.89-0.64 1.21-1.16v1.3h1.41v-4.9c0-1.31-0.31-2.29-0.92-2.94-0.62-0.64-1.55-0.96-2.79-0.96zm16.4 0c-1.29 0-2.31 0.41-3.08 1.24-0.75 0.83-1.13 1.94-1.13 3.35 0 1.36 0.4 2.44 1.19 3.24 0.81 0.8 1.9 1.2 3.27 1.2 0.54 0 1.09-0.06 1.62-0.17s1.05-0.28 1.56-0.49v-1.34c-0.5 0.27-1.01 0.47-1.52 0.6s-1.03 0.2-1.58 0.2c-0.93 0-1.67-0.25-2.19-0.76-0.53-0.51-0.82-1.26-0.88-2.23h6.5v-0.69c0-1.28-0.34-2.29-1.02-3.03-0.67-0.75-1.58-1.12-2.74-1.12zm10.34 0c-0.68 0-1.26 0.12-1.74 0.38-0.47 0.25-0.86 0.64-1.16 1.16v-1.34h-1.42v8.6h1.42v-4.53c0-0.97 0.21-1.71 0.64-2.23s1.04-0.78 1.84-0.78c0.23 0 0.43 0.02 0.62 0.07 0.19 0.04 0.36 0.1 0.52 0.19l-0.01-1.45c-0.14-0.02-0.27-0.04-0.39-0.05s-0.23-0.02-0.32-0.02zm20.22 0c-0.46 0-0.93 0.05-1.42 0.15-0.48 0.1-0.99 0.25-1.5 0.45v1.3c0.43-0.23 0.87-0.41 1.34-0.53s0.94-0.18 1.44-0.18c0.77 0 1.37 0.18 1.79 0.54 0.43 0.35 0.65 0.86 0.65 1.51v0.14h-1.98c-1.29 0-2.26 0.24-2.91 0.73-0.64 0.49-0.96 1.22-0.96 2.19 0 0.83 0.26 1.49 0.77 1.99 0.52 0.49 1.23 0.74 2.11 0.74 0.69 0 1.28-0.13 1.76-0.37 0.48-0.25 0.89-0.64 1.21-1.16v1.3h1.41v-4.9c0-1.31-0.31-2.29-0.92-2.94-0.62-0.64-1.54-0.96-2.79-0.96zm-63.67 0.2l2.25 8.6h1.67l1.86-7.04 1.85 7.04h1.66l2.25-8.6h-1.41l-1.76 6.72-1.76-6.72h-1.67l-1.76 6.72-1.76-6.72h-1.42zm54.44 0.98c0.75 0 1.34 0.3 1.76 0.89 0.43 0.59 0.65 1.4 0.65 2.44s-0.22 1.86-0.65 2.45c-0.42 0.59-1.01 0.88-1.76 0.88-0.74 0-1.33-0.29-1.76-0.88s-0.64-1.41-0.64-2.45 0.21-1.85 0.64-2.44 1.02-0.89 1.76-0.89zm-101.27 0.01c0.76 0 1.35 0.3 1.79 0.9s0.66 1.4 0.66 2.42-0.22 1.83-0.66 2.43c-0.44 0.59-1.03 0.89-1.79 0.89s-1.36-0.29-1.8-0.88c-0.44-0.6-0.65-1.41-0.65-2.44s0.22-1.84 0.66-2.42c0.44-0.6 1.04-0.9 1.79-0.9zm36.59 0c0.7 0 1.25 0.24 1.67 0.7 0.43 0.46 0.65 1.07 0.66 1.85h-5.04c0.07-0.81 0.34-1.43 0.81-1.88 0.48-0.44 1.11-0.67 1.9-0.67zm43.37 0c0.69 0 1.25 0.24 1.67 0.7 0.43 0.46 0.64 1.07 0.65 1.85h-5.03c0.07-0.81 0.34-1.43 0.81-1.88 0.48-0.44 1.11-0.67 1.9-0.67zm-15.53 3.29h1.41v0.32c0 0.92-0.24 1.66-0.72 2.21-0.47 0.56-1.09 0.83-1.88 0.83-0.57 0-1.02-0.14-1.35-0.43-0.33-0.3-0.49-0.7-0.49-1.2 0-0.63 0.22-1.08 0.66-1.34s1.23-0.39 2.37-0.39zm46.96 0h1.41v0.32c0 0.92-0.24 1.66-0.72 2.21-0.47 0.56-1.09 0.83-1.88 0.83-0.57 0-1.02-0.14-1.35-0.43-0.33-0.3-0.49-0.7-0.49-1.2 0-0.63 0.22-1.08 0.66-1.34s1.23-0.39 2.37-0.39zm22.09 2.37v1.95h1.62v-1.95h-1.62z" transform="translate(105.89 335.23)"/>
<path style="color:#000000" marker-end="url(#Arrow1Mend)" d="m478.78 398.68h-177" stroke="#000" marker="none" stroke-width="1.3805" fill="none"/>
<path d="m287.58 47.49v11.948h1.42v-4.86c0-0.839 0.22-1.502 0.66-1.988s1.05-0.731 1.81-0.731c0.63 0 1.11 0.203 1.43 0.608 0.31 0.404 0.47 1.012 0.47 1.826v5.145h1.42v-5.19c0-1.188-0.26-2.086-0.76-2.695-0.51-0.615-1.26-0.922-2.25-0.922-0.6 0-1.12 0.129-1.58 0.385s-0.86 0.641-1.2 1.158v-4.684h-1.42zm116.06 0v1.789h1.41v-1.789h-1.41zm10.48 0v11.948h1.42v-4.86c0-0.839 0.22-1.502 0.66-1.988s1.05-0.731 1.81-0.731c0.63 0 1.11 0.203 1.43 0.608 0.31 0.404 0.47 1.012 0.47 1.826v5.145h1.42v-5.19c0-1.188-0.26-2.086-0.77-2.695-0.5-0.615-1.25-0.922-2.24-0.922-0.6 0-1.12 0.129-1.59 0.385-0.45 0.256-0.85 0.641-1.19 1.158v-4.684h-1.42zm14.99 0v11.948h1.42v-1.29c0.3 0.512 0.67 0.894 1.12 1.145 0.46 0.246 1 0.367 1.63 0.367 1.05 0 1.89-0.413 2.54-1.242 0.66-0.829 0.98-1.92 0.98-3.272 0-1.351-0.32-2.442-0.98-3.271-0.65-0.829-1.49-1.244-2.54-1.244-0.63 0-1.17 0.126-1.63 0.377-0.45 0.246-0.82 0.625-1.12 1.137v-4.655h-1.42zm20.02 0v11.948h1.41v-11.948h-1.41zm4.31 0v11.948h1.42v-1.29c0.29 0.512 0.67 0.894 1.12 1.145 0.45 0.246 1 0.367 1.63 0.367 1.04 0 1.89-0.413 2.54-1.242s0.98-1.92 0.98-3.272c0-1.351-0.33-2.442-0.98-3.271s-1.5-1.244-2.54-1.244c-0.63 0-1.18 0.126-1.63 0.377-0.45 0.246-0.83 0.625-1.12 1.137v-4.655h-1.42zm-176.94 0.485v1.304h4.07v10.159h1.55v-10.159h4.07v-1.304h-9.69zm86.92 0.421v2.442h-1.04v1.1h1.04v4.667c0 1.075 0.2 1.818 0.62 2.227 0.41 0.404 1.16 0.606 2.25 0.606h1.46v-1.182h-1.46c-0.58 0-0.98-0.099-1.17-0.299s-0.28-0.65-0.28-1.352v-4.667h2.91v-1.1h-2.91v-2.442h-1.42zm44.56 0v2.442h-1.04v1.1h1.04v4.667c0 1.075 0.21 1.818 0.62 2.227 0.42 0.404 1.17 0.606 2.26 0.606h1.45v-1.182h-1.45c-0.59 0-0.98-0.099-1.17-0.299s-0.29-0.65-0.29-1.352v-4.667h2.91v-1.1h-2.91v-2.442h-1.42zm-106.76 2.235c-1.29 0-2.32 0.415-3.08 1.244-0.76 0.824-1.13 1.94-1.13 3.348 0 1.361 0.39 2.441 1.19 3.24 0.81 0.798 1.89 1.197 3.27 1.197 0.54 0 1.08-0.055 1.62-0.168 0.53-0.112 1.05-0.277 1.55-0.492v-1.336c-0.5 0.266-1 0.467-1.52 0.6-0.5 0.133-1.03 0.199-1.57 0.199-0.94 0-1.67-0.253-2.19-0.76-0.53-0.512-0.82-1.254-0.88-2.226h6.49v-0.692c0-1.28-0.33-2.291-1.01-3.033-0.67-0.747-1.58-1.121-2.74-1.121zm10.33 0c-0.68 0-1.25 0.129-1.73 0.385-0.48 0.25-0.86 0.636-1.16 1.158v-1.336h-1.42v8.6h1.42v-4.53c0-0.972 0.21-1.717 0.64-2.234 0.43-0.522 1.04-0.783 1.84-0.783 0.23 0 0.43 0.022 0.62 0.068 0.19 0.041 0.36 0.109 0.52 0.201l-0.01-1.451c-0.14-0.026-0.27-0.044-0.39-0.055-0.12-0.015-0.23-0.023-0.33-0.023zm6.08 0c-0.62 0-1.15 0.126-1.6 0.377-0.46 0.251-0.84 0.639-1.16 1.166v-1.336h-1.42v8.6h1.42v-4.86c0-0.834 0.21-1.494 0.63-1.98 0.43-0.492 1-0.739 1.72-0.739 0.61 0 1.06 0.201 1.35 0.6 0.3 0.394 0.44 1.005 0.44 1.834v5.145h1.42v-4.86c0-0.839 0.21-1.502 0.64-1.988 0.42-0.486 1-0.731 1.73-0.731 0.6 0 1.05 0.201 1.34 0.6s0.44 1.01 0.44 1.834v5.145h1.42v-5.19c0-1.157-0.24-2.047-0.73-2.672-0.49-0.629-1.18-0.945-2.07-0.945-0.67 0-1.25 0.151-1.74 0.453s-0.91 0.771-1.27 1.406c-0.21-0.604-0.53-1.065-0.97-1.383-0.44-0.317-0.97-0.476-1.59-0.476zm14.53 0c-1.24 0-2.2 0.401-2.91 1.199-0.69 0.799-1.04 1.904-1.04 3.316 0 1.408 0.35 2.513 1.04 3.317 0.71 0.798 1.67 1.197 2.91 1.197 1.22 0 2.19-0.399 2.89-1.197 0.7-0.804 1.05-1.909 1.05-3.317 0-1.412-0.35-2.517-1.05-3.316-0.7-0.798-1.67-1.199-2.89-1.199zm10.41 0c-0.62 0-1.16 0.126-1.61 0.377s-0.83 0.639-1.16 1.166v-1.336h-1.42v8.6h1.42v-4.86c0-0.834 0.22-1.494 0.64-1.98 0.43-0.492 1-0.739 1.72-0.739 0.61 0 1.06 0.201 1.35 0.6 0.3 0.394 0.44 1.005 0.44 1.834v5.145h1.42v-4.86c0-0.839 0.21-1.502 0.64-1.988 0.42-0.486 1-0.731 1.73-0.731 0.6 0 1.05 0.201 1.34 0.6s0.44 1.01 0.44 1.834v5.145h1.42v-5.19c0-1.157-0.24-2.047-0.73-2.672-0.49-0.629-1.18-0.945-2.08-0.945-0.66 0-1.24 0.151-1.73 0.453s-0.91 0.771-1.27 1.406c-0.21-0.604-0.53-1.065-0.97-1.383-0.44-0.317-0.97-0.476-1.59-0.476zm14.8 0c-1.29 0-2.32 0.415-3.08 1.244-0.76 0.824-1.14 1.94-1.14 3.348 0 1.361 0.4 2.441 1.2 3.24 0.8 0.798 1.89 1.197 3.26 1.197 0.55 0 1.09-0.055 1.62-0.168 0.53-0.112 1.05-0.277 1.56-0.492v-1.336c-0.5 0.266-1.01 0.467-1.52 0.6s-1.03 0.199-1.57 0.199c-0.94 0-1.67-0.253-2.2-0.76-0.52-0.512-0.82-1.254-0.88-2.226h6.5v-0.692c0-1.28-0.34-2.291-1.01-3.033-0.68-0.747-1.59-1.121-2.74-1.121zm15.84 0c-1.29 0-2.31 0.415-3.08 1.244-0.75 0.824-1.13 1.94-1.13 3.348 0 1.361 0.4 2.441 1.2 3.24 0.8 0.798 1.89 1.197 3.26 1.197 0.55 0 1.09-0.055 1.62-0.168 0.53-0.112 1.05-0.277 1.56-0.492v-1.336c-0.5 0.266-1.01 0.467-1.52 0.6s-1.03 0.199-1.58 0.199c-0.93 0-1.67-0.253-2.19-0.76-0.52-0.512-0.82-1.254-0.88-2.226h6.5v-0.692c0-1.28-0.34-2.291-1.02-3.033-0.67-0.747-1.58-1.121-2.74-1.121zm10.34 0c-0.68 0-1.26 0.129-1.74 0.385-0.47 0.25-0.86 0.636-1.16 1.158v-1.336h-1.42v8.6h1.42v-4.53c0-0.972 0.22-1.717 0.64-2.234 0.43-0.522 1.04-0.783 1.84-0.783 0.23 0 0.43 0.022 0.62 0.068 0.19 0.041 0.36 0.109 0.52 0.201l-0.01-1.451c-0.14-0.026-0.27-0.044-0.39-0.055-0.12-0.015-0.23-0.023-0.32-0.023zm6.4 0.207l2.25 8.6h1.67l1.86-7.047 1.85 7.047h1.66l2.25-8.6h-1.41l-1.76 6.711-1.77-6.711h-1.66l-1.76 6.711-1.76-6.711h-1.42zm13.69 0v8.6h1.41v-8.6h-1.41zm35.36 0v5.207c0 1.182 0.26 2.081 0.77 2.695 0.51 0.615 1.26 0.92 2.25 0.92 0.6 0 1.12-0.124 1.57-0.375 0.46-0.256 0.86-0.646 1.2-1.168v1.321h1.41v-8.6h-1.41v4.877c0 0.839-0.22 1.502-0.67 1.988-0.44 0.486-1.04 0.729-1.8 0.729-0.64 0-1.11-0.201-1.43-0.606-0.32-0.409-0.48-1.022-0.48-1.836v-5.152h-1.41zm-6.06 0.976c0.74 0 1.33 0.297 1.75 0.891 0.43 0.589 0.65 1.402 0.65 2.441 0 1.04-0.22 1.856-0.65 2.45-0.42 0.588-1.01 0.883-1.75 0.883-0.75 0-1.34-0.295-1.77-0.883-0.43-0.594-0.64-1.41-0.64-2.45 0-1.039 0.21-1.852 0.64-2.441 0.43-0.594 1.02-0.891 1.77-0.891zm24.32 0c0.75 0 1.33 0.297 1.76 0.891 0.43 0.589 0.64 1.402 0.64 2.441 0 1.04-0.21 1.856-0.64 2.45-0.43 0.588-1.01 0.883-1.76 0.883s-1.34-0.295-1.77-0.883c-0.42-0.594-0.63-1.41-0.63-2.45 0-1.039 0.21-1.852 0.63-2.441 0.43-0.594 1.02-0.891 1.77-0.891zm-156.02 0.016c0.69 0 1.25 0.229 1.67 0.69 0.43 0.46 0.64 1.078 0.65 1.851l-5.03 0.008c0.07-0.809 0.34-1.436 0.81-1.881 0.48-0.445 1.11-0.668 1.9-0.668zm30.92 0c0.75 0 1.35 0.298 1.79 0.897 0.44 0.593 0.66 1.401 0.66 2.419 0 1.024-0.22 1.832-0.66 2.426s-1.04 0.891-1.79 0.891c-0.77 0-1.37-0.294-1.81-0.883-0.43-0.594-0.65-1.405-0.65-2.434 0-1.028 0.22-1.837 0.66-2.425 0.44-0.594 1.04-0.891 1.8-0.891zm25.22 0c0.7 0 1.25 0.229 1.67 0.69 0.43 0.46 0.65 1.078 0.66 1.851l-5.04 0.008c0.07-0.809 0.34-1.436 0.81-1.881 0.48-0.445 1.11-0.668 1.9-0.668zm15.85 0c0.69 0 1.25 0.229 1.67 0.69 0.43 0.46 0.64 1.078 0.65 1.851l-5.03 0.008c0.07-0.809 0.34-1.436 0.81-1.881 0.48-0.445 1.11-0.668 1.9-0.668zm-51.62 15.316v11.95h1.41v-11.95h-1.41zm29.88 0v11.95h1.41v-11.95h-1.41zm18.67 0v1.79h1.42v-1.79h-1.42zm74.71 0v4.655c-0.3-0.512-0.68-0.891-1.13-1.137-0.45-0.251-0.99-0.377-1.63-0.377-1.04 0-1.89 0.415-2.54 1.244-0.65 0.83-0.98 1.92-0.98 3.272 0 1.351 0.33 2.442 0.98 3.271s1.5 1.244 2.54 1.244c0.64 0 1.18-0.123 1.63-0.369 0.45-0.251 0.83-0.632 1.13-1.144v1.291h1.41v-11.95h-1.41zm9.33 0v1.79h1.41v-1.79h-1.41zm-118.58 0.907v2.443h-1.04v1.098h1.04v4.668c0 1.075 0.21 1.817 0.62 2.226 0.42 0.405 1.17 0.608 2.26 0.608h1.45v-1.184h-1.45c-0.59 0-0.98-0.099-1.18-0.299-0.19-0.199-0.28-0.65-0.28-1.351v-4.668h2.91v-1.098h-2.91v-2.443h-1.42zm-53.89 2.234c-1.34 0-2.39 0.403-3.17 1.207-0.77 0.804-1.15 1.906-1.15 3.309 0 1.382 0.38 2.481 1.14 3.295 0.77 0.814 1.8 1.22 3.09 1.22 0.48 0 0.92-0.046 1.34-0.138 0.43-0.092 0.84-0.23 1.23-0.414v-1.307c-0.4 0.22-0.8 0.387-1.2 0.5-0.4 0.107-0.81 0.16-1.22 0.16-0.91 0-1.62-0.289-2.13-0.867-0.51-0.584-0.76-1.4-0.76-2.449 0-1.05 0.25-1.863 0.76-2.442 0.51-0.583 1.22-0.875 2.13-0.875 0.41 0 0.82 0.056 1.22 0.168 0.4 0.108 0.8 0.272 1.2 0.492v-1.32c-0.39-0.179-0.79-0.313-1.2-0.4-0.42-0.092-0.84-0.139-1.28-0.139zm8.29 0c-1.24 0-2.2 0.401-2.9 1.199-0.7 0.799-1.05 1.904-1.05 3.317 0 1.407 0.35 2.512 1.05 3.316 0.7 0.799 1.66 1.199 2.9 1.199 1.23 0 2.19-0.4 2.89-1.199 0.7-0.804 1.05-1.909 1.05-3.316 0-1.413-0.35-2.518-1.05-3.317-0.7-0.798-1.66-1.199-2.89-1.199zm10.41 0c-0.62 0-1.16 0.126-1.61 0.377s-0.83 0.641-1.15 1.168v-1.336h-1.43v8.6h1.43v-4.862c0-0.834 0.21-1.494 0.63-1.98 0.43-0.492 1-0.738 1.72-0.738 0.61 0 1.06 0.2 1.36 0.599 0.29 0.394 0.43 1.007 0.43 1.836v5.145h1.42v-4.862c0-0.839 0.21-1.502 0.64-1.988 0.42-0.486 1-0.73 1.74-0.73 0.59 0 1.04 0.2 1.33 0.599 0.29 0.4 0.44 1.012 0.44 1.836v5.145h1.42v-5.192c0-1.157-0.24-2.047-0.73-2.672-0.49-0.629-1.18-0.945-2.07-0.945-0.67 0-1.25 0.151-1.74 0.453s-0.91 0.772-1.27 1.406c-0.21-0.604-0.53-1.065-0.97-1.382-0.44-0.318-0.97-0.477-1.59-0.477zm15.31 0c-0.63 0-1.17 0.126-1.63 0.377-0.45 0.246-0.82 0.625-1.12 1.137v-1.305h-1.42v11.869h1.42v-4.56c0.3 0.512 0.67 0.893 1.12 1.144 0.46 0.246 1 0.369 1.63 0.369 1.04 0 1.89-0.415 2.54-1.244 0.66-0.829 0.99-1.92 0.99-3.271 0-1.352-0.33-2.442-0.99-3.272-0.65-0.829-1.5-1.244-2.54-1.244zm13.83 0c-1.29 0-2.32 0.415-3.08 1.244-0.76 0.824-1.14 1.94-1.14 3.348 0 1.362 0.4 2.442 1.2 3.24 0.8 0.799 1.89 1.199 3.26 1.199 0.55 0 1.09-0.057 1.63-0.17 0.53-0.112 1.05-0.275 1.55-0.49v-1.338c-0.5 0.266-1.01 0.467-1.52 0.6-0.5 0.133-1.03 0.199-1.57 0.199-0.94 0-1.67-0.253-2.2-0.76-0.52-0.512-0.81-1.254-0.87-2.226h6.49v-0.692c0-1.279-0.33-2.291-1.01-3.033-0.67-0.747-1.58-1.121-2.74-1.121zm15.85 0c-1.29 0-2.32 0.415-3.08 1.244-0.76 0.824-1.14 1.94-1.14 3.348 0 1.362 0.4 2.442 1.2 3.24 0.8 0.799 1.89 1.199 3.26 1.199 0.55 0 1.09-0.057 1.62-0.17 0.54-0.112 1.06-0.275 1.56-0.49v-1.338c-0.5 0.266-1.01 0.467-1.52 0.6-0.5 0.133-1.03 0.199-1.57 0.199-0.94 0-1.67-0.253-2.2-0.76-0.52-0.512-0.81-1.254-0.87-2.226h6.49v-0.692c0-1.279-0.34-2.291-1.01-3.033-0.67-0.747-1.59-1.121-2.74-1.121zm33.24 0c-0.62 0-1.16 0.126-1.61 0.377s-0.83 0.641-1.16 1.168v-1.336h-1.42v8.6h1.42v-4.862c0-0.834 0.21-1.494 0.64-1.98 0.42-0.492 1-0.738 1.72-0.738 0.61 0 1.06 0.2 1.35 0.599 0.29 0.394 0.44 1.007 0.44 1.836v5.145h1.42v-4.862c0-0.839 0.21-1.502 0.64-1.988 0.42-0.486 1-0.73 1.73-0.73 0.6 0 1.05 0.2 1.34 0.599 0.29 0.4 0.44 1.012 0.44 1.836v5.145h1.42v-5.192c0-1.157-0.25-2.047-0.73-2.672-0.49-0.629-1.18-0.945-2.08-0.945-0.66 0-1.24 0.151-1.73 0.453s-0.92 0.772-1.27 1.406c-0.21-0.604-0.53-1.065-0.97-1.382-0.44-0.318-0.97-0.477-1.59-0.477zm15.32 0c-0.62 0-1.15 0.126-1.6 0.377s-0.84 0.641-1.16 1.168v-1.336h-1.42v8.6h1.42v-4.862c0-0.834 0.21-1.494 0.64-1.98 0.42-0.492 0.99-0.738 1.72-0.738 0.61 0 1.06 0.2 1.35 0.599 0.29 0.394 0.44 1.007 0.44 1.836v5.145h1.42v-4.862c0-0.839 0.21-1.502 0.63-1.988 0.43-0.486 1.01-0.73 1.74-0.73 0.6 0 1.04 0.2 1.33 0.599 0.3 0.4 0.44 1.012 0.44 1.836v5.145h1.42v-5.192c0-1.157-0.24-2.047-0.73-2.672-0.48-0.629-1.18-0.945-2.07-0.945-0.67 0-1.24 0.151-1.74 0.453-0.49 0.302-0.91 0.772-1.26 1.406-0.21-0.604-0.54-1.065-0.98-1.382-0.43-0.318-0.96-0.477-1.59-0.477zm14.8 0c-1.29 0-2.32 0.415-3.08 1.244-0.76 0.824-1.14 1.94-1.14 3.348 0 1.362 0.4 2.442 1.2 3.24 0.81 0.799 1.89 1.199 3.27 1.199 0.54 0 1.08-0.057 1.61-0.17 0.54-0.112 1.06-0.275 1.56-0.49v-1.338c-0.5 0.266-1 0.467-1.52 0.6-0.5 0.133-1.03 0.199-1.57 0.199-0.94 0-1.67-0.253-2.2-0.76-0.52-0.512-0.81-1.254-0.87-2.226h6.49v-0.692c0-1.279-0.33-2.291-1.01-3.033-0.67-0.747-1.58-1.121-2.74-1.121zm10.33 0c-0.68 0-1.26 0.129-1.73 0.385-0.48 0.251-0.86 0.638-1.16 1.16v-1.336h-1.42v8.6h1.42v-4.532c0-0.972 0.21-1.717 0.64-2.234 0.43-0.522 1.04-0.783 1.84-0.783 0.22 0 0.43 0.024 0.61 0.07 0.19 0.041 0.37 0.107 0.53 0.199l-0.01-1.451c-0.15-0.025-0.28-0.044-0.39-0.054-0.12-0.016-0.23-0.024-0.33-0.024zm4.96 0c-1.06 0-1.87 0.22-2.45 0.66-0.57 0.44-0.85 1.066-0.85 1.875 0 0.666 0.19 1.191 0.58 1.574 0.39 0.379 1.02 0.66 1.89 0.844l0.5 0.115c0.87 0.19 1.44 0.388 1.69 0.592 0.26 0.205 0.39 0.499 0.39 0.883 0 0.415-0.17 0.737-0.53 0.967-0.36 0.225-0.87 0.338-1.54 0.338-0.49 0-1-0.066-1.5-0.199-0.51-0.139-1.02-0.344-1.55-0.616v1.459c0.56 0.179 1.08 0.314 1.58 0.401 0.5 0.092 0.98 0.138 1.44 0.138 1.11 0 1.97-0.233 2.6-0.699 0.64-0.466 0.96-1.098 0.96-1.896 0-0.702-0.22-1.248-0.64-1.637-0.42-0.394-1.13-0.697-2.14-0.912l-0.48-0.108c-0.76-0.169-1.26-0.347-1.51-0.531-0.25-0.189-0.38-0.448-0.38-0.775 0-0.43 0.18-0.752 0.52-0.967 0.36-0.215 0.89-0.322 1.59-0.322 0.46 0 0.9 0.05 1.33 0.152s0.85 0.256 1.24 0.461v-1.336c-0.38-0.154-0.81-0.269-1.27-0.346-0.46-0.076-0.95-0.115-1.47-0.115zm9.06 0c-1.29 0-2.31 0.415-3.08 1.244-0.75 0.824-1.13 1.94-1.13 3.348 0 1.362 0.4 2.442 1.2 3.24 0.8 0.799 1.89 1.199 3.26 1.199 0.55 0 1.09-0.057 1.62-0.17 0.53-0.112 1.05-0.275 1.56-0.49v-1.338c-0.5 0.266-1.01 0.467-1.52 0.6s-1.03 0.199-1.58 0.199c-0.93 0-1.66-0.253-2.19-0.76-0.52-0.512-0.82-1.254-0.88-2.226h6.5v-0.692c0-1.279-0.34-2.291-1.01-3.033-0.68-0.747-1.59-1.121-2.75-1.121zm29.57 0c-0.6 0-1.12 0.129-1.58 0.385s-0.86 0.643-1.2 1.16v-1.336h-1.42v8.6h1.42v-4.862c0-0.839 0.22-1.502 0.66-1.988s1.05-0.73 1.81-0.73c0.63 0 1.11 0.203 1.43 0.607 0.31 0.404 0.47 1.014 0.47 1.828v5.145h1.42v-5.192c0-1.187-0.26-2.086-0.76-2.695-0.51-0.614-1.26-0.922-2.25-0.922zm-107.86 0.209l3.48 8.461-0.26 0.645c-0.26 0.685-0.5 1.12-0.71 1.304-0.22 0.185-0.52 0.278-0.91 0.278h-0.83v1.181h1.13c0.64 0 1.14-0.154 1.52-0.467 0.38-0.312 0.77-0.982 1.17-2.005l3.78-9.397h-1.5l-2.69 6.725-2.68-6.725h-1.5zm15.32 0v8.6h1.42v-8.6h-1.42zm84.04 0v8.6h1.41v-8.6h-1.41zm-138.81 0.975c0.75 0 1.34 0.297 1.76 0.89 0.43 0.589 0.65 1.403 0.65 2.442s-0.22 1.855-0.65 2.449c-0.42 0.589-1.01 0.883-1.76 0.883-0.74 0-1.33-0.294-1.76-0.883-0.43-0.594-0.64-1.41-0.64-2.449s0.21-1.853 0.64-2.442c0.43-0.593 1.02-0.89 1.76-0.89zm127.07 0c0.74 0 1.33 0.297 1.76 0.89 0.43 0.589 0.65 1.403 0.65 2.442s-0.22 1.855-0.65 2.449c-0.43 0.589-1.02 0.883-1.76 0.883-0.75 0-1.34-0.294-1.77-0.883-0.43-0.594-0.64-1.41-0.64-2.449s0.21-1.853 0.64-2.442c0.43-0.593 1.02-0.89 1.77-0.89zm-152.44 0.015c0.75 0 1.35 0.3 1.79 0.899 0.44 0.594 0.66 1.399 0.66 2.418 0 1.024-0.22 1.832-0.66 2.426-0.44 0.593-1.04 0.89-1.79 0.89-0.77 0-1.37-0.294-1.81-0.883-0.43-0.593-0.65-1.404-0.65-2.433s0.22-1.837 0.66-2.426c0.44-0.594 1.04-0.891 1.8-0.891zm39.56 0c0.7 0 1.26 0.231 1.68 0.692 0.42 0.46 0.64 1.076 0.65 1.849l-5.04 0.008c0.07-0.809 0.35-1.435 0.82-1.881 0.47-0.445 1.11-0.668 1.89-0.668zm15.85 0c0.7 0 1.26 0.231 1.68 0.692 0.42 0.46 0.64 1.076 0.65 1.849l-5.04 0.008c0.07-0.809 0.34-1.435 0.82-1.881 0.47-0.445 1.1-0.668 1.89-0.668zm63.36 0c0.7 0 1.26 0.231 1.68 0.692 0.42 0.46 0.64 1.076 0.65 1.849l-5.04 0.008c0.08-0.809 0.35-1.435 0.82-1.881 0.47-0.445 1.11-0.668 1.89-0.668zm24.36 0c0.7 0 1.25 0.231 1.67 0.692 0.43 0.46 0.65 1.076 0.66 1.849l-5.04 0.008c0.07-0.809 0.34-1.435 0.81-1.881 0.48-0.445 1.11-0.668 1.9-0.668zm-149.01 15.319v11.947h1.42v-4.861c0-0.84 0.22-1.502 0.66-1.989 0.44-0.486 1.05-0.728 1.81-0.728 0.63 0 1.11 0.201 1.43 0.605 0.31 0.405 0.47 1.015 0.47 1.828v5.145h1.42v-5.191c0-1.188-0.26-2.087-0.76-2.696-0.51-0.614-1.26-0.92-2.25-0.92-0.6 0-1.13 0.127-1.59 0.383-0.45 0.256-0.85 0.643-1.19 1.16v-4.683h-1.42zm42.53 0v11.947h1.42v-11.947h-1.42zm4.37 0v1.789h1.41v-1.789h-1.41zm10.02 0v4.652c-0.3-0.512-0.68-0.891-1.13-1.137-0.45-0.251-1-0.375-1.63-0.375-1.04 0-1.89 0.413-2.54 1.243-0.65 0.829-0.98 1.92-0.98 3.271s0.33 2.442 0.98 3.271c0.65 0.83 1.5 1.245 2.54 1.245 0.63 0 1.18-0.124 1.63-0.37 0.45-0.25 0.83-0.632 1.13-1.144v1.291h1.41v-11.947h-1.41zm30.06 0v11.947h1.42v-1.291c0.3 0.512 0.68 0.894 1.13 1.144 0.45 0.246 0.99 0.37 1.62 0.37 1.05 0 1.9-0.415 2.55-1.245 0.65-0.829 0.98-1.92 0.98-3.271s-0.33-2.442-0.98-3.271c-0.65-0.83-1.5-1.243-2.55-1.243-0.63 0-1.17 0.124-1.62 0.375-0.45 0.246-0.83 0.625-1.13 1.137v-4.652h-1.42zm99.02 0v4.652c-0.29-0.512-0.67-0.891-1.12-1.137-0.45-0.251-1-0.375-1.63-0.375-1.04 0-1.89 0.413-2.54 1.243-0.65 0.829-0.98 1.92-0.98 3.271s0.33 2.442 0.98 3.271c0.65 0.83 1.5 1.245 2.54 1.245 0.63 0 1.18-0.124 1.63-0.37 0.45-0.25 0.83-0.632 1.12-1.144v1.291h1.42v-11.947h-1.42zm-192.14 0.906v2.441h-1.04v1.098h1.04v4.668c0 1.075 0.21 1.817 0.62 2.227 0.42 0.404 1.17 0.607 2.26 0.607h1.45v-1.184h-1.45c-0.59 0-0.98-0.099-1.17-0.298-0.19-0.2-0.29-0.651-0.29-1.352v-4.668h2.91v-1.098h-2.91v-2.441h-1.42zm72.36 0v2.441h-1.03v1.098h1.03v4.668c0 1.075 0.21 1.817 0.62 2.227 0.42 0.404 1.17 0.607 2.26 0.607h1.45v-1.184h-1.45c-0.59 0-0.98-0.099-1.17-0.298-0.19-0.2-0.29-0.651-0.29-1.352v-4.668h2.91v-1.098h-2.91v-2.441h-1.42zm-52.58 2.234c-1.29 0-2.32 0.413-3.08 1.243-0.76 0.824-1.14 1.939-1.14 3.347 0 1.362 0.41 2.442 1.2 3.24 0.81 0.799 1.9 1.2 3.27 1.2 0.55 0 1.08-0.058 1.62-0.17 0.53-0.113 1.05-0.276 1.56-0.491v-1.335c-0.51 0.266-1.01 0.464-1.52 0.597s-1.04 0.199-1.58 0.199c-0.94 0-1.67-0.253-2.2-0.759-0.52-0.512-0.81-1.254-0.87-2.227h6.5v-0.691c0-1.28-0.34-2.289-1.02-3.032-0.67-0.747-1.58-1.121-2.74-1.121zm13.81 0c-1.05 0-1.86 0.22-2.44 0.66-0.57 0.441-0.86 1.065-0.86 1.874 0 0.665 0.2 1.19 0.59 1.574 0.38 0.379 1.02 0.659 1.89 0.843l0.49 0.116c0.88 0.189 1.44 0.387 1.7 0.592 0.26 0.204 0.39 0.498 0.39 0.882 0 0.415-0.18 0.737-0.54 0.967-0.35 0.225-0.87 0.338-1.53 0.338-0.5 0-1-0.066-1.51-0.199-0.5-0.138-1.02-0.342-1.54-0.613v1.459c0.55 0.179 1.08 0.311 1.57 0.398 0.51 0.092 0.99 0.139 1.45 0.139 1.1 0 1.97-0.234 2.6-0.7 0.64-0.465 0.95-1.098 0.95-1.896 0-0.701-0.21-1.246-0.63-1.635-0.42-0.394-1.14-0.699-2.14-0.914l-0.48-0.107c-0.76-0.169-1.26-0.345-1.51-0.53-0.26-0.189-0.38-0.449-0.38-0.777 0-0.43 0.17-0.752 0.52-0.967s0.88-0.322 1.58-0.322c0.46 0 0.91 0.052 1.34 0.154 0.43 0.103 0.84 0.254 1.24 0.459v-1.336c-0.39-0.153-0.81-0.267-1.27-0.343-0.46-0.077-0.95-0.116-1.48-0.116zm8.8 0c-1.23 0-2.2 0.399-2.9 1.198-0.7 0.798-1.04 1.903-1.04 3.316 0 1.408 0.34 2.513 1.04 3.316 0.7 0.799 1.67 1.2 2.9 1.2s2.2-0.401 2.9-1.2c0.7-0.803 1.05-1.908 1.05-3.316 0-1.413-0.35-2.518-1.05-3.316-0.7-0.799-1.67-1.198-2.9-1.198zm39.5 0c-1.23 0-2.2 0.399-2.9 1.198-0.7 0.798-1.05 1.903-1.05 3.316 0 1.408 0.35 2.513 1.05 3.316 0.7 0.799 1.67 1.2 2.9 1.2s2.19-0.401 2.9-1.2c0.7-0.803 1.05-1.908 1.05-3.316 0-1.413-0.35-2.518-1.05-3.316-0.71-0.799-1.67-1.198-2.9-1.198zm24.87 0c-1.29 0-2.32 0.413-3.08 1.243-0.76 0.824-1.14 1.939-1.14 3.347 0 1.362 0.41 2.442 1.2 3.24 0.81 0.799 1.89 1.2 3.27 1.2 0.54 0 1.08-0.058 1.62-0.17 0.53-0.113 1.05-0.276 1.56-0.491v-1.335c-0.51 0.266-1.01 0.464-1.52 0.597s-1.04 0.199-1.58 0.199c-0.93 0-1.67-0.253-2.2-0.759-0.52-0.512-0.81-1.254-0.87-2.227h6.5v-0.691c0-1.28-0.34-2.289-1.02-3.032-0.67-0.747-1.58-1.121-2.74-1.121zm15.21 0c-0.62 0-1.15 0.124-1.6 0.375s-0.84 0.641-1.16 1.168v-1.336h-1.42v8.6h1.42v-4.861c0-0.835 0.21-1.495 0.64-1.981 0.42-0.491 0.99-0.736 1.71-0.736 0.61 0 1.06 0.198 1.36 0.597 0.29 0.395 0.43 1.007 0.43 1.836v5.145h1.42v-4.861c0-0.84 0.22-1.502 0.64-1.989 0.43-0.486 1-0.728 1.74-0.728 0.6 0 1.04 0.198 1.33 0.597 0.29 0.4 0.44 1.012 0.44 1.836v5.145h1.42v-5.191c0-1.157-0.24-2.048-0.73-2.672-0.48-0.63-1.18-0.944-2.07-0.944-0.67 0-1.25 0.151-1.74 0.453s-0.91 0.77-1.26 1.405c-0.21-0.604-0.54-1.066-0.98-1.383-0.43-0.317-0.96-0.475-1.59-0.475zm14.8 0c-1.29 0-2.32 0.413-3.08 1.243-0.76 0.824-1.14 1.939-1.14 3.347 0 1.362 0.4 2.442 1.2 3.24 0.8 0.799 1.89 1.2 3.26 1.2 0.55 0 1.09-0.058 1.62-0.17 0.54-0.113 1.06-0.276 1.56-0.491v-1.335c-0.5 0.266-1.01 0.464-1.52 0.597-0.5 0.133-1.03 0.199-1.57 0.199-0.94 0-1.67-0.253-2.2-0.759-0.52-0.512-0.81-1.254-0.87-2.227h6.49v-0.691c0-1.28-0.33-2.289-1.01-3.032-0.67-0.747-1.59-1.121-2.74-1.121zm9.09 0c-0.46 0-0.93 0.05-1.42 0.153-0.49 0.097-0.99 0.245-1.51 0.445v1.307c0.43-0.236 0.88-0.414 1.35-0.532 0.46-0.117 0.94-0.175 1.43-0.175 0.78 0 1.37 0.178 1.8 0.537 0.43 0.353 0.64 0.855 0.64 1.506v0.136h-1.98c-1.28 0-2.25 0.247-2.9 0.739-0.64 0.491-0.97 1.22-0.97 2.187 0 0.829 0.26 1.492 0.78 1.988 0.52 0.492 1.22 0.739 2.1 0.739 0.7 0 1.29-0.124 1.77-0.37 0.48-0.25 0.88-0.638 1.2-1.16v1.307h1.42v-4.906c0-1.311-0.31-2.289-0.92-2.934-0.62-0.645-1.55-0.967-2.79-0.967zm9.36 0c-1.06 0-1.87 0.22-2.44 0.66-0.58 0.441-0.86 1.065-0.86 1.874 0 0.665 0.19 1.19 0.58 1.574 0.39 0.379 1.02 0.659 1.9 0.843l0.49 0.116c0.87 0.189 1.44 0.387 1.7 0.592 0.26 0.204 0.39 0.498 0.39 0.882 0 0.415-0.18 0.737-0.54 0.967-0.36 0.225-0.87 0.338-1.54 0.338-0.49 0-0.99-0.066-1.5-0.199-0.51-0.138-1.02-0.342-1.54-0.613v1.459c0.55 0.179 1.07 0.311 1.57 0.398 0.5 0.092 0.98 0.139 1.44 0.139 1.11 0 1.98-0.234 2.61-0.7 0.63-0.465 0.95-1.098 0.95-1.896 0-0.701-0.21-1.246-0.64-1.635-0.42-0.394-1.13-0.699-2.13-0.914l-0.49-0.107c-0.75-0.169-1.26-0.345-1.51-0.53-0.25-0.189-0.38-0.449-0.38-0.777 0-0.43 0.18-0.752 0.53-0.967s0.88-0.322 1.58-0.322c0.46 0 0.9 0.052 1.33 0.154 0.43 0.103 0.85 0.254 1.25 0.459v-1.336c-0.39-0.153-0.82-0.267-1.28-0.343-0.46-0.077-0.95-0.116-1.47-0.116zm19.71 0c-0.68 0-1.26 0.127-1.74 0.383-0.47 0.251-0.86 0.638-1.15 1.16v-1.336h-1.43v8.6h1.43v-4.531c0-0.973 0.21-1.718 0.63-2.235 0.43-0.522 1.05-0.783 1.85-0.783 0.22 0 0.42 0.024 0.61 0.07 0.19 0.041 0.36 0.108 0.52 0.2l-0.01-1.452c-0.14-0.025-0.27-0.044-0.39-0.054-0.12-0.016-0.22-0.022-0.32-0.022zm5.48 0c-1.29 0-2.32 0.413-3.08 1.243-0.76 0.824-1.13 1.939-1.13 3.347 0 1.362 0.4 2.442 1.19 3.24 0.81 0.799 1.9 1.2 3.27 1.2 0.55 0 1.08-0.058 1.62-0.17 0.53-0.113 1.05-0.276 1.56-0.491v-1.335c-0.51 0.266-1.01 0.464-1.52 0.597s-1.04 0.199-1.58 0.199c-0.93 0-1.67-0.253-2.2-0.759-0.52-0.512-0.81-1.254-0.87-2.227h6.5v-0.691c0-1.28-0.34-2.289-1.02-3.032-0.67-0.747-1.58-1.121-2.74-1.121zm-127.37 0.207v8.6h1.41v-8.6h-1.41zm107.5 0v5.205c0 1.183 0.26 2.081 0.77 2.696 0.51 0.614 1.26 0.922 2.25 0.922 0.6 0 1.12-0.127 1.57-0.377 0.46-0.256 0.86-0.644 1.2-1.166v1.32h1.41v-8.6h-1.41v4.875c0 0.84-0.22 1.502-0.67 1.989-0.44 0.486-1.04 0.73-1.8 0.73-0.64 0-1.11-0.203-1.43-0.607-0.32-0.41-0.48-1.02-0.48-1.834v-5.153h-1.41zm-99.9 0.975c0.75 0 1.34 0.297 1.77 0.891 0.43 0.588 0.65 1.402 0.65 2.441s-0.22 1.855-0.65 2.449c-0.43 0.589-1.02 0.883-1.77 0.883-0.74 0-1.33-0.294-1.76-0.883-0.43-0.594-0.64-1.41-0.64-2.449s0.21-1.853 0.64-2.441c0.43-0.594 1.02-0.891 1.76-0.891zm36.31 0c0.74 0 1.33 0.297 1.76 0.891 0.43 0.588 0.64 1.402 0.64 2.441s-0.21 1.855-0.64 2.449c-0.43 0.589-1.02 0.883-1.76 0.883-0.75 0-1.34-0.294-1.77-0.883-0.42-0.594-0.64-1.41-0.64-2.449s0.22-1.853 0.64-2.441c0.43-0.594 1.02-0.891 1.77-0.891zm92.78 0c0.75 0 1.34 0.297 1.77 0.891 0.43 0.588 0.64 1.402 0.64 2.441s-0.21 1.855-0.64 2.449c-0.43 0.589-1.02 0.883-1.77 0.883-0.74 0-1.33-0.294-1.76-0.883-0.43-0.594-0.64-1.41-0.64-2.449s0.21-1.853 0.64-2.441c0.43-0.594 1.02-0.891 1.76-0.891zm-169.93 0.016c0.69 0 1.25 0.23 1.67 0.691 0.43 0.461 0.64 1.077 0.65 1.85l-5.03 0.007c0.07-0.808 0.34-1.435 0.81-1.88 0.48-0.446 1.11-0.668 1.9-0.668zm22.59 0c0.76 0 1.35 0.299 1.79 0.898 0.44 0.594 0.66 1.399 0.66 2.418 0 1.024-0.22 1.832-0.66 2.426s-1.03 0.89-1.79 0.89-1.36-0.294-1.8-0.882c-0.44-0.594-0.65-1.405-0.65-2.434s0.22-1.837 0.66-2.426c0.44-0.594 1.03-0.89 1.79-0.89zm39.5 0c0.75 0 1.35 0.299 1.79 0.898 0.44 0.594 0.66 1.399 0.66 2.418 0 1.024-0.22 1.832-0.66 2.426s-1.04 0.89-1.79 0.89c-0.76 0-1.36-0.294-1.8-0.882-0.44-0.594-0.66-1.405-0.66-2.434s0.22-1.837 0.66-2.426c0.44-0.594 1.04-0.89 1.8-0.89zm24.89 0c0.69 0 1.25 0.23 1.67 0.691 0.43 0.461 0.64 1.077 0.65 1.85l-5.03 0.007c0.07-0.808 0.34-1.435 0.81-1.88 0.47-0.446 1.11-0.668 1.9-0.668zm30 0c0.7 0 1.26 0.23 1.68 0.691s0.64 1.077 0.65 1.85l-5.04 0.007c0.07-0.808 0.35-1.435 0.82-1.88 0.47-0.446 1.1-0.668 1.89-0.668zm43.65 0c0.69 0 1.25 0.23 1.67 0.691 0.43 0.461 0.64 1.077 0.65 1.85l-5.03 0.007c0.07-0.808 0.34-1.435 0.81-1.88 0.48-0.446 1.11-0.668 1.9-0.668zm-33.68 3.285h1.4v0.316c0 0.922-0.23 1.661-0.71 2.219-0.47 0.553-1.1 0.828-1.88 0.828-0.57 0-1.02-0.146-1.35-0.437-0.33-0.297-0.49-0.696-0.49-1.198 0-0.629 0.22-1.075 0.66-1.336s1.23-0.392 2.37-0.392zm49.92 2.373v1.951h1.62v-1.951h-1.62z" transform="translate(105.89 335.23)"/>
</g>
</svg>
